RecursiveSans-CasualExtraBoldItalic.ufo
<glyph name="exclam" format="1">
  <advance width="350"/>
  <unicode hex="0021"/>
  <outline>
    <contour>
      <point x="240" y="290" type="line"/>
      <point x="272" y="355"/>
      <point x="313" y="463"/>
      <point x="330" y="529" type="curve"/>
      <point x="358" y="641" type="line" smooth="yes"/>
      <point x="370" y="689"/>
      <point x="319" y="710"/>
      <point x="249" y="710" type="curve" smooth="yes"/>
      <point x="224" y="710"/>
      <point x="205" y="709"/>
      <point x="180" y="703" type="curve"/>
      <point x="180" y="667"/>
      <point x="175" y="630"/>
      <point x="165" y="590" type="curve" smooth="yes"/>
      <point x="151" y="535" type="line"/>
      <point x="132" y="456"/>
      <point x="116" y="343"/>
      <point x="133" y="321" type="curve" smooth="yes"/>
      <point x="147" y="302"/>
      <point x="177" y="290"/>
      <point x="225" y="290" type="curve"/>
    </contour>
    <contour>
      <point x="210" y="-5" type="curve"/>
      <point x="245" y="134" type="line" smooth="yes"/>
      <point x="261" y="197"/>
      <point x="194" y="206"/>
      <point x="133" y="206" type="curve" smooth="yes"/>
      <point x="110" y="206"/>
      <point x="79" y="204"/>
      <point x="53" y="200" type="curve"/>
      <point x="19" y="61" type="line" smooth="yes"/>
      <point x="3" y="-2"/>
      <point x="70" y="-11"/>
      <point x="131" y="-11" type="curve" smooth="yes"/>
      <point x="154" y="-11"/>
      <point x="184" y="-9"/>
    </contour>
  </outline>
</glyph>
<glyph name="percent" format="1">
  <advance width="600"/>
  <unicode hex="0025"/>
  <outline>
    <contour>
      <point x="215" y="661" type="curve"/>
      <point x="271" y="661"/>
      <point x="290" y="627"/>
      <point x="273" y="557" type="curve" smooth="yes"/>
      <point x="272" y="553" type="line" smooth="yes"/>
      <point x="259" y="501"/>
      <point x="230" y="475"/>
      <point x="186" y="475" type="curve" smooth="yes"/>
      <point x="162" y="475"/>
      <point x="150" y="482"/>
      <point x="138" y="507" type="curve"/>
      <point x="87" y="462"/>
      <point x="117" y="356"/>
      <point x="181" y="356" type="curve" smooth="yes"/>
      <point x="278" y="356"/>
      <point x="357" y="426"/>
      <point x="385" y="536" type="curve" smooth="yes"/>
      <point x="386" y="542" type="line" smooth="yes"/>
      <point x="411" y="640"/>
      <point x="364" y="710"/>
      <point x="276" y="710" type="curve" smooth="yes"/>
      <point x="247" y="710"/>
      <point x="222" y="690"/>
    </contour>
    <contour>
      <point x="232" y="415" type="curve"/>
      <point x="173" y="415"/>
      <point x="149" y="460"/>
      <point x="165" y="524" type="curve" smooth="yes"/>
      <point x="166" y="528" type="line" smooth="yes"/>
      <point x="179" y="583"/>
      <point x="216" y="621"/>
      <point x="255" y="621" type="curve" smooth="yes"/>
      <point x="292" y="621"/>
      <point x="305" y="615"/>
      <point x="329" y="588" type="curve"/>
      <point x="374" y="627"/>
      <point x="339" y="710"/>
      <point x="276" y="710" type="curve" smooth="yes"/>
      <point x="182" y="710"/>
      <point x="101" y="637"/>
      <point x="74" y="529" type="curve" smooth="yes"/>
      <point x="72" y="523" type="line" smooth="yes"/>
      <point x="47" y="420"/>
      <point x="88" y="356"/>
      <point x="181" y="356" type="curve" smooth="yes"/>
      <point x="213" y="356"/>
      <point x="223" y="379"/>
    </contour>
    <contour>
      <point x="396" y="295" type="curve"/>
      <point x="452" y="295"/>
      <point x="472" y="261"/>
      <point x="454" y="191" type="curve" smooth="yes"/>
      <point x="453" y="187" type="line" smooth="yes"/>
      <point x="440" y="135"/>
      <point x="412" y="109"/>
      <point x="368" y="109" type="curve" smooth="yes"/>
      <point x="344" y="109"/>
      <point x="331" y="116"/>
      <point x="320" y="141" type="curve"/>
      <point x="268" y="96"/>
      <point x="298" y="-10"/>
      <point x="362" y="-10" type="curve" smooth="yes"/>
      <point x="459" y="-10"/>
      <point x="538" y="60"/>
      <point x="566" y="170" type="curve" smooth="yes"/>
      <point x="567" y="176" type="line" smooth="yes"/>
      <point x="592" y="274"/>
      <point x="546" y="344"/>
      <point x="458" y="344" type="curve" smooth="yes"/>
      <point x="429" y="344"/>
      <point x="404" y="324"/>
    </contour>
    <contour>
      <point x="414" y="49" type="curve"/>
      <point x="355" y="49"/>
      <point x="330" y="94"/>
      <point x="346" y="158" type="curve" smooth="yes"/>
      <point x="347" y="162" type="line" smooth="yes"/>
      <point x="361" y="217"/>
      <point x="397" y="255"/>
      <point x="436" y="255" type="curve" smooth="yes"/>
      <point x="473" y="255"/>
      <point x="487" y="249"/>
      <point x="510" y="222" type="curve"/>
      <point x="556" y="261"/>
      <point x="521" y="344"/>
      <point x="458" y="344" type="curve" smooth="yes"/>
      <point x="364" y="344"/>
      <point x="282" y="271"/>
      <point x="255" y="163" type="curve" smooth="yes"/>
      <point x="254" y="157" type="line" smooth="yes"/>
      <point x="228" y="54"/>
      <point x="269" y="-10"/>
      <point x="362" y="-10" type="curve" smooth="yes"/>
      <point x="394" y="-10"/>
      <point x="405" y="13"/>
    </contour>
    <contour>
      <point x="381" y="411" type="curve"/>
      <point x="394" y="402"/>
      <point x="415" y="397"/>
      <point x="443" y="397" type="curve" smooth="yes"/>
      <point x="476" y="397"/>
      <point x="491" y="403"/>
      <point x="520" y="426" type="curve" smooth="yes"/>
      <point x="601" y="491"/>
      <point x="653" y="581"/>
      <point x="670" y="650" type="curve" smooth="yes"/>
      <point x="680" y="691"/>
      <point x="657" y="713"/>
      <point x="598" y="713" type="curve" smooth="yes"/>
      <point x="573" y="713"/>
      <point x="561" y="712"/>
      <point x="543" y="707" type="curve"/>
      <point x="507" y="605"/>
      <point x="459" y="500"/>
    </contour>
    <contour>
      <point x="259" y="289" type="curve"/>
      <point x="246" y="298"/>
      <point x="225" y="303"/>
      <point x="197" y="303" type="curve" smooth="yes"/>
      <point x="164" y="303"/>
      <point x="149" y="297"/>
      <point x="120" y="274" type="curve" smooth="yes"/>
      <point x="39" y="209"/>
      <point x="-13" y="119"/>
      <point x="-30" y="50" type="curve" smooth="yes"/>
      <point x="-40" y="9"/>
      <point x="-17" y="-13"/>
      <point x="42" y="-13" type="curve" smooth="yes"/>
      <point x="67" y="-13"/>
      <point x="79" y="-12"/>
      <point x="97" y="-7" type="curve"/>
      <point x="133" y="95"/>
      <point x="181" y="200"/>
    </contour>
  </outline>
</glyph>
<glyph name="ampersand" format="1">
  <advance width="600"/>
  <unicode hex="0026"/>
  <outline>
    <contour>
      <point x="440" y="710" type="curve" smooth="yes"/>
      <point x="303" y="710"/>
      <point x="184" y="602"/>
      <point x="165" y="524" type="curve" smooth="yes"/>
      <point x="155" y="485"/>
      <point x="179" y="459"/>
      <point x="263" y="459" type="curve"/>
      <point x="263" y="469"/>
      <point x="263" y="475"/>
      <point x="267" y="489" type="curve" smooth="yes"/>
      <point x="279" y="537"/>
      <point x="338" y="560"/>
      <point x="406" y="560" type="curve" smooth="yes"/>
      <point x="468" y="560"/>
      <point x="514" y="550"/>
      <point x="551" y="525" type="curve"/>
      <point x="555" y="525" type="line"/>
      <point x="567" y="542"/>
      <point x="578" y="565"/>
      <point x="584" y="590" type="curve"/>
      <point x="593" y="626"/>
      <point x="588" y="656"/>
      <point x="572" y="677" type="curve" smooth="yes"/>
      <point x="555" y="699"/>
      <point x="513" y="710"/>
    </contour>
    <contour>
      <point x="299" y="389" type="curve" smooth="yes"/>
      <point x="290" y="436"/>
      <point x="292" y="483"/>
      <point x="301" y="518" type="curve" smooth="yes"/>
      <point x="312" y="560"/>
      <point x="324" y="587"/>
      <point x="347" y="616" type="curve"/>
      <point x="277" y="632"/>
      <point x="183" y="597"/>
      <point x="165" y="524" type="curve" smooth="yes"/>
      <point x="164" y="521" type="line" smooth="yes"/>
      <point x="151" y="468"/>
      <point x="154" y="405"/>
      <point x="175" y="334" type="curve" smooth="yes"/>
      <point x="200" y="254"/>
      <point x="241" y="169"/>
      <point x="289" y="104" type="curve" smooth="yes"/>
      <point x="361" y="8"/>
      <point x="413" y="-10"/>
      <point x="447" y="-10" type="curve" smooth="yes"/>
      <point x="452" y="-10" type="line" smooth="yes"/>
      <point x="494" y="-10"/>
      <point x="520" y="15"/>
      <point x="539" y="91" type="curve" smooth="yes"/>
      <point x="546" y="118"/>
      <point x="549" y="140"/>
      <point x="549" y="159" type="curve"/>
      <point x="545" y="159" type="line"/>
      <point x="529" y="152"/>
      <point x="517" y="150"/>
      <point x="496" y="150" type="curve" smooth="yes"/>
      <point x="455" y="150"/>
      <point x="408" y="174"/>
      <point x="378" y="214" type="curve" smooth="yes"/>
      <point x="342" y="260"/>
      <point x="311" y="329"/>
    </contour>
    <contour>
      <point x="133" y="-9" type="curve" smooth="yes"/>
      <point x="221" y="-9"/>
      <point x="280" y="29"/>
      <point x="323" y="88" type="curve" smooth="yes"/>
      <point x="341" y="113"/>
      <point x="332" y="154"/>
      <point x="301" y="169" type="curve"/>
      <point x="264" y="135"/>
      <point x="237" y="123"/>
      <point x="192" y="123" type="curve" smooth="yes"/>
      <point x="149" y="123"/>
      <point x="135" y="159"/>
      <point x="146" y="204" type="curve" smooth="yes"/>
      <point x="147" y="207" type="line" smooth="yes"/>
      <point x="159" y="256"/>
      <point x="194" y="278"/>
      <point x="249" y="282" type="curve"/>
      <point x="244" y="321"/>
      <point x="233" y="369"/>
      <point x="205" y="365" type="curve" smooth="yes"/>
      <point x="124" y="352"/>
      <point x="29" y="289"/>
      <point x="0" y="174" type="curve" smooth="yes"/>
      <point x="-1" y="169" type="line" smooth="yes"/>
      <point x="-28" y="63"/>
      <point x="27" y="-9"/>
    </contour>
    <contour>
      <point x="495" y="426" type="curve" smooth="yes"/>
      <point x="476" y="426"/>
      <point x="462" y="424"/>
      <point x="451" y="421" type="curve"/>
      <point x="448" y="411"/>
      <point x="446" y="401"/>
      <point x="443" y="389" type="curve" smooth="yes"/>
      <point x="427" y="326"/>
      <point x="400" y="272"/>
      <point x="353" y="221" type="curve" smooth="yes"/>
      <point x="330" y="194"/>
      <point x="351" y="162"/>
      <point x="405" y="161" type="curve"/>
      <point x="504" y="218"/>
      <point x="572" y="292"/>
      <point x="586" y="350" type="curve" smooth="yes"/>
      <point x="589" y="361" type="line" smooth="yes"/>
      <point x="598" y="398"/>
      <point x="558" y="426"/>
    </contour>
  </outline>
</glyph>
<glyph name="quotesingle" format="1">
  <advance width="250"/>
  <unicode hex="0027"/>
  <outline>
    <contour>
      <point x="244" y="446" type="curve"/>
      <point x="305" y="637" type="line" smooth="yes"/>
      <point x="331" y="717"/>
      <point x="300" y="754"/>
      <point x="204" y="754" type="curve" smooth="yes"/>
      <point x="188" y="754"/>
      <point x="172" y="753"/>
      <point x="156" y="750" type="curve"/>
      <point x="158" y="725"/>
      <point x="156" y="696"/>
      <point x="147" y="644" type="curve" smooth="yes"/>
      <point x="122" y="502" type="line" smooth="yes"/>
      <point x="113" y="457"/>
      <point x="131" y="440"/>
      <point x="184" y="440" type="curve" smooth="yes"/>
      <point x="207" y="440"/>
      <point x="228" y="442"/>
    </contour>
  </outline>
</glyph>
<glyph name="parenleft" format="1">
  <advance width="400"/>
  <unicode hex="0028"/>
  <outline>
    <contour>
      <point x="309" y="722" type="curve" smooth="yes"/>
      <point x="192" y="628"/>
      <point x="101" y="472"/>
      <point x="58" y="303" type="curve" smooth="yes"/>
      <point x="56" y="294" type="line" smooth="yes"/>
      <point x="14" y="125"/>
      <point x="27" y="-32"/>
      <point x="97" y="-125" type="curve" smooth="yes"/>
      <point x="122" y="-158"/>
      <point x="148" y="-173"/>
      <point x="184" y="-173" type="curve" smooth="yes"/>
      <point x="239" y="-173"/>
      <point x="284" y="-157"/>
      <point x="318" y="-136" type="curve"/>
      <point x="319" y="-132" type="line"/>
      <point x="211" y="-31"/>
      <point x="185" y="129"/>
      <point x="226" y="294" type="curve" smooth="yes"/>
      <point x="228" y="303" type="line" smooth="yes"/>
      <point x="269" y="467"/>
      <point x="375" y="628"/>
      <point x="535" y="729" type="curve"/>
      <point x="536" y="733" type="line"/>
      <point x="512" y="754"/>
      <point x="475" y="770"/>
      <point x="420" y="770" type="curve" smooth="yes"/>
      <point x="384" y="770"/>
      <point x="350" y="755"/>
    </contour>
  </outline>
</glyph>
<glyph name="parenright" format="1">
  <advance width="400"/>
  <unicode hex="0029"/>
  <outline>
    <contour>
      <point x="106" y="-121" type="curve" smooth="yes"/>
      <point x="224" y="-27"/>
      <point x="315" y="129"/>
      <point x="357" y="298" type="curve" smooth="yes"/>
      <point x="359" y="307" type="line" smooth="yes"/>
      <point x="402" y="476"/>
      <point x="388" y="633"/>
      <point x="318" y="726" type="curve" smooth="yes"/>
      <point x="293" y="759"/>
      <point x="267" y="774"/>
      <point x="231" y="774" type="curve" smooth="yes"/>
      <point x="176" y="774"/>
      <point x="131" y="758"/>
      <point x="97" y="737" type="curve"/>
      <point x="96" y="733" type="line"/>
      <point x="205" y="632"/>
      <point x="231" y="472"/>
      <point x="189" y="307" type="curve" smooth="yes"/>
      <point x="187" y="298" type="line" smooth="yes"/>
      <point x="146" y="134"/>
      <point x="41" y="-27"/>
      <point x="-120" y="-128" type="curve"/>
      <point x="-121" y="-132" type="line"/>
      <point x="-97" y="-153"/>
      <point x="-60" y="-169"/>
      <point x="-5" y="-169" type="curve" smooth="yes"/>
      <point x="31" y="-169"/>
      <point x="65" y="-154"/>
    </contour>
  </outline>
</glyph>
<glyph name="asterisk" format="1">
  <advance width="500"/>
  <unicode hex="002A"/>
  <outline>
    <contour>
      <point x="308" y="762" type="curve"/>
      <point x="311" y="738"/>
      <point x="313" y="716"/>
      <point x="309" y="682" type="curve" smooth="yes"/>
      <point x="299" y="555" type="line"/>
      <point x="239" y="434" type="line" smooth="yes"/>
      <point x="210" y="376"/>
      <point x="226" y="340"/>
      <point x="286" y="340" type="curve"/>
      <point x="301" y="340"/>
      <point x="318" y="343"/>
      <point x="334" y="348" type="curve"/>
      <point x="332" y="372"/>
      <point x="329" y="394"/>
      <point x="333" y="428" type="curve" smooth="yes"/>
      <point x="343" y="555" type="line"/>
      <point x="404" y="676" type="line" smooth="yes"/>
      <point x="433" y="736"/>
      <point x="416" y="770"/>
      <point x="356" y="770" type="curve" smooth="yes"/>
      <point x="342" y="770"/>
      <point x="325" y="768"/>
    </contour>
    <contour>
      <point x="515" y="705" type="curve"/>
      <point x="311" y="576" type="line"/>
      <point x="144" y="519" type="line" smooth="yes"/>
      <point x="114" y="508"/>
      <point x="102" y="476"/>
      <point x="113" y="441" type="curve"/>
      <point x="117" y="428"/>
      <point x="123" y="418"/>
      <point x="130" y="409" type="curve"/>
      <point x="332" y="539" type="line"/>
      <point x="500" y="596" type="line" smooth="yes"/>
      <point x="531" y="607"/>
      <point x="543" y="637"/>
      <point x="531" y="674" type="curve" smooth="yes"/>
      <point x="528" y="684"/>
      <point x="524" y="692"/>
    </contour>
    <contour>
      <point x="513" y="496" type="curve"/>
      <point x="342" y="576" type="line"/>
      <point x="236" y="683" type="line" smooth="yes"/>
      <point x="216" y="703"/>
      <point x="186" y="690"/>
      <point x="155" y="655" type="curve"/>
      <point x="145" y="643"/>
      <point x="138" y="629"/>
      <point x="131" y="617" type="curve"/>
      <point x="301" y="539" type="line"/>
      <point x="407" y="431" type="line" smooth="yes"/>
      <point x="427" y="411"/>
      <point x="458" y="423"/>
      <point x="489" y="460" type="curve"/>
      <point x="496" y="469"/>
      <point x="504" y="480"/>
    </contour>
  </outline>
</glyph>
<glyph name="plus" format="1">
  <advance width="600"/>
  <unicode hex="002B"/>
  <outline>
    <contour>
      <point x="75" y="375" type="line"/>
      <point x="74" y="369"/>
      <point x="72" y="363"/>
      <point x="71" y="356" type="curve" smooth="yes"/>
      <point x="56" y="297"/>
      <point x="55" y="263"/>
      <point x="69" y="245" type="curve" smooth="yes"/>
      <point x="80" y="230"/>
      <point x="99" y="225"/>
      <point x="145" y="225" type="curve"/>
      <point x="543" y="225" type="line"/>
      <point x="552" y="246"/>
      <point x="561" y="269"/>
      <point x="566" y="288" type="curve" smooth="yes"/>
      <point x="582" y="354"/>
      <point x="570" y="375"/>
      <point x="514" y="375" type="curve"/>
    </contour>
    <contour>
      <point x="322" y="56" type="curve"/>
      <point x="417" y="433" type="line" smooth="yes"/>
      <point x="430" y="485"/>
      <point x="427" y="501"/>
      <point x="412" y="521" type="curve" smooth="yes"/>
      <point x="395" y="543"/>
      <point x="357" y="550"/>
      <point x="325" y="550" type="curve" smooth="yes"/>
      <point x="311" y="550"/>
      <point x="297" y="549"/>
      <point x="282" y="546" type="curve"/>
      <point x="282" y="510"/>
      <point x="278" y="479"/>
      <point x="269" y="440" type="curve" smooth="yes"/>
      <point x="186" y="112" type="line" smooth="yes"/>
      <point x="173" y="58"/>
      <point x="206" y="50"/>
      <point x="263" y="50" type="curve" smooth="yes"/>
      <point x="286" y="50"/>
      <point x="306" y="52"/>
    </contour>
  </outline>
</glyph>
<glyph name="comma" format="1">
  <advance width="350"/>
  <unicode hex="002C"/>
  <outline>
    <contour>
      <point x="35" y="-200" type="curve" smooth="yes"/>
      <point x="57" y="-200"/>
      <point x="70" y="-196"/>
      <point x="84" y="-185" type="curve"/>
      <point x="157" y="-127"/>
      <point x="240" y="0"/>
      <point x="261" y="82" type="curve"/>
      <point x="275" y="138"/>
      <point x="245" y="160"/>
      <point x="156" y="160" type="curve" smooth="yes"/>
      <point x="131" y="160"/>
      <point x="114" y="158"/>
      <point x="84" y="153" type="curve"/>
      <point x="51" y="22"/>
      <point x="0" y="-85"/>
      <point x="-67" y="-165" type="curve"/>
      <point x="-42" y="-190"/>
      <point x="-13" y="-200"/>
    </contour>
  </outline>
</glyph>
<glyph name="hyphen" format="1">
  <advance width="600"/>
  <unicode hex="002D"/>
  <outline>
    <contour>
      <point x="126" y="374" type="line"/>
      <point x="125" y="368"/>
      <point x="123" y="362"/>
      <point x="121" y="355" type="curve" smooth="yes"/>
      <point x="106" y="296"/>
      <point x="106" y="262"/>
      <point x="119" y="244" type="curve" smooth="yes"/>
      <point x="131" y="229"/>
      <point x="149" y="224"/>
      <point x="195" y="224" type="curve"/>
      <point x="493" y="224" type="line"/>
      <point x="503" y="245"/>
      <point x="511" y="268"/>
      <point x="516" y="287" type="curve" smooth="yes"/>
      <point x="533" y="353"/>
      <point x="521" y="374"/>
      <point x="465" y="374" type="curve"/>
    </contour>
  </outline>
</glyph>
<glyph name="period" format="1">
  <advance width="300"/>
  <unicode hex="002E"/>
  <outline>
    <contour>
      <point x="185" y="-5" type="curve"/>
      <point x="220" y="134" type="line" smooth="yes"/>
      <point x="236" y="197"/>
      <point x="169" y="206"/>
      <point x="108" y="206" type="curve" smooth="yes"/>
      <point x="85" y="206"/>
      <point x="54" y="204"/>
      <point x="28" y="200" type="curve"/>
      <point x="-6" y="61" type="line" smooth="yes"/>
      <point x="-22" y="-2"/>
      <point x="45" y="-11"/>
      <point x="106" y="-11" type="curve" smooth="yes"/>
      <point x="129" y="-11"/>
      <point x="159" y="-9"/>
    </contour>
  </outline>
</glyph>
<glyph name="slash" format="1">
  <advance width="600"/>
  <unicode hex="002F"/>
  <outline>
    <contour>
      <point x="676" y="751" type="curve"/>
      <point x="653" y="763"/>
      <point x="636" y="768"/>
      <point x="611" y="768" type="curve" smooth="yes"/>
      <point x="550" y="768"/>
      <point x="506" y="746"/>
      <point x="487" y="706" type="curve" smooth="yes"/>
      <point x="361" y="441"/>
      <point x="205" y="196"/>
      <point x="22" y="-29" type="curve" smooth="yes"/>
      <point x="-6" y="-64"/>
      <point x="-30" y="-90"/>
      <point x="-58" y="-113" type="curve"/>
      <point x="-34" y="-129"/>
      <point x="-11" y="-135"/>
      <point x="22" y="-135" type="curve" smooth="yes"/>
      <point x="75" y="-135"/>
      <point x="121" y="-109"/>
      <point x="168" y="-54" type="curve"/>
      <point x="364" y="179"/>
      <point x="533" y="447"/>
    </contour>
  </outline>
</glyph>
<glyph name="zero" format="1">
  <advance width="600"/>
  <unicode hex="0030"/>
  <outline>
    <contour>
      <point x="409" y="720" type="curve" smooth="yes"/>
      <point x="260" y="720"/>
      <point x="133" y="605"/>
      <point x="76" y="375" type="curve" smooth="yes"/>
      <point x="66" y="335" type="line" smooth="yes"/>
      <point x="13" y="123"/>
      <point x="88" y="-20"/>
      <point x="235" y="-20" type="curve"/>
      <point x="280" y="-20"/>
      <point x="316" y="18"/>
      <point x="330" y="74" type="curve"/>
      <point x="211" y="74"/>
      <point x="171" y="148"/>
      <point x="206" y="292" type="curve" smooth="yes"/>
      <point x="217" y="337" type="line" smooth="yes"/>
      <point x="252" y="480"/>
      <point x="312" y="576"/>
      <point x="394" y="576" type="curve" smooth="yes"/>
      <point x="435" y="576"/>
      <point x="457" y="568"/>
      <point x="479" y="549" type="curve"/>
      <point x="539" y="597"/>
      <point x="492" y="720"/>
    </contour>
    <contour>
      <point x="235" y="-20" type="curve" smooth="yes"/>
      <point x="383" y="-20"/>
      <point x="498" y="76"/>
      <point x="549" y="279" type="curve" smooth="yes"/>
      <point x="559" y="321" type="line" smooth="yes"/>
      <point x="621" y="568"/>
      <point x="556" y="720"/>
      <point x="409" y="720" type="curve"/>
      <point x="363" y="720"/>
      <point x="326" y="682"/>
      <point x="312" y="626" type="curve"/>
      <point x="431" y="626"/>
      <point x="463" y="539"/>
      <point x="419" y="359" type="curve" smooth="yes"/>
      <point x="408" y="314" type="line" smooth="yes"/>
      <point x="380" y="200"/>
      <point x="330" y="124"/>
      <point x="248" y="124" type="curve" smooth="yes"/>
      <point x="206" y="124"/>
      <point x="177" y="133"/>
      <point x="154" y="157" type="curve"/>
      <point x="94" y="109"/>
      <point x="149" y="-20"/>
    </contour>
  </outline>
</glyph>
<glyph name="seven" format="1">
  <advance width="600"/>
  <unicode hex="0037"/>
  <outline>
    <contour>
      <point x="471" y="555" type="line" smooth="yes"/>
      <point x="524" y="555"/>
      <point x="581" y="559"/>
      <point x="633" y="568" type="curve"/>
      <point x="636" y="580" type="line"/>
      <point x="647" y="625"/>
      <point x="636" y="700"/>
      <point x="602" y="700" type="curve"/>
      <point x="207" y="700" type="line"/>
      <point x="200" y="671" type="line" smooth="yes"/>
      <point x="182" y="600"/>
      <point x="188" y="555"/>
      <point x="226" y="555" type="curve" smooth="yes"/>
    </contour>
    <contour>
      <point x="288" y="-10" type="line"/>
      <point x="356" y="259"/>
      <point x="603" y="448"/>
      <point x="633" y="568" type="curve" smooth="yes"/>
      <point x="637" y="584"/>
      <point x="565" y="602"/>
      <point x="480" y="602" type="curve"/>
      <point x="450" y="485"/>
      <point x="199" y="263"/>
      <point x="152" y="75" type="curve" smooth="yes"/>
      <point x="138" y="18"/>
      <point x="212" y="-10"/>
      <point x="263" y="-10" type="curve" smooth="yes"/>
    </contour>
    <contour>
      <point x="253" y="450" type="curve"/>
      <point x="280" y="561"/>
      <point x="308" y="600"/>
      <point x="325" y="666" type="curve"/>
      <point x="333" y="700"/>
      <point x="265" y="720"/>
      <point x="206" y="720" type="curve" smooth="yes"/>
      <point x="200" y="720" type="line"/>
      <point x="162" y="650"/>
      <point x="136" y="577"/>
      <point x="119" y="506" type="curve"/>
      <point x="105" y="452"/>
      <point x="137" y="444"/>
      <point x="193" y="444" type="curve" smooth="yes"/>
      <point x="216" y="444"/>
      <point x="237" y="446"/>
    </contour>
  </outline>
</glyph>
<glyph name="colon" format="1">
  <advance width="300"/>
  <unicode hex="003A"/>
  <outline>
    <contour>
      <point x="272" y="341" type="curve"/>
      <point x="307" y="480" type="line" smooth="yes"/>
      <point x="322" y="543"/>
      <point x="256" y="552"/>
      <point x="195" y="552" type="curve" smooth="yes"/>
      <point x="172" y="552"/>
      <point x="141" y="550"/>
      <point x="115" y="546" type="curve"/>
      <point x="80" y="407" type="line" smooth="yes"/>
      <point x="65" y="344"/>
      <point x="131" y="335"/>
      <point x="192" y="335" type="curve" smooth="yes"/>
      <point x="215" y="335"/>
      <point x="246" y="337"/>
    </contour>
    <contour>
      <point x="185" y="-5" type="curve"/>
      <point x="220" y="134" type="line" smooth="yes"/>
      <point x="236" y="197"/>
      <point x="169" y="206"/>
      <point x="108" y="206" type="curve" smooth="yes"/>
      <point x="85" y="206"/>
      <point x="54" y="204"/>
      <point x="28" y="200" type="curve"/>
      <point x="-6" y="61" type="line" smooth="yes"/>
      <point x="-22" y="-2"/>
      <point x="45" y="-11"/>
      <point x="106" y="-11" type="curve" smooth="yes"/>
      <point x="129" y="-11"/>
      <point x="159" y="-9"/>
    </contour>
  </outline>
</glyph>
<glyph name="semicolon" format="1">
  <advance width="350"/>
  <unicode hex="003B"/>
  <outline>
    <contour>
      <point x="291" y="339" type="curve"/>
      <point x="326" y="478" type="line" smooth="yes"/>
      <point x="342" y="541"/>
      <point x="275" y="550"/>
      <point x="214" y="550" type="curve" smooth="yes"/>
      <point x="191" y="550"/>
      <point x="161" y="548"/>
      <point x="135" y="544" type="curve"/>
      <point x="100" y="405" type="line" smooth="yes"/>
      <point x="84" y="342"/>
      <point x="151" y="333"/>
      <point x="212" y="333" type="curve" smooth="yes"/>
      <point x="235" y="333"/>
      <point x="265" y="335"/>
    </contour>
    <contour>
      <point x="5" y="-200" type="curve" smooth="yes"/>
      <point x="27" y="-200"/>
      <point x="40" y="-196"/>
      <point x="54" y="-185" type="curve"/>
      <point x="127" y="-127"/>
      <point x="210" y="0"/>
      <point x="231" y="82" type="curve"/>
      <point x="245" y="138"/>
      <point x="215" y="160"/>
      <point x="126" y="160" type="curve" smooth="yes"/>
      <point x="101" y="160"/>
      <point x="84" y="158"/>
      <point x="54" y="153" type="curve"/>
      <point x="21" y="22"/>
      <point x="-30" y="-85"/>
      <point x="-97" y="-165" type="curve"/>
      <point x="-72" y="-190"/>
      <point x="-43" y="-200"/>
    </contour>
  </outline>
</glyph>
<glyph name="less" format="1">
  <advance width="600"/>
  <unicode hex="003C"/>
  <outline>
    <contour>
      <point x="581" y="462" type="curve"/>
      <point x="587" y="485" type="line"/>
      <point x="598" y="528"/>
      <point x="588" y="592"/>
      <point x="549" y="592" type="curve" smooth="yes"/>
      <point x="536" y="592"/>
      <point x="506" y="585"/>
      <point x="462" y="568" type="curve" smooth="yes"/>
      <point x="320" y="514"/>
      <point x="167" y="415"/>
      <point x="83" y="329" type="curve"/>
      <point x="77" y="307" type="line"/>
      <point x="67" y="268"/>
      <point x="102" y="260"/>
      <point x="195" y="260" type="curve"/>
      <point x="290" y="350"/>
      <point x="399" y="425"/>
    </contour>
    <contour>
      <point x="454" y="0" type="curve"/>
      <point x="463" y="15"/>
      <point x="469" y="31"/>
      <point x="475" y="55" type="curve" smooth="yes"/>
      <point x="489" y="110"/>
      <point x="487" y="150"/>
      <point x="462" y="159" type="curve" smooth="yes"/>
      <point x="326" y="207"/>
      <point x="252" y="267"/>
      <point x="193" y="362" type="curve" smooth="yes"/>
      <point x="188" y="370"/>
      <point x="188" y="378"/>
      <point x="189" y="382" type="curve" smooth="yes"/>
      <point x="191" y="388"/>
      <point x="192" y="392"/>
      <point x="193" y="398" type="curve"/>
      <point x="117" y="360"/>
      <point x="83" y="328"/>
      <point x="78" y="311" type="curve" smooth="yes"/>
      <point x="76" y="302" type="line" smooth="yes"/>
      <point x="69" y="274"/>
      <point x="69" y="258"/>
      <point x="102" y="217" type="curve" smooth="yes"/>
      <point x="173" y="129"/>
      <point x="274" y="47"/>
    </contour>
  </outline>
</glyph>
<glyph name="equal" format="1">
  <advance width="600"/>
  <unicode hex="003D"/>
  <outline>
    <contour>
      <point x="108" y="500" type="line"/>
      <point x="106" y="494"/>
      <point x="105" y="488"/>
      <point x="103" y="481" type="curve" smooth="yes"/>
      <point x="88" y="422"/>
      <point x="88" y="388"/>
      <point x="101" y="370" type="curve" smooth="yes"/>
      <point x="112" y="355"/>
      <point x="131" y="350"/>
      <point x="177" y="350" type="curve"/>
      <point x="575" y="350" type="line"/>
      <point x="584" y="371"/>
      <point x="593" y="394"/>
      <point x="598" y="413" type="curve" smooth="yes"/>
      <point x="614" y="479"/>
      <point x="603" y="500"/>
      <point x="547" y="500" type="curve"/>
    </contour>
    <contour>
      <point x="519" y="100" type="line"/>
      <point x="521" y="106"/>
      <point x="522" y="112"/>
      <point x="524" y="119" type="curve" smooth="yes"/>
      <point x="539" y="178"/>
      <point x="539" y="212"/>
      <point x="526" y="230" type="curve" smooth="yes"/>
      <point x="515" y="245"/>
      <point x="496" y="250"/>
      <point x="450" y="250" type="curve"/>
      <point x="52" y="250" type="line"/>
      <point x="43" y="229"/>
      <point x="34" y="206"/>
      <point x="29" y="187" type="curve" smooth="yes"/>
      <point x="13" y="121"/>
      <point x="24" y="100"/>
      <point x="80" y="100" type="curve"/>
    </contour>
  </outline>
</glyph>
<glyph name="greater" format="1">
  <advance width="550"/>
  <unicode hex="003E"/>
  <outline>
    <contour>
      <point x="34" y="139" type="curve"/>
      <point x="28" y="116" type="line"/>
      <point x="18" y="73"/>
      <point x="28" y="9"/>
      <point x="67" y="9" type="curve" smooth="yes"/>
      <point x="80" y="9"/>
      <point x="109" y="16"/>
      <point x="154" y="33" type="curve" smooth="yes"/>
      <point x="295" y="87"/>
      <point x="448" y="186"/>
      <point x="533" y="272" type="curve"/>
      <point x="538" y="294" type="line"/>
      <point x="548" y="333"/>
      <point x="513" y="341"/>
      <point x="420" y="341" type="curve"/>
      <point x="325" y="251"/>
      <point x="216" y="176"/>
    </contour>
    <contour>
      <point x="161" y="601" type="curve"/>
      <point x="152" y="586"/>
      <point x="146" y="570"/>
      <point x="140" y="546" type="curve" smooth="yes"/>
      <point x="126" y="491"/>
      <point x="128" y="451"/>
      <point x="153" y="442" type="curve" smooth="yes"/>
      <point x="289" y="394"/>
      <point x="363" y="334"/>
      <point x="422" y="239" type="curve" smooth="yes"/>
      <point x="427" y="231"/>
      <point x="427" y="223"/>
      <point x="426" y="219" type="curve" smooth="yes"/>
      <point x="425" y="213"/>
      <point x="424" y="209"/>
      <point x="422" y="203" type="curve"/>
      <point x="499" y="241"/>
      <point x="533" y="273"/>
      <point x="537" y="290" type="curve" smooth="yes"/>
      <point x="539" y="299" type="line" smooth="yes"/>
      <point x="546" y="327"/>
      <point x="546" y="343"/>
      <point x="514" y="384" type="curve" smooth="yes"/>
      <point x="443" y="472"/>
      <point x="341" y="554"/>
    </contour>
  </outline>
</glyph>
<glyph name="question" format="1">
  <advance width="600"/>
  <unicode hex="003F"/>
  <outline>
    <contour>
      <point x="418" y="720" type="curve" smooth="yes"/>
      <point x="332" y="720"/>
      <point x="254" y="700"/>
      <point x="212" y="667" type="curve" smooth="yes"/>
      <point x="186" y="646"/>
      <point x="166" y="610"/>
      <point x="156" y="569" type="curve" smooth="yes"/>
      <point x="149" y="542"/>
      <point x="148" y="524"/>
      <point x="151" y="504" type="curve"/>
      <point x="155" y="504" type="line"/>
      <point x="229" y="549"/>
      <point x="302" y="570"/>
      <point x="387" y="570" type="curve" smooth="yes"/>
      <point x="472" y="570"/>
      <point x="494" y="548"/>
      <point x="486" y="518" type="curve" smooth="yes"/>
      <point x="480" y="492"/>
      <point x="472" y="474"/>
      <point x="461" y="453" type="curve"/>
      <point x="539" y="446"/>
      <point x="589" y="487"/>
      <point x="599" y="527" type="curve" smooth="yes"/>
      <point x="625" y="629"/>
      <point x="574" y="720"/>
    </contour>
    <contour>
      <point x="442" y="637" type="curve"/>
      <point x="459" y="595"/>
      <point x="461" y="577"/>
      <point x="452" y="541" type="curve" smooth="yes"/>
      <point x="445" y="512"/>
      <point x="432" y="486"/>
      <point x="366" y="447" type="curve" smooth="yes"/>
      <point x="339" y="431" type="line" smooth="yes"/>
      <point x="255" y="381"/>
      <point x="235" y="356"/>
      <point x="228" y="330" type="curve" smooth="yes"/>
      <point x="227" y="326" type="line" smooth="yes"/>
      <point x="218" y="291"/>
      <point x="250" y="252"/>
      <point x="331" y="252" type="curve" smooth="yes"/>
      <point x="339" y="252" type="line"/>
      <point x="340" y="255" type="line" smooth="yes"/>
      <point x="347" y="282"/>
      <point x="364" y="305"/>
      <point x="405" y="327" type="curve" smooth="yes"/>
      <point x="440" y="345" type="line" smooth="yes"/>
      <point x="535" y="395"/>
      <point x="583" y="461"/>
      <point x="599" y="524" type="curve" smooth="yes"/>
      <point x="599" y="527" type="line" smooth="yes"/>
      <point x="617" y="596"/>
      <point x="559" y="676"/>
    </contour>
    <contour>
      <point x="315" y="-5" type="curve"/>
      <point x="345" y="114" type="line" smooth="yes"/>
      <point x="361" y="177"/>
      <point x="294" y="186"/>
      <point x="233" y="186" type="curve" smooth="yes"/>
      <point x="210" y="186"/>
      <point x="179" y="184"/>
      <point x="153" y="180" type="curve"/>
      <point x="124" y="61" type="line" smooth="yes"/>
      <point x="108" y="-2"/>
      <point x="175" y="-11"/>
      <point x="236" y="-11" type="curve" smooth="yes"/>
      <point x="259" y="-11"/>
      <point x="289" y="-9"/>
    </contour>
  </outline>
</glyph>
<glyph name="D" format="1">
  <advance width="650"/>
  <unicode hex="0044"/>
  <outline>
    <contour>
      <point x="179" y="40" type="curve"/>
      <point x="293" y="495" type="line" smooth="yes"/>
      <point x="313" y="576"/>
      <point x="269" y="609"/>
      <point x="161" y="609" type="curve"/>
      <point x="33" y="95" type="line" smooth="yes"/>
      <point x="25" y="64"/>
      <point x="90" y="40"/>
    </contour>
    <contour>
      <point x="135" y="700" type="curve"/>
      <point x="127" y="683"/>
      <point x="121" y="666"/>
      <point x="115" y="643" type="curve"/>
      <point x="104" y="600"/>
      <point x="105" y="574"/>
      <point x="115" y="559" type="curve" smooth="yes"/>
      <point x="120" y="552"/>
      <point x="126" y="550"/>
      <point x="136" y="550" type="curve" smooth="yes"/>
      <point x="146" y="550"/>
      <point x="164" y="554"/>
      <point x="203" y="559" type="curve" smooth="yes"/>
      <point x="246" y="565"/>
      <point x="293" y="570"/>
      <point x="359" y="570" type="curve"/>
      <point x="439" y="570"/>
      <point x="496" y="551"/>
      <point x="541" y="492" type="curve"/>
      <point x="615" y="575"/>
      <point x="553" y="720"/>
      <point x="392" y="720" type="curve" smooth="yes"/>
      <point x="293" y="720"/>
      <point x="225" y="716"/>
    </contour>
    <contour>
      <point x="623" y="377" type="curve" smooth="yes"/>
      <point x="625" y="385" type="line" smooth="yes"/>
      <point x="675" y="586"/>
      <point x="582" y="720"/>
      <point x="392" y="720" type="curve" smooth="yes"/>
      <point x="366" y="720"/>
      <point x="334" y="702"/>
      <point x="319" y="645" type="curve"/>
      <point x="495" y="618"/>
      <point x="517" y="574"/>
      <point x="475" y="407" type="curve" smooth="yes"/>
      <point x="472" y="395" type="line" smooth="yes"/>
      <point x="432" y="236"/>
      <point x="313" y="145"/>
      <point x="216" y="145" type="curve" smooth="yes"/>
      <point x="146" y="145"/>
      <point x="124" y="149"/>
      <point x="71" y="169" type="curve"/>
      <point x="53" y="152"/>
      <point x="43" y="135"/>
      <point x="33" y="95" type="curve" smooth="yes"/>
      <point x="22" y="50"/>
      <point x="106" y="-10"/>
      <point x="186" y="-10" type="curve" smooth="yes"/>
      <point x="190" y="-10" type="line" smooth="yes"/>
      <point x="401" y="-10"/>
      <point x="559" y="122"/>
    </contour>
    <contour>
      <point x="422" y="711" type="move" name="top"/>
    </contour>
  </outline>
</glyph>
<glyph name="E" format="1">
  <advance width="550"/>
  <unicode hex="0045"/>
  <outline>
    <contour>
      <point x="134" y="700" type="line"/>
      <point x="132" y="692"/>
      <point x="130" y="683"/>
      <point x="128" y="675" type="curve" smooth="yes"/>
      <point x="116" y="627"/>
      <point x="109" y="575"/>
      <point x="122" y="558" type="curve" smooth="yes"/>
      <point x="126" y="552"/>
      <point x="129" y="550"/>
      <point x="137" y="550" type="curve" smooth="yes"/>
      <point x="575" y="550" type="line"/>
      <point x="584" y="566"/>
      <point x="590" y="583"/>
      <point x="595" y="604" type="curve" smooth="yes"/>
      <point x="600" y="625"/>
      <point x="606" y="669"/>
      <point x="592" y="688" type="curve" smooth="yes"/>
      <point x="585" y="698"/>
      <point x="578" y="700"/>
      <point x="561" y="700" type="curve" smooth="yes"/>
    </contour>
    <contour>
      <point x="190" y="85" type="curve"/>
      <point x="288" y="477" type="line" smooth="yes"/>
      <point x="309" y="558"/>
      <point x="275" y="584"/>
      <point x="155" y="584" type="curve"/>
      <point x="44" y="140" type="line"/>
      <point x="33" y="97"/>
      <point x="106" y="85"/>
    </contour>
    <contour>
      <point x="46" y="150" type="line"/>
      <point x="42" y="132" type="line" smooth="yes"/>
      <point x="27" y="73"/>
      <point x="69" y="0"/>
      <point x="117" y="0" type="curve" smooth="yes"/>
      <point x="440" y="0" type="line"/>
      <point x="447" y="15"/>
      <point x="454" y="35"/>
      <point x="459" y="58" type="curve" smooth="yes"/>
      <point x="476" y="124"/>
      <point x="464" y="150"/>
      <point x="420" y="150" type="curve" smooth="yes"/>
    </contour>
    <contour>
      <point x="179" y="400" type="line"/>
      <point x="156" y="310"/>
      <point x="158" y="270"/>
      <point x="201" y="270" type="curve" smooth="yes"/>
      <point x="457" y="270" type="line"/>
      <point x="463" y="278"/>
      <point x="466" y="287"/>
      <point x="468" y="295" type="curve" smooth="yes"/>
      <point x="474" y="320"/>
      <point x="473" y="356"/>
      <point x="453" y="383" type="curve" smooth="yes"/>
      <point x="443" y="397"/>
      <point x="435" y="400"/>
      <point x="411" y="400" type="curve" smooth="yes"/>
    </contour>
    <contour>
      <point x="380" y="711" type="move" name="top"/>
    </contour>
    <contour>
      <point x="352" y="-1" type="move" name="ogonek"/>
    </contour>
    <contour>
      <point x="202" y="-1" type="move" name="bottom"/>
    </contour>
  </outline>
</glyph>
<glyph name="F" format="1">
  <advance width="550"/>
  <unicode hex="0046"/>
  <outline>
    <contour>
      <point x="193" y="-6" type="curve"/>
      <point x="197" y="31"/>
      <point x="203" y="65"/>
      <point x="211" y="96" type="curve" smooth="yes"/>
      <point x="306" y="477" type="line"/>
      <point x="327" y="558"/>
      <point x="295" y="584"/>
      <point x="173" y="584" type="curve"/>
      <point x="41" y="56" type="line" smooth="yes"/>
      <point x="30" y="11"/>
      <point x="68" y="-6"/>
      <point x="178" y="-6" type="curve" smooth="yes"/>
      <point x="183" y="-6"/>
      <point x="188" y="-6"/>
    </contour>
    <contour>
      <point x="132" y="700" type="line"/>
      <point x="130" y="692"/>
      <point x="128" y="683"/>
      <point x="126" y="675" type="curve" smooth="yes"/>
      <point x="111" y="616"/>
      <point x="109" y="572"/>
      <point x="120" y="558" type="curve" smooth="yes"/>
      <point x="125" y="551"/>
      <point x="128" y="550"/>
      <point x="135" y="550" type="curve"/>
      <point x="583" y="550" type="line"/>
      <point x="591" y="563"/>
      <point x="597" y="581"/>
      <point x="603" y="604" type="curve" smooth="yes"/>
      <point x="612" y="638"/>
      <point x="611" y="674"/>
      <point x="600" y="688" type="curve" smooth="yes"/>
      <point x="593" y="698"/>
      <point x="587" y="700"/>
      <point x="569" y="700" type="curve"/>
    </contour>
    <contour>
      <point x="135" y="350" type="line"/>
      <point x="112" y="260"/>
      <point x="109" y="200"/>
      <point x="152" y="200" type="curve"/>
      <point x="449" y="200" type="line"/>
      <point x="453" y="209"/>
      <point x="457" y="218"/>
      <point x="459" y="229" type="curve"/>
      <point x="468" y="264"/>
      <point x="461" y="305"/>
      <point x="444" y="328" type="curve" smooth="yes"/>
      <point x="429" y="348"/>
      <point x="421" y="350"/>
      <point x="391" y="350" type="curve"/>
    </contour>
  </outline>
</glyph>
<glyph name="G" format="1">
  <advance width="650"/>
  <unicode hex="0047"/>
  <outline>
    <contour>
      <point x="476" y="581" type="curve" smooth="yes"/>
      <point x="532" y="581"/>
      <point x="553" y="549"/>
      <point x="538" y="486" type="curve"/>
      <point x="601" y="486"/>
      <point x="630" y="524"/>
      <point x="636" y="546" type="curve" smooth="yes"/>
      <point x="646" y="588"/>
      <point x="639" y="633"/>
      <point x="613" y="668" type="curve" smooth="yes"/>
      <point x="591" y="697"/>
      <point x="555" y="720"/>
      <point x="491" y="720" type="curve" smooth="yes"/>
      <point x="313" y="720"/>
      <point x="140" y="610"/>
      <point x="64" y="306" type="curve" smooth="yes"/>
      <point x="62" y="298" type="line" smooth="yes"/>
      <point x="37" y="197"/>
      <point x="103" y="139"/>
      <point x="199" y="139" type="curve"/>
      <point x="190" y="190"/>
      <point x="192" y="227"/>
      <point x="206" y="283" type="curve" smooth="yes"/>
      <point x="209" y="295" type="line" smooth="yes"/>
      <point x="262" y="508"/>
      <point x="381" y="581"/>
    </contour>
    <contour>
      <point x="317" y="130" type="curve" smooth="yes"/>
      <point x="192" y="130"/>
      <point x="164" y="198"/>
      <point x="200" y="342" type="curve"/>
      <point x="121" y="343"/>
      <point x="77" y="354"/>
      <point x="62" y="298" type="curve" smooth="yes"/>
      <point x="18" y="118"/>
      <point x="89" y="-20"/>
      <point x="318" y="-20" type="curve" smooth="yes"/>
      <point x="455" y="-20"/>
      <point x="532" y="38"/>
      <point x="557" y="138" type="curve" smooth="yes"/>
      <point x="559" y="146" type="line" smooth="yes"/>
      <point x="576" y="214"/>
      <point x="543" y="293"/>
      <point x="486" y="293" type="curve"/>
      <point x="485" y="275"/>
      <point x="483" y="258"/>
      <point x="475" y="229" type="curve" smooth="yes"/>
      <point x="457" y="157"/>
      <point x="401" y="130"/>
    </contour>
    <contour>
      <point x="382" y="355" type="line"/>
      <point x="380" y="349"/>
      <point x="379" y="343"/>
      <point x="377" y="336" type="curve" smooth="yes"/>
      <point x="367" y="296"/>
      <point x="373" y="274"/>
      <point x="385" y="258" type="curve" smooth="yes"/>
      <point x="402" y="235"/>
      <point x="427" y="226"/>
      <point x="506" y="226" type="curve"/>
      <point x="606" y="226" type="line"/>
      <point x="608" y="235" type="line" smooth="yes"/>
      <point x="631" y="326"/>
      <point x="622" y="355"/>
      <point x="570" y="355" type="curve" smooth="yes"/>
    </contour>
    <contour>
      <point x="613" y="456" type="curve"/>
      <point x="636" y="546" type="line" smooth="yes"/>
      <point x="649" y="598"/>
      <point x="620" y="638"/>
      <point x="554" y="638" type="curve"/>
      <point x="509" y="588"/>
      <point x="484" y="545"/>
      <point x="478" y="515" type="curve" smooth="yes"/>
      <point x="477" y="510" type="line" smooth="yes"/>
      <point x="468" y="464"/>
      <point x="489" y="450"/>
      <point x="554" y="450" type="curve" smooth="yes"/>
      <point x="577" y="450"/>
      <point x="597" y="452"/>
    </contour>
    <contour>
      <point x="444" y="711" type="move" name="top"/>
    </contour>
    <contour>
      <point x="266" y="-1" type="move" name="bottom"/>
    </contour>
  </outline>
</glyph>
<glyph name="H" format="1">
  <advance width="650"/>
  <unicode hex="0048"/>
  <outline>
    <contour>
      <point x="172" y="703" type="curve"/>
      <point x="172" y="667"/>
      <point x="167" y="630"/>
      <point x="157" y="590" type="curve" smooth="yes"/>
      <point x="23" y="57" type="line" smooth="yes"/>
      <point x="12" y="12"/>
      <point x="47" y="-10"/>
      <point x="129" y="-10" type="curve" smooth="yes"/>
      <point x="146" y="-10"/>
      <point x="159" y="-9"/>
      <point x="167" y="-7" type="curve"/>
      <point x="329" y="640" type="line" smooth="yes"/>
      <point x="335" y="665"/>
      <point x="334" y="677"/>
      <point x="326" y="688" type="curve" smooth="yes"/>
      <point x="314" y="704"/>
      <point x="291" y="710"/>
      <point x="241" y="710" type="curve" smooth="yes"/>
      <point x="216" y="710"/>
      <point x="196" y="708"/>
    </contour>
    <contour>
      <point x="531" y="-3" type="curve"/>
      <point x="531" y="33"/>
      <point x="537" y="70"/>
      <point x="547" y="110" type="curve" smooth="yes"/>
      <point x="680" y="643" type="line" smooth="yes"/>
      <point x="691" y="687"/>
      <point x="648" y="710"/>
      <point x="554" y="710" type="curve" smooth="yes"/>
      <point x="546" y="710"/>
      <point x="541" y="710"/>
      <point x="537" y="710" type="curve"/>
      <point x="374" y="60" type="line" smooth="yes"/>
      <point x="368" y="35"/>
      <point x="369" y="23"/>
      <point x="377" y="12" type="curve" smooth="yes"/>
      <point x="389" y="-4"/>
      <point x="412" y="-10"/>
      <point x="462" y="-10" type="curve" smooth="yes"/>
      <point x="487" y="-10"/>
      <point x="507" y="-8"/>
    </contour>
    <contour>
      <point x="59" y="400" type="line"/>
      <point x="53" y="375" type="line" smooth="yes"/>
      <point x="40" y="324"/>
      <point x="43" y="283"/>
      <point x="62" y="258" type="curve" smooth="yes"/>
      <point x="67" y="251"/>
      <point x="70" y="250"/>
      <point x="77" y="250" type="curve"/>
      <point x="456" y="250" type="line"/>
      <point x="484" y="362"/>
      <point x="467" y="400"/>
      <point x="386" y="400" type="curve" smooth="yes"/>
    </contour>
    <contour>
      <point x="423" y="711" type="move" name="top"/>
    </contour>
  </outline>
</glyph>
<glyph name="I" format="1">
  <advance width="500"/>
  <unicode hex="0049"/>
  <outline>
    <contour>
      <point x="286" y="86" type="curve"/>
      <point x="383" y="477" type="line" smooth="yes"/>
      <point x="404" y="558"/>
      <point x="372" y="584"/>
      <point x="250" y="584" type="curve"/>
      <point x="161" y="228" type="line" smooth="yes"/>
      <point x="137" y="130"/>
      <point x="164" y="86"/>
    </contour>
    <contour>
      <point x="155" y="700" type="line"/>
      <point x="150" y="691"/>
      <point x="145" y="679"/>
      <point x="141" y="664" type="curve"/>
      <point x="132" y="626"/>
      <point x="133" y="597"/>
      <point x="148" y="577" type="curve" smooth="yes"/>
      <point x="165" y="555"/>
      <point x="194" y="550"/>
      <point x="267" y="550" type="curve" smooth="yes"/>
      <point x="526" y="550" type="line"/>
      <point x="536" y="570"/>
      <point x="543" y="590"/>
      <point x="547" y="608" type="curve" smooth="yes"/>
      <point x="560" y="659"/>
      <point x="562" y="700"/>
      <point x="508" y="700" type="curve" smooth="yes"/>
    </contour>
    <contour>
      <point x="20" y="150" type="line"/>
      <point x="11" y="134"/>
      <point x="4" y="116"/>
      <point x="-1" y="97" type="curve"/>
      <point x="-8" y="67"/>
      <point x="-12" y="36"/>
      <point x="2" y="18" type="curve" smooth="yes"/>
      <point x="12" y="4"/>
      <point x="23" y="0"/>
      <point x="63" y="0" type="curve" smooth="yes"/>
      <point x="388" y="0" type="line"/>
      <point x="396" y="15"/>
      <point x="404" y="35"/>
      <point x="410" y="58" type="curve" smooth="yes"/>
      <point x="422" y="109"/>
      <point x="425" y="150"/>
      <point x="371" y="150" type="curve" smooth="yes"/>
    </contour>
    <contour>
      <point x="363" y="711" type="move" name="top"/>
    </contour>
    <contour>
      <point x="388" y="-1" type="move" name="ogonek"/>
    </contour>
    <contour>
      <point x="185" y="-1" type="move" name="bottom"/>
    </contour>
  </outline>
</glyph>
<glyph name="J" format="1">
  <advance width="500"/>
  <unicode hex="004A"/>
  <outline>
    <contour>
      <point x="185" y="700" type="line"/>
      <point x="180" y="691"/>
      <point x="175" y="679"/>
      <point x="171" y="664" type="curve" smooth="yes"/>
      <point x="162" y="626"/>
      <point x="163" y="597"/>
      <point x="178" y="577" type="curve" smooth="yes"/>
      <point x="194" y="556"/>
      <point x="220" y="550"/>
      <point x="287" y="550" type="curve" smooth="yes"/>
      <point x="455" y="550" type="line"/>
      <point x="482" y="660"/>
      <point x="466" y="700"/>
      <point x="417" y="700" type="curve"/>
    </contour>
    <contour>
      <point x="433" y="175" type="curve" smooth="yes"/>
      <point x="552" y="647" type="line" smooth="yes"/>
      <point x="559" y="679"/>
      <point x="528" y="700"/>
      <point x="439" y="700" type="curve" smooth="yes"/>
      <point x="405" y="700" type="line"/>
      <point x="288" y="230" type="line" smooth="yes"/>
      <point x="266" y="144"/>
      <point x="245" y="105"/>
      <point x="196" y="63" type="curve"/>
      <point x="277" y="20"/>
      <point x="404" y="58"/>
    </contour>
    <contour>
      <point x="192" y="130" type="curve" smooth="yes"/>
      <point x="119" y="130"/>
      <point x="86" y="145"/>
      <point x="30" y="189" type="curve"/>
      <point x="26" y="189" type="line"/>
      <point x="16" y="171"/>
      <point x="8" y="151"/>
      <point x="4" y="132" type="curve"/>
      <point x="-9" y="64"/>
      <point x="0" y="47"/>
      <point x="14" y="29" type="curve" smooth="yes"/>
      <point x="41" y="-2"/>
      <point x="90" y="-20"/>
      <point x="160" y="-20" type="curve" smooth="yes"/>
      <point x="166" y="-20" type="line" smooth="yes"/>
      <point x="301" y="-20"/>
      <point x="404" y="59"/>
      <point x="433" y="175" type="curve"/>
      <point x="441" y="210"/>
      <point x="439" y="280"/>
      <point x="364" y="315" type="curve"/>
      <point x="334" y="194"/>
      <point x="292" y="130"/>
    </contour>
    <contour>
      <point x="374" y="711" type="move" name="top"/>
    </contour>
  </outline>
</glyph>
<glyph name="L" format="1">
  <advance width="550"/>
  <unicode hex="004C"/>
  <outline>
    <contour>
      <point x="175" y="73" type="curve"/>
      <point x="317" y="640" type="line" smooth="yes"/>
      <point x="323" y="665"/>
      <point x="322" y="677"/>
      <point x="314" y="688" type="curve" smooth="yes"/>
      <point x="302" y="704"/>
      <point x="279" y="710"/>
      <point x="229" y="710" type="curve" smooth="yes"/>
      <point x="204" y="710"/>
      <point x="184" y="708"/>
      <point x="160" y="703" type="curve"/>
      <point x="160" y="668"/>
      <point x="155" y="631"/>
      <point x="145" y="590" type="curve" smooth="yes"/>
      <point x="31" y="137" type="line" smooth="yes"/>
      <point x="21" y="96"/>
      <point x="73" y="73"/>
    </contour>
    <contour>
      <point x="35" y="150" type="line"/>
      <point x="30" y="132" type="line" smooth="yes"/>
      <point x="15" y="73"/>
      <point x="57" y="0"/>
      <point x="105" y="0" type="curve" smooth="yes"/>
      <point x="446" y="0" type="line"/>
      <point x="454" y="15"/>
      <point x="461" y="35"/>
      <point x="467" y="58" type="curve" smooth="yes"/>
      <point x="483" y="124"/>
      <point x="472" y="150"/>
      <point x="428" y="150" type="curve" smooth="yes"/>
    </contour>
    <contour>
      <point x="476" y="551" type="move" name="caronslovak"/>
    </contour>
    <contour>
      <point x="256" y="711" type="move" name="top"/>
    </contour>
    <contour>
      <point x="468" y="400" type="move" name="dot"/>
    </contour>
    <contour>
      <point x="218" y="-1" type="move" name="bottom"/>
    </contour>
  </outline>
</glyph>
<glyph name="M" format="1">
  <advance width="800"/>
  <unicode hex="004D"/>
  <outline>
    <contour>
      <point x="140" y="-7" type="curve"/>
      <point x="148" y="49"/>
      <point x="160" y="103"/>
      <point x="174" y="158" type="curve" smooth="yes"/>
      <point x="213" y="315"/>
      <point x="272" y="469"/>
      <point x="343" y="629" type="curve" smooth="yes"/>
      <point x="355" y="654"/>
      <point x="350" y="677"/>
      <point x="342" y="688" type="curve" smooth="yes"/>
      <point x="330" y="704"/>
      <point x="307" y="710"/>
      <point x="257" y="710" type="curve" smooth="yes"/>
      <point x="232" y="710"/>
      <point x="212" y="708"/>
      <point x="188" y="703" type="curve"/>
      <point x="188" y="667"/>
      <point x="182" y="633"/>
      <point x="167" y="593" type="curve" smooth="yes"/>
      <point x="103" y="414"/>
      <point x="38" y="234"/>
      <point x="-7" y="57" type="curve" smooth="yes"/>
      <point x="-11" y="41"/>
      <point x="-9" y="28"/>
      <point x="-1" y="18" type="curve" smooth="yes"/>
      <point x="13" y="-1"/>
      <point x="49" y="-10"/>
      <point x="102" y="-10" type="curve" smooth="yes"/>
      <point x="119" y="-10"/>
      <point x="132" y="-9"/>
    </contour>
    <contour>
      <point x="702" y="-3" type="curve"/>
      <point x="702" y="33"/>
      <point x="708" y="70"/>
      <point x="718" y="110" type="curve" smooth="yes"/>
      <point x="762" y="287"/>
      <point x="787" y="468"/>
      <point x="805" y="643" type="curve"/>
      <point x="806" y="657"/>
      <point x="804" y="668"/>
      <point x="797" y="678" type="curve" smooth="yes"/>
      <point x="781" y="699"/>
      <point x="732" y="710"/>
      <point x="665" y="710" type="curve" smooth="yes"/>
      <point x="662" y="710" type="line"/>
      <point x="660" y="679"/>
      <point x="655" y="647"/>
      <point x="652" y="614" type="curve"/>
      <point x="641" y="482"/>
      <point x="617" y="330"/>
      <point x="581" y="186" type="curve" smooth="yes"/>
      <point x="570" y="143"/>
      <point x="558" y="101"/>
      <point x="545" y="60" type="curve" smooth="yes"/>
      <point x="538" y="35"/>
      <point x="540" y="23"/>
      <point x="548" y="12" type="curve" smooth="yes"/>
      <point x="560" y="-4"/>
      <point x="583" y="-10"/>
      <point x="633" y="-10" type="curve" smooth="yes"/>
      <point x="658" y="-10"/>
      <point x="678" y="-8"/>
    </contour>
    <contour>
      <point x="412" y="659" type="curve" smooth="yes"/>
      <point x="414" y="688"/>
      <point x="371" y="710"/>
      <point x="268" y="710" type="curve"/>
      <point x="257" y="710" type="line"/>
      <point x="279" y="675"/>
      <point x="294" y="624"/>
      <point x="292" y="598" type="curve" smooth="yes"/>
      <point x="254" y="306"/>
      <point x="300" y="155"/>
      <point x="313" y="138" type="curve"/>
      <point x="328" y="117"/>
      <point x="337" y="112"/>
      <point x="363" y="112" type="curve" smooth="yes"/>
      <point x="397" y="112"/>
      <point x="424" y="134"/>
      <point x="438" y="192" type="curve"/>
      <point x="400" y="339"/>
      <point x="398" y="441"/>
    </contour>
    <contour>
      <point x="597" y="703" type="curve"/>
      <point x="502" y="473"/>
      <point x="422" y="349"/>
      <point x="329" y="226" type="curve"/>
      <point x="301" y="191"/>
      <point x="321" y="112"/>
      <point x="363" y="112" type="curve"/>
      <point x="404" y="112" type="line"/>
      <point x="527" y="263"/>
      <point x="672" y="535"/>
      <point x="702" y="657" type="curve" smooth="yes"/>
      <point x="711" y="690"/>
      <point x="698" y="710"/>
      <point x="662" y="710" type="curve" smooth="yes"/>
      <point x="641" y="710"/>
      <point x="619" y="708"/>
    </contour>
  </outline>
</glyph>
<glyph name="N" format="1">
  <advance width="700"/>
  <unicode hex="004E"/>
  <outline>
    <contour>
      <point x="158" y="-4" type="curve"/>
      <point x="184" y="101" type="line"/>
      <point x="270" y="443"/>
      <point x="297" y="655"/>
      <point x="268" y="693" type="curve" smooth="yes"/>
      <point x="262" y="701"/>
      <point x="250" y="710"/>
      <point x="242" y="710" type="curve"/>
      <point x="217" y="710"/>
      <point x="199" y="708"/>
      <point x="171" y="701" type="curve"/>
      <point x="171" y="665"/>
      <point x="167" y="630"/>
      <point x="157" y="590" type="curve" smooth="yes"/>
      <point x="23" y="57" type="line"/>
      <point x="11" y="8"/>
      <point x="67" y="-9"/>
      <point x="110" y="-9" type="curve"/>
      <point x="130" y="-9"/>
      <point x="142" y="-9"/>
    </contour>
    <contour>
      <point x="566" y="-10" type="line"/>
      <point x="732" y="651" type="line"/>
      <point x="742" y="691"/>
      <point x="691" y="710"/>
      <point x="622" y="710" type="curve"/>
      <point x="597" y="710" type="line"/>
      <point x="537" y="470" type="line"/>
      <point x="475" y="225"/>
      <point x="456" y="54"/>
      <point x="482" y="20" type="curve" smooth="yes"/>
      <point x="498" y="-1"/>
      <point x="523" y="-10"/>
      <point x="541" y="-10" type="curve"/>
    </contour>
    <contour>
      <point x="242" y="710" type="line"/>
      <point x="262" y="683"/>
      <point x="258" y="627"/>
      <point x="255" y="579" type="curve"/>
      <point x="236" y="323"/>
      <point x="355" y="121"/>
      <point x="419" y="35" type="curve"/>
      <point x="441" y="5"/>
      <point x="489" y="-10"/>
      <point x="541" y="-10" type="curve" smooth="yes"/>
      <point x="545" y="-10"/>
      <point x="546" y="-10"/>
      <point x="550" y="-10" type="curve"/>
      <point x="555" y="-10"/>
      <point x="566" y="12"/>
      <point x="567" y="87" type="curve"/>
      <point x="427" y="254"/>
      <point x="366" y="442"/>
      <point x="356" y="667" type="curve"/>
      <point x="355" y="695"/>
      <point x="300" y="710"/>
      <point x="244" y="710" type="curve"/>
    </contour>
    <contour>
      <point x="460" y="711" type="move" name="top"/>
    </contour>
    <contour>
      <point x="282" y="-1" type="move" name="bottom"/>
    </contour>
  </outline>
</glyph>
<glyph name="O" format="1">
  <advance width="650"/>
  <unicode hex="004F"/>
  <outline>
    <contour>
      <point x="424" y="720" type="curve" smooth="yes"/>
      <point x="253" y="720"/>
      <point x="143" y="618"/>
      <point x="82" y="374" type="curve" smooth="yes"/>
      <point x="78" y="358" type="line" smooth="yes"/>
      <point x="21" y="132"/>
      <point x="87" y="-20"/>
      <point x="268" y="-20" type="curve" smooth="yes"/>
      <point x="313" y="-20"/>
      <point x="345" y="28"/>
      <point x="363" y="98" type="curve"/>
      <point x="211" y="98"/>
      <point x="184" y="183"/>
      <point x="221" y="330" type="curve" smooth="yes"/>
      <point x="226" y="347" type="line" smooth="yes"/>
      <point x="273" y="537"/>
      <point x="331" y="571"/>
      <point x="400" y="571" type="curve" smooth="yes"/>
      <point x="457" y="571"/>
      <point x="485" y="552"/>
      <point x="517" y="527" type="curve"/>
      <point x="581" y="575"/>
      <point x="509" y="720"/>
    </contour>
    <contour>
      <point x="268" y="-20" type="curve" smooth="yes"/>
      <point x="435" y="-20"/>
      <point x="553" y="82"/>
      <point x="614" y="326" type="curve" smooth="yes"/>
      <point x="618" y="342" type="line" smooth="yes"/>
      <point x="675" y="568"/>
      <point x="605" y="720"/>
      <point x="424" y="720" type="curve" smooth="yes"/>
      <point x="379" y="720"/>
      <point x="347" y="672"/>
      <point x="330" y="602" type="curve"/>
      <point x="482" y="602"/>
      <point x="508" y="502"/>
      <point x="474" y="365" type="curve" smooth="yes"/>
      <point x="470" y="349" type="line" smooth="yes"/>
      <point x="425" y="168"/>
      <point x="361" y="129"/>
      <point x="292" y="129" type="curve" smooth="yes"/>
      <point x="235" y="129"/>
      <point x="205" y="144"/>
      <point x="176" y="174" type="curve"/>
      <point x="112" y="126"/>
      <point x="183" y="-20"/>
    </contour>
    <contour>
      <point x="437" y="711" type="move" name="top"/>
    </contour>
    <contour>
      <point x="362" y="-1" type="move" name="ogonek"/>
    </contour>
    <contour>
      <point x="259" y="-1" type="move" name="bottom"/>
    </contour>
  </outline>
</glyph>
<glyph name="Q" format="1">
  <advance width="650"/>
  <unicode hex="0051"/>
  <outline>
    <contour>
      <point x="424" y="720" type="curve" smooth="yes"/>
      <point x="253" y="720"/>
      <point x="143" y="618"/>
      <point x="82" y="374" type="curve" smooth="yes"/>
      <point x="78" y="358" type="line" smooth="yes"/>
      <point x="21" y="132"/>
      <point x="87" y="-20"/>
      <point x="268" y="-20" type="curve" smooth="yes"/>
      <point x="313" y="-20"/>
      <point x="345" y="28"/>
      <point x="363" y="98" type="curve"/>
      <point x="211" y="98"/>
      <point x="184" y="183"/>
      <point x="221" y="330" type="curve" smooth="yes"/>
      <point x="226" y="347" type="line" smooth="yes"/>
      <point x="273" y="537"/>
      <point x="331" y="571"/>
      <point x="400" y="571" type="curve" smooth="yes"/>
      <point x="457" y="571"/>
      <point x="485" y="552"/>
      <point x="517" y="527" type="curve"/>
      <point x="581" y="575"/>
      <point x="509" y="720"/>
    </contour>
    <contour>
      <point x="268" y="-20" type="curve" smooth="yes"/>
      <point x="435" y="-20"/>
      <point x="553" y="82"/>
      <point x="614" y="326" type="curve" smooth="yes"/>
      <point x="618" y="342" type="line" smooth="yes"/>
      <point x="675" y="568"/>
      <point x="605" y="720"/>
      <point x="424" y="720" type="curve" smooth="yes"/>
      <point x="379" y="720"/>
      <point x="347" y="672"/>
      <point x="330" y="602" type="curve"/>
      <point x="482" y="602"/>
      <point x="508" y="502"/>
      <point x="474" y="365" type="curve" smooth="yes"/>
      <point x="470" y="349" type="line" smooth="yes"/>
      <point x="425" y="168"/>
      <point x="361" y="129"/>
      <point x="292" y="129" type="curve" smooth="yes"/>
      <point x="235" y="129"/>
      <point x="205" y="144"/>
      <point x="176" y="174" type="curve"/>
      <point x="112" y="126"/>
      <point x="183" y="-20"/>
    </contour>
    <contour>
      <point x="430" y="147" type="line"/>
      <point x="323" y="97"/>
      <point x="300" y="66"/>
      <point x="308" y="35" type="curve" smooth="yes"/>
      <point x="339" y="-77" type="line" smooth="yes"/>
      <point x="358" y="-147"/>
      <point x="388" y="-186"/>
      <point x="441" y="-186" type="curve" smooth="yes"/>
      <point x="446" y="-186" type="line" smooth="yes"/>
      <point x="495" y="-186"/>
      <point x="535" y="-150"/>
      <point x="555" y="-72" type="curve" smooth="yes"/>
      <point x="563" y="-40"/>
      <point x="565" y="-20"/>
      <point x="565" y="1" type="curve"/>
      <point x="561" y="1" type="line"/>
      <point x="547" y="-6"/>
      <point x="539" y="-8"/>
      <point x="522" y="-8" type="curve" smooth="yes"/>
      <point x="487" y="-8"/>
      <point x="476" y="3"/>
      <point x="467" y="31" type="curve" smooth="yes"/>
    </contour>
  </outline>
</glyph>
<glyph name="U" format="1">
  <advance width="650"/>
  <unicode hex="0055"/>
  <outline>
    <contour>
      <point x="160" y="702" type="curve"/>
      <point x="160" y="667"/>
      <point x="155" y="630"/>
      <point x="144" y="589" type="curve" smooth="yes"/>
      <point x="32" y="138" type="line"/>
      <point x="21" y="96"/>
      <point x="67" y="83"/>
      <point x="144" y="83" type="curve"/>
      <point x="229" y="295"/>
      <point x="279" y="412"/>
      <point x="313" y="549" type="curve"/>
      <point x="316" y="559" type="line"/>
      <point x="345" y="675"/>
      <point x="307" y="709"/>
      <point x="225" y="709" type="curve"/>
      <point x="201" y="709"/>
      <point x="183" y="707"/>
    </contour>
    <contour>
      <point x="135" y="-10" type="curve" smooth="yes"/>
      <point x="200" y="-10"/>
      <point x="320" y="38"/>
      <point x="395" y="130" type="curve" smooth="yes"/>
      <point x="447" y="197"/>
      <point x="468" y="212"/>
      <point x="434" y="291" type="curve"/>
      <point x="359" y="192"/>
      <point x="274" y="160"/>
      <point x="203" y="160" type="curve" smooth="yes"/>
      <point x="172" y="160"/>
      <point x="156" y="172"/>
      <point x="154" y="202" type="curve"/>
      <point x="124" y="202"/>
      <point x="40" y="173"/>
      <point x="32" y="138" type="curve" smooth="yes"/>
      <point x="15" y="72"/>
      <point x="71" y="-10"/>
    </contour>
    <contour>
      <point x="523" y="-7" type="curve"/>
      <point x="525" y="28"/>
      <point x="533" y="64"/>
      <point x="542" y="101" type="curve" smooth="yes"/>
      <point x="680" y="650" type="line" smooth="yes"/>
      <point x="690" y="691"/>
      <point x="656" y="709"/>
      <point x="579" y="709" type="curve" smooth="yes"/>
      <point x="563" y="709"/>
      <point x="548" y="707"/>
      <point x="533" y="703" type="curve"/>
      <point x="379" y="87" type="line" smooth="yes"/>
      <point x="371" y="55"/>
      <point x="373" y="37"/>
      <point x="388" y="18" type="curve" smooth="yes"/>
      <point x="401" y="0"/>
      <point x="438" y="-10"/>
      <point x="478" y="-10" type="curve" smooth="yes"/>
      <point x="496" y="-10"/>
      <point x="508" y="-9"/>
    </contour>
    <contour>
      <point x="432" y="711" type="move" name="top"/>
    </contour>
    <contour>
      <point x="523" y="-9" type="move" name="ogonek"/>
    </contour>
    <contour>
      <point x="432" y="711" type="move" name="ring"/>
    </contour>
    <contour>
      <point x="254" y="-1" type="move" name="bottom"/>
    </contour>
  </outline>
</glyph>
<glyph name="V" format="1">
  <advance width="650"/>
  <unicode hex="0056"/>
  <outline>
    <contour>
      <point x="185" y="710" type="curve"/>
      <point x="161" y="710" type="line"/>
      <point x="86" y="366"/>
      <point x="97" y="154"/>
      <point x="184" y="37" type="curve"/>
      <point x="216" y="-5"/>
      <point x="248" y="-10"/>
      <point x="277" y="-10" type="curve"/>
      <point x="319" y="-10"/>
      <point x="346" y="14"/>
      <point x="379" y="77" type="curve"/>
      <point x="376" y="77"/>
      <point x="374" y="77"/>
      <point x="372" y="77" type="curve" smooth="yes"/>
      <point x="364" y="77"/>
      <point x="359" y="79"/>
      <point x="348" y="88" type="curve"/>
      <point x="252" y="170"/>
      <point x="227" y="279"/>
      <point x="304" y="660" type="curve"/>
      <point x="310" y="688"/>
      <point x="280" y="710"/>
    </contour>
    <contour>
      <point x="578" y="710" type="curve"/>
      <point x="554" y="710" type="line"/>
      <point x="436" y="333"/>
      <point x="372" y="205"/>
      <point x="240" y="114" type="curve"/>
      <point x="207" y="92"/>
      <point x="217" y="-10"/>
      <point x="277" y="-10" type="curve"/>
      <point x="317" y="-10" type="line"/>
      <point x="469" y="95"/>
      <point x="599" y="325"/>
      <point x="693" y="636" type="curve"/>
      <point x="706" y="679"/>
      <point x="650" y="710"/>
    </contour>
  </outline>
</glyph>
<glyph name="W" format="1">
  <advance width="900"/>
  <unicode hex="0057"/>
  <outline>
    <contour>
      <point x="149" y="710" type="curve"/>
      <point x="64" y="383"/>
      <point x="35" y="156"/>
      <point x="129" y="31" type="curve"/>
      <point x="149" y="4"/>
      <point x="172" y="-10"/>
      <point x="200" y="-10" type="curve"/>
      <point x="228" y="-10" type="line" smooth="yes"/>
      <point x="253" y="-10"/>
      <point x="266" y="20"/>
      <point x="279" y="70" type="curve"/>
      <point x="194" y="128"/>
      <point x="205" y="305"/>
      <point x="293" y="660" type="curve"/>
      <point x="295" y="669"/>
      <point x="293" y="672"/>
      <point x="289" y="678" type="curve" smooth="yes"/>
      <point x="272" y="700"/>
      <point x="221" y="710"/>
      <point x="173" y="710" type="curve"/>
      <point x="165" y="710"/>
      <point x="157" y="710"/>
    </contour>
    <contour>
      <point x="814" y="710" type="curve"/>
      <point x="724" y="363"/>
      <point x="649" y="192"/>
      <point x="532" y="114" type="curve"/>
      <point x="486" y="84"/>
      <point x="510" y="-10"/>
      <point x="570" y="-10" type="curve"/>
      <point x="610" y="-10" type="line"/>
      <point x="742" y="81"/>
      <point x="889" y="355"/>
      <point x="956" y="636" type="curve" smooth="yes"/>
      <point x="959" y="646"/>
      <point x="961" y="654"/>
      <point x="956" y="660" type="curve" smooth="yes"/>
      <point x="934" y="690"/>
      <point x="886" y="710"/>
      <point x="838" y="710" type="curve"/>
      <point x="830" y="710"/>
      <point x="822" y="710"/>
    </contour>
    <contour>
      <point x="504" y="625" type="curve"/>
      <point x="475" y="625" type="line"/>
      <point x="389" y="375"/>
      <point x="296" y="182"/>
      <point x="179" y="104" type="curve"/>
      <point x="142" y="79"/>
      <point x="159" y="-10"/>
      <point x="200" y="-10" type="curve"/>
      <point x="240" y="-10" type="line"/>
      <point x="362" y="74"/>
      <point x="477" y="275"/>
      <point x="565" y="528" type="curve" smooth="yes"/>
      <point x="581" y="574"/>
      <point x="552" y="625"/>
    </contour>
    <contour>
      <point x="512" y="625" type="curve"/>
      <point x="495" y="625" type="line"/>
      <point x="449" y="343"/>
      <point x="423" y="132"/>
      <point x="490" y="43" type="curve" smooth="yes"/>
      <point x="518" y="6"/>
      <point x="540" y="-10"/>
      <point x="570" y="-10" type="curve"/>
      <point x="596" y="-10" type="line"/>
      <point x="611" y="-10"/>
      <point x="623" y="29"/>
      <point x="634" y="70" type="curve"/>
      <point x="537" y="136"/>
      <point x="551" y="271"/>
      <point x="600" y="575" type="curve" smooth="yes"/>
      <point x="604" y="599"/>
      <point x="559" y="625"/>
    </contour>
    <contour>
      <point x="561" y="711" type="move" name="top"/>
    </contour>
  </outline>
</glyph>
<glyph name="X" format="1">
  <advance width="650"/>
  <unicode hex="0058"/>
  <outline>
    <contour>
      <point x="479" y="-10" type="curve" smooth="yes"/>
      <point x="509" y="-10"/>
      <point x="530" y="-7"/>
      <point x="552" y="-1" type="curve"/>
      <point x="499" y="77"/>
      <point x="443" y="203"/>
      <point x="397" y="332" type="curve" smooth="yes"/>
      <point x="391" y="349"/>
      <point x="386" y="366"/>
      <point x="380" y="383" type="curve" smooth="yes"/>
      <point x="347" y="483"/>
      <point x="321" y="582"/>
      <point x="309" y="658" type="curve" smooth="yes"/>
      <point x="302" y="699"/>
      <point x="264" y="710"/>
      <point x="150" y="710" type="curve" smooth="yes"/>
      <point x="126" y="710" type="line"/>
      <point x="152" y="596"/>
      <point x="201" y="439"/>
      <point x="253" y="297" type="curve" smooth="yes"/>
      <point x="260" y="282"/>
      <point x="265" y="266"/>
      <point x="271" y="251" type="curve" smooth="yes"/>
      <point x="303" y="169"/>
      <point x="336" y="95"/>
      <point x="366" y="41" type="curve" smooth="yes"/>
      <point x="388" y="3"/>
      <point x="416" y="-10"/>
    </contour>
    <contour>
      <point x="583" y="710" type="curve" smooth="yes"/>
      <point x="559" y="710" type="line"/>
      <point x="486" y="552"/>
      <point x="420" y="454"/>
      <point x="346" y="386" type="curve"/>
      <point x="296" y="340"/>
      <point x="330" y="275"/>
      <point x="400" y="275" type="curve"/>
      <point x="554" y="393"/>
      <point x="630" y="491"/>
      <point x="709" y="635" type="curve"/>
      <point x="718" y="651"/>
      <point x="720" y="668"/>
      <point x="711" y="676" type="curve" smooth="yes"/>
      <point x="684" y="702"/>
      <point x="629" y="710"/>
    </contour>
    <contour>
      <point x="94" y="-10" type="curve"/>
      <point x="118" y="-10" type="line"/>
      <point x="170" y="93"/>
      <point x="229" y="166"/>
      <point x="302" y="227" type="curve"/>
      <point x="341" y="260"/>
      <point x="327" y="352"/>
      <point x="270" y="362" type="curve"/>
      <point x="124" y="251"/>
      <point x="31" y="161"/>
      <point x="-36" y="70" type="curve" smooth="yes"/>
      <point x="-46" y="55"/>
      <point x="-45" y="38"/>
      <point x="-35" y="28" type="curve" smooth="yes"/>
      <point x="-6" y="1"/>
      <point x="34" y="-10"/>
    </contour>
  </outline>
</glyph>
<glyph name="bracketleft" format="1">
  <advance width="400"/>
  <unicode hex="005B"/>
  <outline>
    <contour>
      <point x="141" y="640" type="curve" smooth="yes"/>
      <point x="-23" y="-14" type="line" smooth="yes"/>
      <point x="-36" y="-68"/>
      <point x="50" y="-78"/>
      <point x="121" y="-78" type="curve"/>
      <point x="314" y="690" type="line" smooth="yes"/>
      <point x="329" y="751"/>
      <point x="309" y="760"/>
      <point x="225" y="760" type="curve" smooth="yes"/>
      <point x="200" y="760"/>
      <point x="181" y="758"/>
      <point x="156" y="753" type="curve"/>
      <point x="156" y="717"/>
      <point x="151" y="680"/>
    </contour>
    <contour>
      <point x="442" y="610" type="line"/>
      <point x="450" y="624"/>
      <point x="457" y="643"/>
      <point x="462" y="664" type="curve" smooth="yes"/>
      <point x="467" y="685"/>
      <point x="473" y="729"/>
      <point x="459" y="748" type="curve" smooth="yes"/>
      <point x="452" y="758"/>
      <point x="445" y="760"/>
      <point x="428" y="760" type="curve" smooth="yes"/>
      <point x="225" y="760" type="line"/>
      <point x="200" y="659"/>
      <point x="242" y="610"/>
      <point x="358" y="610" type="curve"/>
    </contour>
    <contour>
      <point x="251" y="-161" type="line"/>
      <point x="258" y="-146"/>
      <point x="265" y="-126"/>
      <point x="271" y="-103" type="curve" smooth="yes"/>
      <point x="288" y="-37"/>
      <point x="276" y="-11"/>
      <point x="232" y="-11" type="curve" smooth="yes"/>
      <point x="-22" y="-11" type="line"/>
      <point x="-26" y="-29" type="line" smooth="yes"/>
      <point x="-41" y="-88"/>
      <point x="1" y="-161"/>
      <point x="49" y="-161" type="curve" smooth="yes"/>
    </contour>
  </outline>
</glyph>
<glyph name="bracketright" format="1">
  <advance width="400"/>
  <unicode hex="005D"/>
  <outline>
    <contour>
      <point x="274" y="-41" type="curve" smooth="yes"/>
      <point x="437" y="613" type="line" smooth="yes"/>
      <point x="451" y="667"/>
      <point x="364" y="677"/>
      <point x="293" y="677" type="curve"/>
      <point x="101" y="-91" type="line" smooth="yes"/>
      <point x="86" y="-152"/>
      <point x="106" y="-161"/>
      <point x="190" y="-161" type="curve" smooth="yes"/>
      <point x="215" y="-161"/>
      <point x="234" y="-159"/>
      <point x="258" y="-154" type="curve"/>
      <point x="258" y="-118"/>
      <point x="264" y="-81"/>
    </contour>
    <contour>
      <point x="-27" y="-11" type="line"/>
      <point x="-35" y="-25"/>
      <point x="-42" y="-44"/>
      <point x="-47" y="-65" type="curve" smooth="yes"/>
      <point x="-53" y="-86"/>
      <point x="-59" y="-130"/>
      <point x="-44" y="-149" type="curve" smooth="yes"/>
      <point x="-37" y="-159"/>
      <point x="-30" y="-161"/>
      <point x="-13" y="-161" type="curve" smooth="yes"/>
      <point x="190" y="-161" type="line"/>
      <point x="215" y="-60"/>
      <point x="173" y="-11"/>
      <point x="57" y="-11" type="curve"/>
    </contour>
    <contour>
      <point x="164" y="760" type="line"/>
      <point x="156" y="745"/>
      <point x="149" y="725"/>
      <point x="144" y="702" type="curve" smooth="yes"/>
      <point x="127" y="636"/>
      <point x="139" y="610"/>
      <point x="183" y="610" type="curve" smooth="yes"/>
      <point x="437" y="610" type="line"/>
      <point x="441" y="628" type="line" smooth="yes"/>
      <point x="456" y="687"/>
      <point x="414" y="760"/>
      <point x="366" y="760" type="curve" smooth="yes"/>
    </contour>
  </outline>
</glyph>
<glyph name="asciicircum" format="1">
  <advance width="600"/>
  <unicode hex="005E"/>
  <outline>
    <contour>
      <point x="197" y="355" type="line"/>
      <point x="257" y="489"/>
      <point x="341" y="574"/>
      <point x="444" y="653" type="curve"/>
      <point x="464" y="732"/>
      <point x="451" y="760"/>
      <point x="418" y="760" type="curve"/>
      <point x="388" y="760" type="line"/>
      <point x="301" y="706"/>
      <point x="184" y="588"/>
      <point x="110" y="479" type="curve" smooth="yes"/>
      <point x="87" y="445"/>
      <point x="75" y="421"/>
      <point x="72" y="410" type="curve" smooth="yes"/>
      <point x="64" y="377"/>
      <point x="120" y="355"/>
      <point x="177" y="355" type="curve"/>
    </contour>
    <contour>
      <point x="588" y="368" type="curve"/>
      <point x="581" y="522"/>
      <point x="546" y="630"/>
      <point x="486" y="717" type="curve" smooth="yes"/>
      <point x="458" y="757"/>
      <point x="446" y="760"/>
      <point x="422" y="760" type="curve" smooth="yes"/>
      <point x="414" y="760" type="line" smooth="yes"/>
      <point x="396" y="760"/>
      <point x="335" y="699"/>
      <point x="312" y="658" type="curve"/>
      <point x="317" y="658"/>
      <point x="321" y="658"/>
      <point x="326" y="658" type="curve" smooth="yes"/>
      <point x="329" y="658"/>
      <point x="336" y="656"/>
      <point x="340" y="650" type="curve" smooth="yes"/>
      <point x="397" y="583"/>
      <point x="423" y="517"/>
      <point x="432" y="400" type="curve" smooth="yes"/>
      <point x="434" y="378"/>
      <point x="461" y="358"/>
      <point x="521" y="358" type="curve" smooth="yes"/>
      <point x="546" y="358"/>
      <point x="565" y="360"/>
    </contour>
  </outline>
</glyph>
<glyph name="underscore" format="1">
  <advance width="600"/>
  <unicode hex="005F"/>
  <outline>
    <contour>
      <point x="-30" y="-50" type="line"/>
      <point x="-32" y="-56"/>
      <point x="-33" y="-62"/>
      <point x="-35" y="-69" type="curve" smooth="yes"/>
      <point x="-50" y="-128"/>
      <point x="-50" y="-162"/>
      <point x="-37" y="-180" type="curve" smooth="yes"/>
      <point x="-25" y="-195"/>
      <point x="-7" y="-200"/>
      <point x="39" y="-200" type="curve"/>
      <point x="437" y="-200" type="line"/>
      <point x="447" y="-179"/>
      <point x="455" y="-156"/>
      <point x="460" y="-137" type="curve" smooth="yes"/>
      <point x="477" y="-71"/>
      <point x="465" y="-50"/>
      <point x="409" y="-50" type="curve"/>
    </contour>
  </outline>
</glyph>
<glyph name="grave" format="1">
  <advance width="350"/>
  <unicode hex="0060"/>
  <outline>
    <contour>
      <point x="339" y="395" type="curve"/>
      <point x="312" y="475"/>
      <point x="315" y="582"/>
      <point x="348" y="713" type="curve"/>
      <point x="320" y="718"/>
      <point x="304" y="720"/>
      <point x="279" y="720" type="curve" smooth="yes"/>
      <point x="201" y="720"/>
      <point x="151" y="706"/>
      <point x="135" y="642" type="curve" smooth="yes"/>
      <point x="115" y="560"/>
      <point x="135" y="433"/>
      <point x="178" y="375" type="curve" smooth="yes"/>
      <point x="187" y="364"/>
      <point x="199" y="360"/>
      <point x="220" y="360" type="curve" smooth="yes"/>
      <point x="268" y="360"/>
      <point x="302" y="370"/>
    </contour>
  </outline>
</glyph>
<glyph name="c" format="1">
  <advance width="500"/>
  <unicode hex="0063"/>
  <outline>
    <contour>
      <point x="376" y="552" type="curve" smooth="yes"/>
      <point x="232" y="552"/>
      <point x="100" y="468"/>
      <point x="53" y="282" type="curve" smooth="yes"/>
      <point x="49" y="266" type="line" smooth="yes"/>
      <point x="0" y="69"/>
      <point x="98" y="-12"/>
      <point x="237" y="-12" type="curve" smooth="yes"/>
      <point x="271" y="-12"/>
      <point x="283" y="10"/>
      <point x="285" y="51" type="curve"/>
      <point x="194" y="71"/>
      <point x="171" y="152"/>
      <point x="193" y="240" type="curve" smooth="yes"/>
      <point x="196" y="252" type="line" smooth="yes"/>
      <point x="218" y="340"/>
      <point x="270" y="398"/>
      <point x="348" y="398" type="curve" smooth="yes"/>
      <point x="398" y="398"/>
      <point x="433" y="390"/>
      <point x="464" y="363" type="curve"/>
      <point x="468" y="363" type="line"/>
      <point x="486" y="385"/>
      <point x="494" y="402"/>
      <point x="503" y="437" type="curve"/>
      <point x="513" y="477"/>
      <point x="509" y="495"/>
      <point x="497" y="511" type="curve" smooth="yes"/>
      <point x="485" y="528"/>
      <point x="455" y="552"/>
    </contour>
    <contour>
      <point x="237" y="-12" type="curve" smooth="yes"/>
      <point x="312" y="-12"/>
      <point x="351" y="0"/>
      <point x="377" y="21" type="curve" smooth="yes"/>
      <point x="405" y="44"/>
      <point x="417" y="64"/>
      <point x="430" y="116" type="curve"/>
      <point x="435" y="137"/>
      <point x="437" y="161"/>
      <point x="437" y="180" type="curve"/>
      <point x="433" y="180" type="line"/>
      <point x="377" y="145"/>
      <point x="327" y="133"/>
      <point x="269" y="133" type="curve" smooth="yes"/>
      <point x="205" y="133"/>
      <point x="170" y="149"/>
      <point x="120" y="196" type="curve"/>
      <point x="46" y="106"/>
      <point x="97" y="-12"/>
    </contour>
    <contour>
      <point x="361" y="551" type="move" name="top"/>
    </contour>
    <contour>
      <point x="228" y="-1" type="move" name="bottom"/>
    </contour>
  </outline>
</glyph>
<glyph name="g" format="1">
  <advance width="600"/>
  <unicode hex="0067"/>
  <outline>
    <contour>
      <point x="355" y="422" type="curve" smooth="yes"/>
      <point x="475" y="422"/>
      <point x="527" y="409"/>
      <point x="565" y="409" type="curve" smooth="yes"/>
      <point x="601" y="409"/>
      <point x="623" y="443"/>
      <point x="636" y="492" type="curve" smooth="yes"/>
      <point x="641" y="512"/>
      <point x="643" y="532"/>
      <point x="641" y="542" type="curve"/>
      <point x="567" y="548"/>
      <point x="496" y="553"/>
      <point x="392" y="553" type="curve" smooth="yes"/>
      <point x="220" y="553"/>
      <point x="129" y="492"/>
      <point x="98" y="369" type="curve" smooth="yes"/>
      <point x="95" y="357" type="line" smooth="yes"/>
      <point x="65" y="238"/>
      <point x="151" y="148"/>
      <point x="288" y="150" type="curve"/>
      <point x="328" y="150"/>
      <point x="336" y="159"/>
      <point x="349" y="212" type="curve"/>
      <point x="257" y="217"/>
      <point x="207" y="268"/>
      <point x="224" y="336" type="curve" smooth="yes"/>
      <point x="226" y="344" type="line" smooth="yes"/>
      <point x="241" y="403"/>
      <point x="281" y="422"/>
    </contour>
    <contour>
      <point x="294" y="275" type="curve" smooth="yes"/>
      <point x="241" y="275"/>
      <point x="218" y="281"/>
      <point x="186" y="300" type="curve"/>
      <point x="144" y="237"/>
      <point x="187" y="150"/>
      <point x="288" y="150" type="curve" smooth="yes"/>
      <point x="421" y="150"/>
      <point x="493" y="198"/>
      <point x="515" y="286" type="curve" smooth="yes"/>
      <point x="518" y="298" type="line" smooth="yes"/>
      <point x="530" y="346"/>
      <point x="519" y="401"/>
      <point x="466" y="441" type="curve" smooth="yes"/>
      <point x="441" y="460"/>
      <point x="383" y="451"/>
      <point x="370" y="441" type="curve"/>
      <point x="400" y="422"/>
      <point x="409" y="384"/>
      <point x="400" y="348" type="curve" smooth="yes"/>
      <point x="397" y="336" type="line" smooth="yes"/>
      <point x="387" y="295"/>
      <point x="357" y="275"/>
    </contour>
    <contour>
      <point x="86" y="69" type="curve" smooth="yes"/>
      <point x="85" y="65" type="line" smooth="yes"/>
      <point x="67" y="-9"/>
      <point x="115" y="-50"/>
      <point x="203" y="-57" type="curve" smooth="yes"/>
      <point x="317" y="-66" type="line" smooth="yes"/>
      <point x="334" y="-67"/>
      <point x="341" y="-79"/>
      <point x="337" y="-94" type="curve" smooth="yes"/>
      <point x="336" y="-101" type="line" smooth="yes"/>
      <point x="320" y="-164"/>
      <point x="260" y="-203"/>
      <point x="139" y="-203" type="curve"/>
      <point x="132" y="-233"/>
      <point x="130" y="-250"/>
      <point x="160" y="-250" type="curve" smooth="yes"/>
      <point x="339" y="-250"/>
      <point x="448" y="-212"/>
      <point x="484" y="-80" type="curve" smooth="yes"/>
      <point x="487" y="-69" type="line" smooth="yes"/>
      <point x="507" y="4"/>
      <point x="463" y="63"/>
      <point x="394" y="68" type="curve" smooth="yes"/>
      <point x="262" y="78" type="line" smooth="yes"/>
      <point x="242" y="80"/>
      <point x="233" y="94"/>
      <point x="238" y="117" type="curve" smooth="yes"/>
      <point x="239" y="120" type="line" smooth="yes"/>
      <point x="243" y="136"/>
      <point x="252" y="157"/>
      <point x="270" y="175" type="curve"/>
      <point x="270" y="186"/>
      <point x="266" y="190"/>
      <point x="257" y="190" type="curve" smooth="yes"/>
      <point x="192" y="190"/>
      <point x="104" y="139"/>
    </contour>
    <contour>
      <point x="396" y="-113" type="curve"/>
      <point x="327" y="-143"/>
      <point x="278" y="-150"/>
      <point x="172" y="-150" type="curve" smooth="yes"/>
      <point x="159" y="-150" type="line" smooth="yes"/>
      <point x="101" y="-150"/>
      <point x="84" y="-135"/>
      <point x="94" y="-95" type="curve" smooth="yes"/>
      <point x="96" y="-88" type="line" smooth="yes"/>
      <point x="105" y="-52"/>
      <point x="125" y="-25"/>
      <point x="163" y="-2" type="curve"/>
      <point x="167" y="13"/>
      <point x="140" y="23"/>
      <point x="107" y="23" type="curve" smooth="yes"/>
      <point x="23" y="23"/>
      <point x="-38" y="-17"/>
      <point x="-56" y="-91" type="curve" smooth="yes"/>
      <point x="-58" y="-100" type="line" smooth="yes"/>
      <point x="-80" y="-189"/>
      <point x="-11" y="-250"/>
      <point x="151" y="-250" type="curve" smooth="yes"/>
      <point x="160" y="-250" type="line" smooth="yes"/>
      <point x="306" y="-250"/>
      <point x="394" y="-178"/>
    </contour>
  </outline>
</glyph>
<glyph name="i" format="1">
  <advance width="350"/>
  <unicode hex="0069"/>
  <outline>
    <contour>
      <point x="111" y="546" type="curve"/>
      <point x="104" y="531"/>
      <point x="96" y="511"/>
      <point x="91" y="488" type="curve" smooth="yes"/>
      <point x="75" y="425"/>
      <point x="89" y="401"/>
      <point x="112" y="401" type="curve" smooth="yes"/>
      <point x="135" y="401"/>
      <point x="156" y="413"/>
      <point x="210" y="413" type="curve"/>
      <point x="228" y="485"/>
      <point x="250" y="550"/>
      <point x="201" y="550" type="curve" smooth="yes"/>
      <point x="171" y="550"/>
      <point x="141" y="550"/>
    </contour>
    <contour>
      <point x="220" y="-5" type="curve"/>
      <point x="222" y="28"/>
      <point x="227" y="62"/>
      <point x="236" y="97" type="curve" smooth="yes"/>
      <point x="337" y="495" type="line" smooth="yes"/>
      <point x="348" y="538"/>
      <point x="306" y="550"/>
      <point x="211" y="550" type="curve" smooth="yes"/>
      <point x="201" y="550" type="line"/>
      <point x="76" y="56" type="line" smooth="yes"/>
      <point x="64" y="11"/>
      <point x="93" y="-6"/>
      <point x="196" y="-6" type="curve" smooth="yes"/>
      <point x="205" y="-6"/>
      <point x="212" y="-6"/>
    </contour>
    <contour>
      <point x="383" y="625" type="curve"/>
      <point x="404" y="708" type="line" smooth="yes"/>
      <point x="418" y="762"/>
      <point x="375" y="770"/>
      <point x="318" y="770" type="curve" smooth="yes"/>
      <point x="295" y="770"/>
      <point x="265" y="768"/>
      <point x="239" y="764" type="curve"/>
      <point x="218" y="681" type="line" smooth="yes"/>
      <point x="204" y="627"/>
      <point x="247" y="619"/>
      <point x="304" y="619" type="curve" smooth="yes"/>
      <point x="327" y="619"/>
      <point x="357" y="621"/>
    </contour>
    <contour>
      <point x="390" y="-1" type="move" name="ogonek"/>
    </contour>
    <contour>
      <point x="240" y="-1" type="move" name="bottom"/>
    </contour>
  </outline>
</glyph>
<glyph name="j" format="1">
  <advance width="350"/>
  <unicode hex="006A"/>
  <outline>
    <contour>
      <point x="121" y="544" type="curve"/>
      <point x="113" y="529"/>
      <point x="106" y="509"/>
      <point x="100" y="486" type="curve" smooth="yes"/>
      <point x="84" y="423"/>
      <point x="98" y="399"/>
      <point x="121" y="399" type="curve" smooth="yes"/>
      <point x="146" y="399"/>
      <point x="155" y="413"/>
      <point x="225" y="413" type="curve"/>
      <point x="247" y="503"/>
      <point x="249" y="550"/>
      <point x="216" y="550" type="curve" smooth="yes"/>
      <point x="186" y="550"/>
      <point x="150" y="548"/>
    </contour>
    <contour>
      <point x="213" y="-52" type="curve" smooth="yes"/>
      <point x="348" y="479" type="line" smooth="yes"/>
      <point x="353" y="498"/>
      <point x="352" y="505"/>
      <point x="342" y="518" type="curve" smooth="yes"/>
      <point x="327" y="539"/>
      <point x="279" y="550"/>
      <point x="226" y="550" type="curve" smooth="yes"/>
      <point x="216" y="550" type="line"/>
      <point x="70" y="-25" type="line" smooth="yes"/>
      <point x="50" y="-105"/>
      <point x="33" y="-139"/>
      <point x="0" y="-180" type="curve"/>
      <point x="49" y="-201"/>
      <point x="195" y="-125"/>
    </contour>
    <contour>
      <point x="15" y="-105" type="curve" smooth="yes"/>
      <point x="-16" y="-105"/>
      <point x="-35" y="-101"/>
      <point x="-62" y="-88" type="curve"/>
      <point x="-66" y="-88" type="line"/>
      <point x="-72" y="-99"/>
      <point x="-76" y="-109"/>
      <point x="-79" y="-121" type="curve" smooth="yes"/>
      <point x="-89" y="-163"/>
      <point x="-88" y="-206"/>
      <point x="-73" y="-227" type="curve" smooth="yes"/>
      <point x="-63" y="-240"/>
      <point x="-47" y="-250"/>
      <point x="-7" y="-250" type="curve" smooth="yes"/>
      <point x="108" y="-250"/>
      <point x="177" y="-183"/>
      <point x="214" y="-52" type="curve" smooth="yes"/>
      <point x="227" y="2"/>
      <point x="205" y="2"/>
      <point x="183" y="2" type="curve"/>
      <point x="141" y="-82"/>
      <point x="73" y="-105"/>
    </contour>
    <contour>
      <point x="395" y="625" type="curve"/>
      <point x="416" y="708" type="line" smooth="yes"/>
      <point x="430" y="762"/>
      <point x="387" y="770"/>
      <point x="330" y="770" type="curve" smooth="yes"/>
      <point x="307" y="770"/>
      <point x="277" y="768"/>
      <point x="251" y="764" type="curve"/>
      <point x="230" y="681" type="line" smooth="yes"/>
      <point x="216" y="627"/>
      <point x="259" y="619"/>
      <point x="316" y="619" type="curve" smooth="yes"/>
      <point x="339" y="619"/>
      <point x="369" y="621"/>
    </contour>
  </outline>
</glyph>
<glyph name="m" format="1">
  <advance width="850"/>
  <unicode hex="006D"/>
  <outline>
    <contour>
      <point x="172" y="0" type="curve"/>
      <point x="281" y="429" type="line" smooth="yes"/>
      <point x="294" y="481"/>
      <point x="291" y="497"/>
      <point x="276" y="517" type="curve" smooth="yes"/>
      <point x="260" y="539"/>
      <point x="211" y="546"/>
      <point x="179" y="546" type="curve" smooth="yes"/>
      <point x="165" y="546"/>
      <point x="151" y="545"/>
      <point x="136" y="542" type="curve"/>
      <point x="136" y="506"/>
      <point x="132" y="475"/>
      <point x="122" y="436" type="curve" smooth="yes"/>
      <point x="26" y="56" type="line" smooth="yes"/>
      <point x="12" y="2"/>
      <point x="55" y="-6"/>
      <point x="112" y="-6" type="curve" smooth="yes"/>
      <point x="135" y="-6"/>
      <point x="156" y="-4"/>
    </contour>
    <contour>
      <point x="472" y="552" type="curve" smooth="yes"/>
      <point x="369" y="552"/>
      <point x="285" y="454"/>
      <point x="230" y="338" type="curve" smooth="yes"/>
      <point x="190" y="253"/>
      <point x="170" y="161"/>
      <point x="186" y="106" type="curve"/>
      <point x="274" y="341"/>
      <point x="331" y="390"/>
      <point x="376" y="390" type="curve" smooth="yes"/>
      <point x="410" y="390"/>
      <point x="429" y="368"/>
      <point x="435" y="323" type="curve"/>
      <point x="493" y="323"/>
      <point x="542" y="352"/>
      <point x="549" y="382" type="curve" smooth="yes"/>
      <point x="568" y="453"/>
      <point x="536" y="552"/>
    </contour>
    <contour>
      <point x="452" y="0" type="curve"/>
      <point x="549" y="382" type="line"/>
      <point x="557" y="410"/>
      <point x="533" y="432"/>
      <point x="436" y="429" type="curve"/>
      <point x="386" y="322"/>
      <point x="344" y="224"/>
      <point x="321" y="137" type="curve" smooth="yes"/>
      <point x="319" y="130" type="line" smooth="yes"/>
      <point x="289" y="23"/>
      <point x="322" y="-6"/>
      <point x="407" y="-6" type="curve" smooth="yes"/>
      <point x="424" y="-6"/>
      <point x="436" y="-5"/>
    </contour>
    <contour>
      <point x="752" y="552" type="curve" smooth="yes"/>
      <point x="649" y="552"/>
      <point x="564" y="457"/>
      <point x="509" y="341" type="curve" smooth="yes"/>
      <point x="469" y="256"/>
      <point x="447" y="161"/>
      <point x="463" y="106" type="curve"/>
      <point x="551" y="341"/>
      <point x="611" y="390"/>
      <point x="658" y="390" type="curve" smooth="yes"/>
      <point x="690" y="390"/>
      <point x="709" y="368"/>
      <point x="715" y="323" type="curve"/>
      <point x="773" y="323"/>
      <point x="822" y="352"/>
      <point x="828" y="382" type="curve" smooth="yes"/>
      <point x="847" y="456"/>
      <point x="816" y="552"/>
    </contour>
    <contour>
      <point x="753" y="0" type="curve"/>
      <point x="752" y="59"/>
      <point x="756" y="95"/>
      <point x="772" y="159" type="curve" smooth="yes"/>
      <point x="828" y="382" type="line"/>
      <point x="837" y="412"/>
      <point x="813" y="432"/>
      <point x="716" y="429" type="curve"/>
      <point x="666" y="322"/>
      <point x="621" y="219"/>
      <point x="600" y="134" type="curve" smooth="yes"/>
      <point x="598" y="129" type="line" smooth="yes"/>
      <point x="571" y="22"/>
      <point x="608" y="-6"/>
      <point x="693" y="-6" type="curve" smooth="yes"/>
      <point x="714" y="-6"/>
      <point x="732" y="-4"/>
    </contour>
  </outline>
</glyph>
<glyph name="r" format="1">
  <advance width="450"/>
  <unicode hex="0072"/>
  <outline>
    <contour>
      <point x="176" y="0" type="curve"/>
      <point x="288" y="444" type="line" smooth="yes"/>
      <point x="298" y="481"/>
      <point x="295" y="497"/>
      <point x="284" y="511" type="curve" smooth="yes"/>
      <point x="266" y="535"/>
      <point x="231" y="546"/>
      <point x="183" y="546" type="curve" smooth="yes"/>
      <point x="169" y="546"/>
      <point x="155" y="545"/>
      <point x="140" y="542" type="curve"/>
      <point x="140" y="506"/>
      <point x="136" y="475"/>
      <point x="126" y="436" type="curve" smooth="yes"/>
      <point x="30" y="56" type="line" smooth="yes"/>
      <point x="16" y="2"/>
      <point x="59" y="-6"/>
      <point x="116" y="-6" type="curve" smooth="yes"/>
      <point x="139" y="-6"/>
      <point x="160" y="-4"/>
    </contour>
    <contour>
      <point x="210" y="152" type="curve"/>
      <point x="290" y="328"/>
      <point x="339" y="381"/>
      <point x="401" y="381" type="curve" smooth="yes"/>
      <point x="421" y="381"/>
      <point x="432" y="377"/>
      <point x="448" y="364" type="curve"/>
      <point x="452" y="364" type="line"/>
      <point x="468" y="391"/>
      <point x="476" y="410"/>
      <point x="486" y="447" type="curve"/>
      <point x="503" y="516"/>
      <point x="490" y="560"/>
      <point x="448" y="560" type="curve" smooth="yes"/>
      <point x="446" y="560" type="line" smooth="yes"/>
      <point x="379" y="560"/>
      <point x="296" y="467"/>
      <point x="224" y="289" type="curve" smooth="yes"/>
      <point x="214" y="263"/>
      <point x="202" y="232"/>
    </contour>
    <contour>
      <point x="260" y="551" type="move" name="top"/>
    </contour>
    <contour>
      <point x="260" y="-1" type="move" name="bottom"/>
    </contour>
  </outline>
</glyph>
<glyph name="s" format="1">
  <advance width="550"/>
  <unicode hex="0073"/>
  <outline>
    <contour>
      <point x="416" y="552" type="curve" smooth="yes"/>
      <point x="409" y="552" type="line" smooth="yes"/>
      <point x="269" y="552"/>
      <point x="152" y="503"/>
      <point x="125" y="392" type="curve" smooth="yes"/>
      <point x="113" y="349"/>
      <point x="167" y="300"/>
      <point x="263" y="300" type="curve"/>
      <point x="257" y="330"/>
      <point x="260" y="348"/>
      <point x="265" y="369" type="curve" smooth="yes"/>
      <point x="271" y="391"/>
      <point x="307" y="407"/>
      <point x="387" y="407" type="curve" smooth="yes"/>
      <point x="449" y="407"/>
      <point x="480" y="395"/>
      <point x="515" y="377" type="curve"/>
      <point x="519" y="377" type="line"/>
      <point x="525" y="390"/>
      <point x="531" y="403"/>
      <point x="534" y="415" type="curve"/>
      <point x="547" y="467"/>
      <point x="543" y="503"/>
      <point x="527" y="522" type="curve" smooth="yes"/>
      <point x="515" y="538"/>
      <point x="481" y="552"/>
    </contour>
    <contour>
      <point x="380" y="317" type="curve" smooth="yes"/>
      <point x="334" y="329" type="line" smooth="yes"/>
      <point x="273" y="345"/>
      <point x="260" y="349"/>
      <point x="265" y="369" type="curve" smooth="yes"/>
      <point x="269" y="385"/>
      <point x="279" y="409"/>
      <point x="300" y="440" type="curve"/>
      <point x="198" y="429"/>
      <point x="133" y="425"/>
      <point x="125" y="392" type="curve"/>
      <point x="104" y="312"/>
      <point x="139" y="250"/>
      <point x="242" y="223" type="curve" smooth="yes"/>
      <point x="307" y="207" type="line" smooth="yes"/>
      <point x="346" y="198"/>
      <point x="357" y="181"/>
      <point x="352" y="162" type="curve" smooth="yes"/>
      <point x="346" y="139"/>
      <point x="334" y="123"/>
      <point x="317" y="108" type="curve"/>
      <point x="435" y="108"/>
      <point x="479" y="117"/>
      <point x="488" y="151" type="curve" smooth="yes"/>
      <point x="506" y="223"/>
      <point x="479" y="291"/>
    </contour>
    <contour>
      <point x="273" y="133" type="curve" smooth="yes"/>
      <point x="162" y="133"/>
      <point x="115" y="147"/>
      <point x="53" y="188" type="curve"/>
      <point x="49" y="188" type="line"/>
      <point x="42" y="173"/>
      <point x="36" y="158"/>
      <point x="30" y="137" type="curve" smooth="yes"/>
      <point x="16" y="81"/>
      <point x="24" y="54"/>
      <point x="38" y="37" type="curve" smooth="yes"/>
      <point x="59" y="9"/>
      <point x="119" y="-12"/>
      <point x="219" y="-12" type="curve" smooth="yes"/>
      <point x="232" y="-12" type="line" smooth="yes"/>
      <point x="379" y="-12"/>
      <point x="459" y="34"/>
      <point x="488" y="151" type="curve" smooth="yes"/>
      <point x="502" y="207"/>
      <point x="473" y="218"/>
      <point x="424" y="230" type="curve"/>
      <point x="424" y="210"/>
      <point x="422" y="200"/>
      <point x="419" y="190" type="curve" smooth="yes"/>
      <point x="411" y="159"/>
      <point x="358" y="133"/>
    </contour>
    <contour>
      <point x="282" y="551" type="move" name="top"/>
    </contour>
    <contour>
      <point x="282" y="-1" type="move" name="bottom"/>
    </contour>
  </outline>
</glyph>
<glyph name="t" format="1">
  <advance width="500"/>
  <unicode hex="0074"/>
  <outline>
    <contour>
      <point x="234" y="700" type="curve"/>
      <point x="97" y="153" type="line" smooth="yes"/>
      <point x="82" y="93"/>
      <point x="154" y="9"/>
      <point x="254" y="34" type="curve"/>
      <point x="238" y="75"/>
      <point x="240" y="125"/>
      <point x="253" y="175" type="curve" smooth="yes"/>
      <point x="370" y="644" type="line" smooth="yes"/>
      <point x="384" y="698"/>
      <point x="345" y="706"/>
      <point x="294" y="706" type="curve" smooth="yes"/>
      <point x="271" y="706"/>
      <point x="250" y="704"/>
    </contour>
    <contour>
      <point x="421" y="170" type="curve"/>
      <point x="417" y="170" type="line"/>
      <point x="363" y="149"/>
      <point x="325" y="138"/>
      <point x="274" y="138" type="curve" smooth="yes"/>
      <point x="230" y="138"/>
      <point x="188" y="152"/>
      <point x="149" y="195" type="curve"/>
      <point x="122" y="192"/>
      <point x="103" y="175"/>
      <point x="97" y="153" type="curve" smooth="yes"/>
      <point x="76" y="67"/>
      <point x="132" y="-12"/>
      <point x="239" y="-12" type="curve" smooth="yes"/>
      <point x="250" y="-12" type="line" smooth="yes"/>
      <point x="312" y="-12"/>
      <point x="336" y="0"/>
      <point x="351" y="12" type="curve" smooth="yes"/>
      <point x="379" y="34"/>
      <point x="398" y="60"/>
      <point x="415" y="128" type="curve" smooth="yes"/>
      <point x="419" y="144"/>
      <point x="421" y="157"/>
    </contour>
    <contour>
      <point x="105" y="540" type="line"/>
      <point x="104" y="534"/>
      <point x="102" y="528"/>
      <point x="100" y="521" type="curve" smooth="yes"/>
      <point x="88" y="470"/>
      <point x="89" y="440"/>
      <point x="103" y="422" type="curve" smooth="yes"/>
      <point x="121" y="397"/>
      <point x="153" y="390"/>
      <point x="244" y="390" type="curve"/>
      <point x="475" y="390" type="line"/>
      <point x="483" y="407"/>
      <point x="492" y="430"/>
      <point x="497" y="453" type="curve" smooth="yes"/>
      <point x="514" y="519"/>
      <point x="502" y="540"/>
      <point x="446" y="540" type="curve"/>
    </contour>
    <contour>
      <point x="505" y="711" type="move" name="caronslovak"/>
    </contour>
    <contour>
      <point x="212" y="-1" type="move" name="bottom"/>
    </contour>
  </outline>
</glyph>
<glyph name="w" format="1">
  <advance width="800"/>
  <unicode hex="0077"/>
  <outline>
    <contour>
      <point x="130" y="545" type="curve"/>
      <point x="61" y="210"/>
      <point x="67" y="101"/>
      <point x="121" y="29" type="curve"/>
      <point x="145" y="-3"/>
      <point x="164" y="-10"/>
      <point x="191" y="-10" type="curve"/>
      <point x="213" y="-10" type="line" smooth="yes"/>
      <point x="229" y="-10"/>
      <point x="254" y="28"/>
      <point x="265" y="70" type="curve"/>
      <point x="215" y="105"/>
      <point x="207" y="195"/>
      <point x="269" y="493" type="curve"/>
      <point x="272" y="507"/>
      <point x="269" y="516"/>
      <point x="264" y="524" type="curve" smooth="yes"/>
      <point x="250" y="541"/>
      <point x="221" y="550"/>
      <point x="173" y="550" type="curve"/>
      <point x="159" y="550"/>
      <point x="142" y="548"/>
    </contour>
    <contour>
      <point x="402" y="540" type="curve"/>
      <point x="322" y="262"/>
      <point x="249" y="146"/>
      <point x="188" y="98" type="curve"/>
      <point x="164" y="79"/>
      <point x="189" y="-10"/>
      <point x="207" y="-10" type="curve"/>
      <point x="233" y="-10" type="line"/>
      <point x="317" y="56"/>
      <point x="421" y="235"/>
      <point x="481" y="470" type="curve"/>
      <point x="492" y="514"/>
      <point x="493" y="545"/>
      <point x="456" y="545" type="curve" smooth="yes"/>
      <point x="443" y="545"/>
      <point x="416" y="544"/>
    </contour>
    <contour>
      <point x="438" y="539" type="curve"/>
      <point x="402" y="322"/>
      <point x="380" y="95"/>
      <point x="435" y="21" type="curve"/>
      <point x="454" y="-5"/>
      <point x="481" y="-10"/>
      <point x="502" y="-10" type="curve"/>
      <point x="538" y="-10" type="line" smooth="yes"/>
      <point x="546" y="-10"/>
      <point x="552" y="26"/>
      <point x="540" y="70" type="curve"/>
      <point x="493" y="118"/>
      <point x="501" y="263"/>
      <point x="551" y="495" type="curve"/>
      <point x="559" y="535"/>
      <point x="510" y="545"/>
      <point x="456" y="545" type="curve" smooth="yes"/>
      <point x="445" y="545"/>
      <point x="443" y="544"/>
    </contour>
    <contour>
      <point x="681" y="544" type="curve"/>
      <point x="577" y="215"/>
      <point x="539" y="154"/>
      <point x="480" y="114" type="curve"/>
      <point x="446" y="91"/>
      <point x="485" y="-10"/>
      <point x="528" y="-10" type="curve"/>
      <point x="545" y="-10" type="line"/>
      <point x="669" y="76"/>
      <point x="748" y="236"/>
      <point x="828" y="468" type="curve"/>
      <point x="835" y="486"/>
      <point x="836" y="501"/>
      <point x="827" y="513" type="curve" smooth="yes"/>
      <point x="810" y="535"/>
      <point x="786" y="550"/>
      <point x="738" y="550" type="curve"/>
      <point x="724" y="550"/>
      <point x="694" y="548"/>
    </contour>
    <contour>
      <point x="456" y="551" type="move" name="top"/>
    </contour>
  </outline>
</glyph>
<glyph name="z" format="1">
  <advance width="550"/>
  <unicode hex="007A"/>
  <outline>
    <contour>
      <point x="129" y="540" type="line"/>
      <point x="122" y="528"/>
      <point x="117" y="515"/>
      <point x="114" y="500" type="curve" smooth="yes"/>
      <point x="104" y="461"/>
      <point x="108" y="429"/>
      <point x="121" y="412" type="curve" smooth="yes"/>
      <point x="130" y="400"/>
      <point x="137" y="395"/>
      <point x="159" y="395" type="curve" smooth="yes"/>
      <point x="237" y="395" type="line" smooth="yes"/>
      <point x="334" y="395"/>
      <point x="464" y="398"/>
      <point x="562" y="412" type="curve"/>
      <point x="564" y="420" type="line" smooth="yes"/>
      <point x="574" y="460"/>
      <point x="561" y="496"/>
      <point x="540" y="523" type="curve" smooth="yes"/>
      <point x="531" y="536"/>
      <point x="520" y="540"/>
      <point x="496" y="540" type="curve" smooth="yes"/>
    </contour>
    <contour>
      <point x="414" y="467" type="curve"/>
      <point x="324" y="337"/>
      <point x="196" y="224"/>
      <point x="20" y="135" type="curve"/>
      <point x="12" y="100"/>
      <point x="114" y="98"/>
      <point x="173" y="116" type="curve" smooth="yes"/>
      <point x="332" y="166"/>
      <point x="548" y="359"/>
      <point x="562" y="412" type="curve"/>
      <point x="571" y="451"/>
      <point x="530" y="467"/>
    </contour>
    <contour>
      <point x="450" y="0" type="line"/>
      <point x="458" y="17"/>
      <point x="467" y="40"/>
      <point x="473" y="63" type="curve"/>
      <point x="488" y="125"/>
      <point x="476" y="145"/>
      <point x="418" y="145" type="curve" smooth="yes"/>
      <point x="343" y="145" type="line" smooth="yes"/>
      <point x="230" y="145"/>
      <point x="124" y="141"/>
      <point x="20" y="135" type="curve"/>
      <point x="17" y="120" type="line" smooth="yes"/>
      <point x="5" y="74"/>
      <point x="8" y="33"/>
      <point x="24" y="11" type="curve" smooth="yes"/>
      <point x="30" y="3"/>
      <point x="39" y="0"/>
      <point x="52" y="0" type="curve" smooth="yes"/>
    </contour>
    <contour>
      <point x="288" y="551" type="move" name="top"/>
    </contour>
  </outline>
</glyph>
<glyph name="braceleft" format="1">
  <advance width="500"/>
  <unicode hex="007B"/>
  <outline>
    <contour>
      <point x="476" y="620" type="curve" smooth="yes"/>
      <point x="506" y="620"/>
      <point x="532" y="617"/>
      <point x="547" y="612" type="curve"/>
      <point x="551" y="612" type="line"/>
      <point x="559" y="628"/>
      <point x="564" y="641"/>
      <point x="570" y="664" type="curve"/>
      <point x="584" y="721"/>
      <point x="560" y="770"/>
      <point x="521" y="770" type="curve" smooth="yes"/>
      <point x="517" y="770" type="line" smooth="yes"/>
      <point x="395" y="770"/>
      <point x="292" y="720"/>
      <point x="274" y="648" type="curve" smooth="yes"/>
      <point x="273" y="645" type="line" smooth="yes"/>
      <point x="264" y="608"/>
      <point x="292" y="575"/>
      <point x="333" y="571" type="curve"/>
      <point x="378" y="608"/>
      <point x="424" y="620"/>
    </contour>
    <contour>
      <point x="390" y="424" type="curve" smooth="yes"/>
      <point x="417" y="534"/>
      <point x="365" y="587"/>
      <point x="376" y="628" type="curve" smooth="yes"/>
      <point x="381" y="648"/>
      <point x="389" y="664"/>
      <point x="404" y="683" type="curve"/>
      <point x="347" y="700"/>
      <point x="284" y="690"/>
      <point x="273" y="645" type="curve" smooth="yes"/>
      <point x="272" y="640" type="line" smooth="yes"/>
      <point x="260" y="594"/>
      <point x="277" y="536"/>
      <point x="257" y="458" type="curve" smooth="yes"/>
      <point x="241" y="394"/>
      <point x="192" y="368"/>
      <point x="88" y="368" type="curve" smooth="yes"/>
      <point x="81" y="368" type="line"/>
      <point x="78" y="357" type="line" smooth="yes"/>
      <point x="69" y="322"/>
      <point x="69" y="284"/>
      <point x="113" y="284" type="curve" smooth="yes"/>
      <point x="137" y="284" type="line" smooth="yes"/>
      <point x="255" y="284"/>
      <point x="369" y="342"/>
    </contour>
    <contour>
      <point x="327" y="175" type="curve" smooth="yes"/>
      <point x="350" y="267"/>
      <point x="269" y="313"/>
      <point x="148" y="313" type="curve" smooth="yes"/>
      <point x="97" y="313"/>
      <point x="89" y="340"/>
      <point x="79" y="362" type="curve"/>
      <point x="77" y="354" type="line" smooth="yes"/>
      <point x="60" y="287"/>
      <point x="71" y="231"/>
      <point x="108" y="231" type="curve" smooth="yes"/>
      <point x="111" y="231" type="line" smooth="yes"/>
      <point x="159" y="231"/>
      <point x="193" y="204"/>
      <point x="178" y="141" type="curve" smooth="yes"/>
      <point x="158" y="63"/>
      <point x="112" y="1"/>
      <point x="100" y="-45" type="curve" smooth="yes"/>
      <point x="99" y="-50" type="line" smooth="yes"/>
      <point x="88" y="-95"/>
      <point x="145" y="-105"/>
      <point x="211" y="-88" type="curve"/>
      <point x="205" y="-69"/>
      <point x="205" y="-53"/>
      <point x="210" y="-33" type="curve" smooth="yes"/>
      <point x="220" y="8"/>
      <point x="301" y="71"/>
    </contour>
    <contour>
      <point x="293" y="-21" type="curve" smooth="yes"/>
      <point x="254" y="-21"/>
      <point x="215" y="-10"/>
      <point x="195" y="17" type="curve"/>
      <point x="146" y="10"/>
      <point x="105" y="-24"/>
      <point x="100" y="-47" type="curve" smooth="yes"/>
      <point x="98" y="-52" type="line" smooth="yes"/>
      <point x="81" y="-123"/>
      <point x="125" y="-172"/>
      <point x="272" y="-172" type="curve" smooth="yes"/>
      <point x="277" y="-172" type="line" smooth="yes"/>
      <point x="326" y="-172"/>
      <point x="373" y="-111"/>
      <point x="396" y="-16" type="curve"/>
      <point x="398" y="-8" type="line"/>
      <point x="394" y="-8" type="line"/>
      <point x="357" y="-17"/>
      <point x="333" y="-21"/>
    </contour>
  </outline>
</glyph>
<glyph name="bar" format="1">
  <advance width="300"/>
  <unicode hex="007C"/>
  <outline>
    <contour>
      <point x="186" y="758" type="curve"/>
      <point x="186" y="722"/>
      <point x="180" y="685"/>
      <point x="170" y="645" type="curve" smooth="yes"/>
      <point x="-15" y="-97" type="line" smooth="yes"/>
      <point x="-27" y="-142"/>
      <point x="9" y="-164"/>
      <point x="91" y="-164" type="curve" smooth="yes"/>
      <point x="108" y="-164"/>
      <point x="120" y="-163"/>
      <point x="129" y="-161" type="curve"/>
      <point x="343" y="695" type="line" smooth="yes"/>
      <point x="349" y="720"/>
      <point x="348" y="732"/>
      <point x="340" y="743" type="curve" smooth="yes"/>
      <point x="328" y="759"/>
      <point x="304" y="765"/>
      <point x="254" y="765" type="curve" smooth="yes"/>
      <point x="229" y="765"/>
      <point x="210" y="763"/>
    </contour>
  </outline>
</glyph>
<glyph name="braceright" format="1">
  <advance width="500"/>
  <unicode hex="007D"/>
  <outline>
    <contour>
      <point x="39" y="-22" type="curve" smooth="yes"/>
      <point x="9" y="-22"/>
      <point x="-17" y="-19"/>
      <point x="-32" y="-14" type="curve"/>
      <point x="-36" y="-14" type="line"/>
      <point x="-44" y="-30"/>
      <point x="-49" y="-43"/>
      <point x="-55" y="-66" type="curve"/>
      <point x="-69" y="-123"/>
      <point x="-46" y="-172"/>
      <point x="-7" y="-172" type="curve" smooth="yes"/>
      <point x="-3" y="-172" type="line" smooth="yes"/>
      <point x="119" y="-172"/>
      <point x="223" y="-122"/>
      <point x="241" y="-50" type="curve" smooth="yes"/>
      <point x="242" y="-47" type="line" smooth="yes"/>
      <point x="251" y="-10"/>
      <point x="222" y="23"/>
      <point x="181" y="27" type="curve"/>
      <point x="137" y="-10"/>
      <point x="91" y="-22"/>
    </contour>
    <contour>
      <point x="125" y="174" type="curve" smooth="yes"/>
      <point x="97" y="64"/>
      <point x="149" y="11"/>
      <point x="139" y="-30" type="curve" smooth="yes"/>
      <point x="134" y="-50"/>
      <point x="126" y="-66"/>
      <point x="110" y="-85" type="curve"/>
      <point x="168" y="-102"/>
      <point x="230" y="-92"/>
      <point x="242" y="-47" type="curve" smooth="yes"/>
      <point x="243" y="-42" type="line" smooth="yes"/>
      <point x="254" y="4"/>
      <point x="238" y="62"/>
      <point x="257" y="140" type="curve" smooth="yes"/>
      <point x="273" y="204"/>
      <point x="323" y="230"/>
      <point x="427" y="230" type="curve" smooth="yes"/>
      <point x="434" y="230" type="line"/>
      <point x="437" y="241" type="line" smooth="yes"/>
      <point x="446" y="276"/>
      <point x="446" y="314"/>
      <point x="402" y="314" type="curve" smooth="yes"/>
      <point x="378" y="314" type="line" smooth="yes"/>
      <point x="260" y="314"/>
      <point x="145" y="256"/>
    </contour>
    <contour>
      <point x="187" y="423" type="curve" smooth="yes"/>
      <point x="164" y="331"/>
      <point x="246" y="285"/>
      <point x="367" y="285" type="curve" smooth="yes"/>
      <point x="418" y="285"/>
      <point x="426" y="258"/>
      <point x="435" y="236" type="curve"/>
      <point x="437" y="244" type="line" smooth="yes"/>
      <point x="454" y="311"/>
      <point x="443" y="367"/>
      <point x="406" y="367" type="curve" smooth="yes"/>
      <point x="403" y="367" type="line" smooth="yes"/>
      <point x="355" y="367"/>
      <point x="321" y="394"/>
      <point x="337" y="457" type="curve" smooth="yes"/>
      <point x="356" y="535"/>
      <point x="403" y="597"/>
      <point x="414" y="643" type="curve" smooth="yes"/>
      <point x="416" y="648" type="line" smooth="yes"/>
      <point x="427" y="693"/>
      <point x="369" y="703"/>
      <point x="303" y="686" type="curve"/>
      <point x="309" y="667"/>
      <point x="309" y="651"/>
      <point x="304" y="631" type="curve" smooth="yes"/>
      <point x="294" y="590"/>
      <point x="213" y="527"/>
    </contour>
    <contour>
      <point x="221" y="619" type="curve" smooth="yes"/>
      <point x="260" y="619"/>
      <point x="300" y="608"/>
      <point x="320" y="581" type="curve"/>
      <point x="369" y="588"/>
      <point x="409" y="622"/>
      <point x="415" y="645" type="curve" smooth="yes"/>
      <point x="416" y="650" type="line" smooth="yes"/>
      <point x="434" y="721"/>
      <point x="389" y="770"/>
      <point x="242" y="770" type="curve" smooth="yes"/>
      <point x="237" y="770" type="line" smooth="yes"/>
      <point x="188" y="770"/>
      <point x="142" y="709"/>
      <point x="118" y="614" type="curve"/>
      <point x="116" y="606" type="line"/>
      <point x="120" y="606" type="line"/>
      <point x="157" y="615"/>
      <point x="181" y="619"/>
    </contour>
  </outline>
</glyph>
<glyph name="exclamdown" format="1">
  <advance width="350"/>
  <unicode hex="00A1"/>
  <outline>
    <contour>
      <point x="109" y="245" type="line"/>
      <point x="76" y="180"/>
      <point x="35" y="72"/>
      <point x="19" y="6" type="curve"/>
      <point x="-9" y="-106" type="line" smooth="yes"/>
      <point x="-21" y="-154"/>
      <point x="30" y="-175"/>
      <point x="100" y="-175" type="curve" smooth="yes"/>
      <point x="125" y="-175"/>
      <point x="144" y="-174"/>
      <point x="168" y="-168" type="curve"/>
      <point x="168" y="-132"/>
      <point x="174" y="-95"/>
      <point x="184" y="-55" type="curve" smooth="yes"/>
      <point x="197" y="0" type="line"/>
      <point x="217" y="79"/>
      <point x="232" y="192"/>
      <point x="216" y="214" type="curve" smooth="yes"/>
      <point x="202" y="233"/>
      <point x="172" y="245"/>
      <point x="124" y="245" type="curve"/>
    </contour>
    <contour>
      <point x="139" y="540" type="curve"/>
      <point x="104" y="401" type="line" smooth="yes"/>
      <point x="88" y="338"/>
      <point x="155" y="329"/>
      <point x="216" y="329" type="curve" smooth="yes"/>
      <point x="239" y="329"/>
      <point x="269" y="331"/>
      <point x="295" y="335" type="curve"/>
      <point x="330" y="474" type="line" smooth="yes"/>
      <point x="346" y="537"/>
      <point x="279" y="546"/>
      <point x="218" y="546" type="curve" smooth="yes"/>
      <point x="195" y="546"/>
      <point x="165" y="544"/>
    </contour>
  </outline>
</glyph>
<glyph name="cent" format="1">
  <advance width="600"/>
  <unicode hex="00A2"/>
  <outline>
    <contour>
      <point x="404" y="373" type="line"/>
      <point x="551" y="674" type="line" smooth="yes"/>
      <point x="586" y="745"/>
      <point x="567" y="791"/>
      <point x="492" y="791" type="curve" smooth="yes"/>
      <point x="477" y="791"/>
      <point x="450" y="787"/>
      <point x="432" y="781" type="curve"/>
      <point x="435" y="752"/>
      <point x="434" y="724"/>
      <point x="424" y="681" type="curve"/>
      <point x="359" y="422" type="line" smooth="yes"/>
      <point x="351" y="391"/>
      <point x="376" y="373"/>
      <point x="400" y="373" type="curve" smooth="yes"/>
    </contour>
    <contour>
      <point x="334" y="321" type="line"/>
      <point x="187" y="20" type="line" smooth="yes"/>
      <point x="152" y="-51"/>
      <point x="171" y="-97"/>
      <point x="246" y="-97" type="curve" smooth="yes"/>
      <point x="261" y="-97"/>
      <point x="288" y="-93"/>
      <point x="306" y="-87" type="curve"/>
      <point x="303" y="-58"/>
      <point x="304" y="-30"/>
      <point x="314" y="13" type="curve"/>
      <point x="379" y="272" type="line" smooth="yes"/>
      <point x="387" y="303"/>
      <point x="362" y="321"/>
      <point x="338" y="321" type="curve" smooth="yes"/>
    </contour>
    <contour>
      <point x="451" y="632" type="curve" smooth="yes"/>
      <point x="267" y="632"/>
      <point x="111" y="506"/>
      <point x="64" y="321" type="curve" smooth="yes"/>
      <point x="62" y="311" type="line" smooth="yes"/>
      <point x="27" y="171"/>
      <point x="133" y="68"/>
      <point x="271" y="68" type="curve" smooth="yes"/>
      <point x="296" y="68"/>
      <point x="307" y="85"/>
      <point x="319" y="126" type="curve"/>
      <point x="197" y="187"/>
      <point x="198" y="255"/>
      <point x="213" y="314" type="curve" smooth="yes"/>
      <point x="215" y="322" type="line" smooth="yes"/>
      <point x="238" y="413"/>
      <point x="316" y="478"/>
      <point x="403" y="478" type="curve" smooth="yes"/>
      <point x="472" y="478"/>
      <point x="507" y="461"/>
      <point x="548" y="417" type="curve"/>
      <point x="552" y="417" type="line"/>
      <point x="572" y="449"/>
      <point x="583" y="476"/>
      <point x="592" y="511" type="curve" smooth="yes"/>
      <point x="603" y="555"/>
      <point x="601" y="573"/>
      <point x="586" y="592" type="curve" smooth="yes"/>
      <point x="570" y="614"/>
      <point x="523" y="632"/>
    </contour>
    <contour>
      <point x="175" y="322" type="curve"/>
      <point x="75" y="220"/>
      <point x="136" y="68"/>
      <point x="271" y="68" type="curve" smooth="yes"/>
      <point x="382" y="68"/>
      <point x="432" y="88"/>
      <point x="463" y="113" type="curve" smooth="yes"/>
      <point x="488" y="133"/>
      <point x="517" y="181"/>
      <point x="527" y="220" type="curve"/>
      <point x="533" y="242"/>
      <point x="535" y="255"/>
      <point x="536" y="270" type="curve"/>
      <point x="532" y="270" type="line"/>
      <point x="464" y="231"/>
      <point x="403" y="213"/>
      <point x="318" y="213" type="curve" smooth="yes"/>
      <point x="229" y="213"/>
      <point x="201" y="235"/>
    </contour>
  </outline>
</glyph>
<glyph name="currency" format="1">
  <advance width="600"/>
  <unicode hex="00A4"/>
  <outline>
    <contour>
      <point x="309" y="428" type="curve"/>
      <point x="292" y="445"/>
      <point x="276" y="466"/>
      <point x="264" y="488" type="curve" smooth="yes"/>
      <point x="253" y="508"/>
      <point x="239" y="518"/>
      <point x="223" y="518" type="curve" smooth="yes"/>
      <point x="206" y="518"/>
      <point x="186" y="509"/>
      <point x="160" y="489" type="curve" smooth="yes"/>
      <point x="143" y="475"/>
      <point x="125" y="457"/>
      <point x="108" y="439" type="curve"/>
      <point x="115" y="428"/>
      <point x="124" y="417"/>
      <point x="132" y="408" type="curve" smooth="yes"/>
      <point x="166" y="367"/>
      <point x="231" y="366"/>
      <point x="292" y="415" type="curve" smooth="yes"/>
      <point x="299" y="420"/>
      <point x="304" y="424"/>
    </contour>
    <contour>
      <point x="368" y="427" type="curve"/>
      <point x="371" y="423"/>
      <point x="374" y="419"/>
      <point x="378" y="414" type="curve" smooth="yes"/>
      <point x="416" y="364"/>
      <point x="469" y="357"/>
      <point x="532" y="402" type="curve" smooth="yes"/>
      <point x="547" y="413"/>
      <point x="561" y="426"/>
      <point x="574" y="438" type="curve"/>
      <point x="567" y="456"/>
      <point x="558" y="474"/>
      <point x="548" y="488" type="curve" smooth="yes"/>
      <point x="532" y="509"/>
      <point x="516" y="517"/>
      <point x="499" y="517" type="curve" smooth="yes"/>
      <point x="483" y="517"/>
      <point x="464" y="507"/>
      <point x="443" y="487" type="curve" smooth="yes"/>
      <point x="420" y="465"/>
      <point x="396" y="444"/>
    </contour>
    <contour>
      <point x="303" y="168" type="curve"/>
      <point x="320" y="151"/>
      <point x="336" y="130"/>
      <point x="348" y="108" type="curve" smooth="yes"/>
      <point x="359" y="88"/>
      <point x="373" y="78"/>
      <point x="389" y="78" type="curve" smooth="yes"/>
      <point x="406" y="78"/>
      <point x="426" y="87"/>
      <point x="452" y="107" type="curve" smooth="yes"/>
      <point x="469" y="121"/>
      <point x="487" y="139"/>
      <point x="504" y="157" type="curve"/>
      <point x="497" y="168"/>
      <point x="488" y="179"/>
      <point x="480" y="188" type="curve" smooth="yes"/>
      <point x="446" y="229"/>
      <point x="381" y="230"/>
      <point x="320" y="181" type="curve" smooth="yes"/>
      <point x="313" y="176"/>
      <point x="308" y="172"/>
    </contour>
    <contour>
      <point x="244" y="169" type="curve"/>
      <point x="241" y="173"/>
      <point x="238" y="177"/>
      <point x="234" y="182" type="curve" smooth="yes"/>
      <point x="196" y="232"/>
      <point x="143" y="239"/>
      <point x="80" y="194" type="curve" smooth="yes"/>
      <point x="65" y="183"/>
      <point x="51" y="170"/>
      <point x="38" y="158" type="curve"/>
      <point x="45" y="140"/>
      <point x="54" y="122"/>
      <point x="64" y="108" type="curve" smooth="yes"/>
      <point x="80" y="87"/>
      <point x="96" y="79"/>
      <point x="113" y="79" type="curve" smooth="yes"/>
      <point x="129" y="79"/>
      <point x="148" y="89"/>
      <point x="169" y="109" type="curve" smooth="yes"/>
      <point x="192" y="131"/>
      <point x="216" y="152"/>
    </contour>
    <contour>
      <point x="300" y="198" type="curve"/>
      <point x="243" y="198"/>
      <point x="217" y="235"/>
      <point x="232" y="295" type="curve" smooth="yes"/>
      <point x="234" y="303" type="line" smooth="yes"/>
      <point x="247" y="354"/>
      <point x="282" y="382"/>
      <point x="335" y="382" type="curve" smooth="yes"/>
      <point x="362" y="382"/>
      <point x="379" y="375"/>
      <point x="399" y="350" type="curve"/>
      <point x="437" y="406"/>
      <point x="428" y="480"/>
      <point x="355" y="480" type="curve"/>
      <point x="252" y="480"/>
      <point x="159" y="407"/>
      <point x="133" y="303" type="curve" smooth="yes"/>
      <point x="131" y="295" type="line" smooth="yes"/>
      <point x="106" y="193"/>
      <point x="162" y="125"/>
      <point x="260" y="125" type="curve"/>
      <point x="278" y="125"/>
      <point x="288" y="152"/>
    </contour>
    <contour>
      <point x="312" y="397" type="curve"/>
      <point x="369" y="397"/>
      <point x="396" y="364"/>
      <point x="382" y="310" type="curve" smooth="yes"/>
      <point x="380" y="302" type="line" smooth="yes"/>
      <point x="367" y="251"/>
      <point x="332" y="223"/>
      <point x="279" y="223" type="curve" smooth="yes"/>
      <point x="252" y="223"/>
      <point x="235" y="230"/>
      <point x="215" y="255" type="curve"/>
      <point x="177" y="199"/>
      <point x="187" y="125"/>
      <point x="260" y="125" type="curve"/>
      <point x="363" y="125"/>
      <point x="455" y="198"/>
      <point x="481" y="302" type="curve" smooth="yes"/>
      <point x="483" y="310" type="line" smooth="yes"/>
      <point x="509" y="412"/>
      <point x="453" y="480"/>
      <point x="355" y="480" type="curve"/>
      <point x="337" y="480"/>
      <point x="328" y="462"/>
    </contour>
  </outline>
</glyph>
<glyph name="brokenbar" format="1">
  <advance width="300"/>
  <unicode hex="00A6"/>
  <outline>
    <contour>
      <point x="179" y="758" type="curve"/>
      <point x="179" y="722"/>
      <point x="174" y="685"/>
      <point x="164" y="645" type="curve" smooth="yes"/>
      <point x="111" y="433" type="line" smooth="yes"/>
      <point x="100" y="388"/>
      <point x="135" y="366"/>
      <point x="217" y="366" type="curve" smooth="yes"/>
      <point x="234" y="366"/>
      <point x="246" y="367"/>
      <point x="255" y="369" type="curve"/>
      <point x="336" y="695" type="line" smooth="yes"/>
      <point x="343" y="720"/>
      <point x="342" y="732"/>
      <point x="333" y="743" type="curve" smooth="yes"/>
      <point x="321" y="759"/>
      <point x="298" y="765"/>
      <point x="248" y="765" type="curve" smooth="yes"/>
      <point x="223" y="765"/>
      <point x="203" y="763"/>
    </contour>
    <contour>
      <point x="59" y="228" type="curve"/>
      <point x="-22" y="-97" type="line"/>
      <point x="-33" y="-142"/>
      <point x="2" y="-164"/>
      <point x="84" y="-164" type="curve" smooth="yes"/>
      <point x="101" y="-164"/>
      <point x="114" y="-163"/>
      <point x="122" y="-161" type="curve"/>
      <point x="204" y="165" type="line" smooth="yes"/>
      <point x="217" y="217"/>
      <point x="191" y="235"/>
      <point x="120" y="235" type="curve" smooth="yes"/>
      <point x="98" y="235"/>
      <point x="77" y="233"/>
    </contour>
  </outline>
</glyph>
<glyph name="copyright" format="1">
  <advance width="600"/>
  <unicode hex="00A9"/>
  <outline>
    <contour>
      <point x="411" y="715" type="curve" smooth="yes"/>
      <point x="229" y="715"/>
      <point x="95" y="599"/>
      <point x="38" y="369" type="curve" smooth="yes"/>
      <point x="31" y="341" type="line" smooth="yes"/>
      <point x="-29" y="101"/>
      <point x="44" y="-15"/>
      <point x="229" y="-15" type="curve" smooth="yes"/>
      <point x="264" y="-15"/>
      <point x="280" y="8"/>
      <point x="286" y="29" type="curve"/>
      <point x="117" y="29"/>
      <point x="40" y="118"/>
      <point x="92" y="325" type="curve" smooth="yes"/>
      <point x="105" y="376" type="line" smooth="yes"/>
      <point x="154" y="575"/>
      <point x="253" y="654"/>
      <point x="396" y="654" type="curve" smooth="yes"/>
      <point x="454" y="654"/>
      <point x="509" y="634"/>
      <point x="564" y="594" type="curve"/>
      <point x="611" y="654"/>
      <point x="498" y="715"/>
    </contour>
    <contour>
      <point x="229" y="-15" type="curve" smooth="yes"/>
      <point x="411" y="-15"/>
      <point x="545" y="102"/>
      <point x="602" y="331" type="curve" smooth="yes"/>
      <point x="609" y="359" type="line" smooth="yes"/>
      <point x="669" y="599"/>
      <point x="596" y="715"/>
      <point x="411" y="715" type="curve" smooth="yes"/>
      <point x="376" y="715"/>
      <point x="360" y="692"/>
      <point x="354" y="671" type="curve"/>
      <point x="523" y="671"/>
      <point x="600" y="583"/>
      <point x="548" y="375" type="curve" smooth="yes"/>
      <point x="536" y="324" type="line" smooth="yes"/>
      <point x="486" y="125"/>
      <point x="387" y="46"/>
      <point x="244" y="46" type="curve" smooth="yes"/>
      <point x="186" y="46"/>
      <point x="129" y="65"/>
      <point x="76" y="106" type="curve"/>
      <point x="36" y="42"/>
      <point x="142" y="-15"/>
    </contour>
    <contour>
      <point x="362" y="485" type="curve" smooth="yes"/>
      <point x="404" y="485"/>
      <point x="423" y="462"/>
      <point x="425" y="425" type="curve"/>
      <point x="454" y="425"/>
      <point x="468" y="448"/>
      <point x="471" y="463" type="curve" smooth="yes"/>
      <point x="477" y="486"/>
      <point x="474" y="510"/>
      <point x="457" y="533" type="curve" smooth="yes"/>
      <point x="440" y="556"/>
      <point x="417" y="566"/>
      <point x="380" y="566" type="curve" smooth="yes"/>
      <point x="282" y="566"/>
      <point x="217" y="495"/>
      <point x="181" y="350" type="curve" smooth="yes"/>
      <point x="178" y="339" type="line" smooth="yes"/>
      <point x="168" y="297"/>
      <point x="178" y="162"/>
      <point x="270" y="193" type="curve"/>
      <point x="251" y="239"/>
      <point x="254" y="277"/>
      <point x="271" y="345" type="curve" smooth="yes"/>
      <point x="274" y="356" type="line" smooth="yes"/>
      <point x="296" y="446"/>
      <point x="323" y="485"/>
    </contour>
    <contour>
      <point x="273" y="134" type="curve" smooth="yes"/>
      <point x="319" y="134"/>
      <point x="357" y="148"/>
      <point x="376" y="166" type="curve"/>
      <point x="395" y="184"/>
      <point x="402" y="203"/>
      <point x="408" y="226" type="curve" smooth="yes"/>
      <point x="412" y="241"/>
      <point x="414" y="260"/>
      <point x="412" y="269" type="curve"/>
      <point x="408" y="269" type="line"/>
      <point x="367" y="234"/>
      <point x="342" y="218"/>
      <point x="302" y="218" type="curve" smooth="yes"/>
      <point x="253" y="218"/>
      <point x="229" y="246"/>
      <point x="257" y="373" type="curve"/>
      <point x="208" y="373"/>
      <point x="187" y="373"/>
      <point x="178" y="339" type="curve" smooth="yes"/>
      <point x="143" y="198"/>
      <point x="176" y="134"/>
    </contour>
    <contour>
      <point x="457" y="406" type="curve"/>
      <point x="471" y="463" type="line" smooth="yes"/>
      <point x="475" y="477"/>
      <point x="465" y="532"/>
      <point x="426" y="522" type="curve"/>
      <point x="395" y="483"/>
      <point x="387" y="466"/>
      <point x="379" y="432" type="curve" smooth="yes"/>
      <point x="378" y="428" type="line" smooth="yes"/>
      <point x="372" y="404"/>
      <point x="383" y="397"/>
      <point x="410" y="397" type="curve" smooth="yes"/>
      <point x="430" y="397"/>
      <point x="442" y="400"/>
    </contour>
  </outline>
</glyph>
<glyph name="guillemotleft" format="1">
  <advance width="600"/>
  <unicode hex="00AB"/>
  <outline>
    <contour>
      <point x="395" y="509" type="line"/>
      <point x="367" y="518"/>
      <point x="351" y="522"/>
      <point x="317" y="522" type="curve" smooth="yes"/>
      <point x="278" y="522"/>
      <point x="258" y="517"/>
      <point x="234" y="503" type="curve" smooth="yes"/>
      <point x="158" y="455"/>
      <point x="104" y="404"/>
      <point x="38" y="325" type="curve"/>
      <point x="33" y="305" type="line"/>
      <point x="28" y="285"/>
      <point x="36" y="257"/>
      <point x="113" y="257" type="curve"/>
      <point x="188" y="357"/>
      <point x="258" y="420"/>
      <point x="394" y="505" type="curve"/>
    </contour>
    <contour>
      <point x="291" y="95" type="line"/>
      <point x="198" y="184"/>
      <point x="151" y="253"/>
      <point x="138" y="341" type="curve"/>
      <point x="51" y="327"/>
      <point x="37" y="320"/>
      <point x="34" y="309" type="curve"/>
      <point x="32" y="301" type="line" smooth="yes"/>
      <point x="26" y="276"/>
      <point x="26" y="256"/>
      <point x="41" y="221" type="curve" smooth="yes"/>
      <point x="71" y="151"/>
      <point x="100" y="116"/>
      <point x="127" y="98" type="curve"/>
      <point x="147" y="83"/>
      <point x="165" y="78"/>
      <point x="208" y="78" type="curve" smooth="yes"/>
      <point x="245" y="78"/>
      <point x="261" y="82"/>
      <point x="290" y="91" type="curve"/>
    </contour>
    <contour>
      <point x="625" y="509" type="line"/>
      <point x="597" y="518"/>
      <point x="581" y="522"/>
      <point x="547" y="522" type="curve" smooth="yes"/>
      <point x="508" y="522"/>
      <point x="488" y="517"/>
      <point x="464" y="503" type="curve" smooth="yes"/>
      <point x="388" y="455"/>
      <point x="334" y="404"/>
      <point x="268" y="325" type="curve"/>
      <point x="263" y="305" type="line"/>
      <point x="258" y="285"/>
      <point x="266" y="257"/>
      <point x="343" y="257" type="curve"/>
      <point x="418" y="357"/>
      <point x="488" y="420"/>
      <point x="624" y="505" type="curve"/>
    </contour>
    <contour>
      <point x="521" y="95" type="line"/>
      <point x="428" y="184"/>
      <point x="381" y="253"/>
      <point x="368" y="341" type="curve"/>
      <point x="281" y="327"/>
      <point x="267" y="320"/>
      <point x="264" y="309" type="curve"/>
      <point x="262" y="301" type="line" smooth="yes"/>
      <point x="256" y="276"/>
      <point x="256" y="256"/>
      <point x="271" y="221" type="curve" smooth="yes"/>
      <point x="301" y="151"/>
      <point x="330" y="116"/>
      <point x="357" y="98" type="curve"/>
      <point x="377" y="83"/>
      <point x="395" y="78"/>
      <point x="438" y="78" type="curve" smooth="yes"/>
      <point x="475" y="78"/>
      <point x="491" y="82"/>
      <point x="520" y="91" type="curve"/>
    </contour>
  </outline>
</glyph>
<glyph name="logicalnot" format="1">
  <advance width="600"/>
  <unicode hex="00AC"/>
  <outline>
    <contour>
      <point x="94" y="455" type="line"/>
      <point x="93" y="449"/>
      <point x="91" y="443"/>
      <point x="90" y="436" type="curve" smooth="yes"/>
      <point x="77" y="385"/>
      <point x="78" y="358"/>
      <point x="92" y="340" type="curve" smooth="yes"/>
      <point x="103" y="325"/>
      <point x="122" y="320"/>
      <point x="168" y="320" type="curve"/>
      <point x="553" y="320" type="line"/>
      <point x="556" y="333" type="line"/>
      <point x="577" y="418"/>
      <point x="566" y="455"/>
      <point x="513" y="455" type="curve"/>
    </contour>
    <contour>
      <point x="507" y="138" type="curve"/>
      <point x="556" y="333" type="line" smooth="yes"/>
      <point x="563" y="363"/>
      <point x="521" y="375"/>
      <point x="435" y="375" type="curve"/>
      <point x="416" y="375" type="line"/>
      <point x="371" y="194" type="line" smooth="yes"/>
      <point x="357" y="140"/>
      <point x="390" y="132"/>
      <point x="447" y="132" type="curve" smooth="yes"/>
      <point x="470" y="132"/>
      <point x="491" y="134"/>
    </contour>
  </outline>
</glyph>
<glyph name="registered" format="1">
  <advance width="600"/>
  <unicode hex="00AE"/>
  <outline>
    <contour>
      <point x="292" y="331" type="curve"/>
      <point x="293" y="355"/>
      <point x="297" y="379"/>
      <point x="304" y="404" type="curve"/>
      <point x="335" y="531" type="line"/>
      <point x="344" y="566"/>
      <point x="323" y="579"/>
      <point x="265" y="579" type="curve"/>
      <point x="211" y="361" type="line" smooth="yes"/>
      <point x="206" y="340"/>
      <point x="220" y="324"/>
      <point x="256" y="324" type="curve" smooth="yes"/>
      <point x="267" y="324"/>
      <point x="279" y="324"/>
    </contour>
    <contour>
      <point x="259" y="630" type="curve"/>
      <point x="253" y="620"/>
      <point x="248" y="609"/>
      <point x="244" y="594" type="curve"/>
      <point x="237" y="566"/>
      <point x="241" y="555"/>
      <point x="251" y="555" type="curve"/>
      <point x="255" y="555"/>
      <point x="261" y="556"/>
      <point x="269" y="558" type="curve" smooth="yes"/>
      <point x="298" y="563"/>
      <point x="339" y="566"/>
      <point x="367" y="566" type="curve" smooth="yes"/>
      <point x="411" y="566"/>
      <point x="429" y="563"/>
      <point x="448" y="549" type="curve"/>
      <point x="489" y="576"/>
      <point x="461" y="641"/>
      <point x="410" y="641" type="curve" smooth="yes"/>
      <point x="369" y="641"/>
      <point x="314" y="638"/>
    </contour>
    <contour>
      <point x="497" y="537" type="curve" smooth="yes"/>
      <point x="500" y="548" type="line" smooth="yes"/>
      <point x="511" y="592"/>
      <point x="491" y="641"/>
      <point x="410" y="641" type="curve"/>
      <point x="385" y="641"/>
      <point x="352" y="620"/>
      <point x="343" y="586" type="curve"/>
      <point x="408" y="586"/>
      <point x="425" y="574"/>
      <point x="418" y="545" type="curve" smooth="yes"/>
      <point x="416" y="539" type="line" smooth="yes"/>
      <point x="409" y="508"/>
      <point x="369" y="489"/>
      <point x="304" y="489" type="curve" smooth="yes"/>
      <point x="287" y="489"/>
      <point x="283" y="489"/>
      <point x="279" y="489" type="curve"/>
      <point x="275" y="481"/>
      <point x="272" y="475"/>
      <point x="268" y="458" type="curve" smooth="yes"/>
      <point x="263" y="438"/>
      <point x="264" y="417"/>
      <point x="287" y="417" type="curve" smooth="yes"/>
      <point x="289" y="417" type="line" smooth="yes"/>
      <point x="384" y="417"/>
      <point x="480" y="468"/>
    </contour>
    <contour>
      <point x="416" y="492" type="line"/>
      <point x="384" y="484"/>
      <point x="339" y="453"/>
      <point x="341" y="438" type="curve" smooth="yes"/>
      <point x="349" y="374" type="line" smooth="yes"/>
      <point x="354" y="344"/>
      <point x="371" y="324"/>
      <point x="400" y="324" type="curve" smooth="yes"/>
      <point x="405" y="324" type="line" smooth="yes"/>
      <point x="429" y="324"/>
      <point x="446" y="339"/>
      <point x="455" y="373" type="curve"/>
      <point x="459" y="388"/>
      <point x="460" y="397"/>
      <point x="459" y="408" type="curve"/>
      <point x="457" y="408" type="line"/>
      <point x="452" y="404"/>
      <point x="446" y="403"/>
      <point x="439" y="403" type="curve"/>
      <point x="430" y="403"/>
      <point x="426" y="406"/>
      <point x="423" y="432" type="curve" smooth="yes"/>
    </contour>
    <contour>
      <point x="423" y="760" type="curve" smooth="yes"/>
      <point x="259" y="760"/>
      <point x="143" y="672"/>
      <point x="99" y="498" type="curve" smooth="yes"/>
      <point x="93" y="473" type="line" smooth="yes"/>
      <point x="47" y="290"/>
      <point x="117" y="202"/>
      <point x="283" y="202" type="curve" smooth="yes"/>
      <point x="315" y="202"/>
      <point x="329" y="223"/>
      <point x="334" y="242" type="curve"/>
      <point x="182" y="242"/>
      <point x="109" y="306"/>
      <point x="147" y="458" type="curve" smooth="yes"/>
      <point x="159" y="504" type="line" smooth="yes"/>
      <point x="195" y="648"/>
      <point x="280" y="705"/>
      <point x="409" y="705" type="curve" smooth="yes"/>
      <point x="461" y="705"/>
      <point x="512" y="691"/>
      <point x="561" y="655" type="curve"/>
      <point x="603" y="708"/>
      <point x="501" y="760"/>
    </contour>
    <contour>
      <point x="283" y="202" type="curve" smooth="yes"/>
      <point x="447" y="202"/>
      <point x="563" y="291"/>
      <point x="607" y="464" type="curve" smooth="yes"/>
      <point x="613" y="489" type="line" smooth="yes"/>
      <point x="659" y="672"/>
      <point x="589" y="760"/>
      <point x="423" y="760" type="curve" smooth="yes"/>
      <point x="391" y="760"/>
      <point x="376" y="739"/>
      <point x="372" y="720" type="curve"/>
      <point x="524" y="720"/>
      <point x="597" y="656"/>
      <point x="559" y="504" type="curve" smooth="yes"/>
      <point x="547" y="458" type="line" smooth="yes"/>
      <point x="511" y="314"/>
      <point x="426" y="257"/>
      <point x="297" y="257" type="curve" smooth="yes"/>
      <point x="245" y="257"/>
      <point x="191" y="271"/>
      <point x="144" y="307" type="curve"/>
      <point x="110" y="251"/>
      <point x="205" y="202"/>
    </contour>
  </outline>
</glyph>
<glyph name="macron" format="1">
  <advance width="600"/>
  <unicode hex="00AF"/>
  <outline>
    <contour>
      <point x="211" y="730" type="line"/>
      <point x="210" y="724"/>
      <point x="208" y="718"/>
      <point x="206" y="711" type="curve" smooth="yes"/>
      <point x="187" y="634"/>
      <point x="205" y="610"/>
      <point x="327" y="610" type="curve"/>
      <point x="584" y="610" type="line"/>
      <point x="591" y="624"/>
      <point x="600" y="644"/>
      <point x="604" y="663" type="curve" smooth="yes"/>
      <point x="617" y="713"/>
      <point x="604" y="730"/>
      <point x="548" y="730" type="curve"/>
    </contour>
  </outline>
</glyph>
<glyph name="degree" format="1">
  <advance width="600"/>
  <unicode hex="00B0"/>
  <outline>
    <contour>
      <point x="358" y="428" type="curve"/>
      <point x="301" y="428"/>
      <point x="275" y="465"/>
      <point x="290" y="525" type="curve" smooth="yes"/>
      <point x="292" y="533" type="line" smooth="yes"/>
      <point x="305" y="584"/>
      <point x="340" y="612"/>
      <point x="393" y="612" type="curve" smooth="yes"/>
      <point x="420" y="612"/>
      <point x="437" y="605"/>
      <point x="457" y="580" type="curve"/>
      <point x="495" y="636"/>
      <point x="485" y="710"/>
      <point x="412" y="710" type="curve"/>
      <point x="309" y="710"/>
      <point x="217" y="637"/>
      <point x="191" y="533" type="curve" smooth="yes"/>
      <point x="189" y="525" type="line" smooth="yes"/>
      <point x="163" y="423"/>
      <point x="219" y="355"/>
      <point x="317" y="355" type="curve"/>
      <point x="335" y="355"/>
      <point x="346" y="382"/>
    </contour>
    <contour>
      <point x="369" y="627" type="curve"/>
      <point x="426" y="627"/>
      <point x="453" y="594"/>
      <point x="440" y="540" type="curve" smooth="yes"/>
      <point x="438" y="532" type="line" smooth="yes"/>
      <point x="425" y="481"/>
      <point x="390" y="453"/>
      <point x="337" y="453" type="curve" smooth="yes"/>
      <point x="310" y="453"/>
      <point x="293" y="460"/>
      <point x="273" y="485" type="curve"/>
      <point x="235" y="429"/>
      <point x="244" y="355"/>
      <point x="317" y="355" type="curve"/>
      <point x="420" y="355"/>
      <point x="513" y="428"/>
      <point x="539" y="532" type="curve" smooth="yes"/>
      <point x="541" y="540" type="line" smooth="yes"/>
      <point x="566" y="642"/>
      <point x="510" y="710"/>
      <point x="412" y="710" type="curve"/>
      <point x="394" y="710"/>
      <point x="386" y="692"/>
    </contour>
  </outline>
</glyph>
<glyph name="plusminus" format="1">
  <advance width="600"/>
  <unicode hex="00B1"/>
  <outline>
    <contour>
      <point x="95" y="459" type="line"/>
      <point x="94" y="453"/>
      <point x="92" y="447"/>
      <point x="91" y="440" type="curve" smooth="yes"/>
      <point x="78" y="389"/>
      <point x="79" y="362"/>
      <point x="93" y="344" type="curve" smooth="yes"/>
      <point x="104" y="329"/>
      <point x="123" y="324"/>
      <point x="169" y="324" type="curve"/>
      <point x="567" y="324" type="line"/>
      <point x="575" y="343"/>
      <point x="584" y="365"/>
      <point x="588" y="382" type="curve" smooth="yes"/>
      <point x="603" y="440"/>
      <point x="590" y="459"/>
      <point x="534" y="459" type="curve"/>
    </contour>
    <contour>
      <point x="365" y="229" type="curve"/>
      <point x="425" y="468" type="line" smooth="yes"/>
      <point x="435" y="509"/>
      <point x="431" y="521"/>
      <point x="415" y="537" type="curve" smooth="yes"/>
      <point x="397" y="554"/>
      <point x="359" y="560"/>
      <point x="327" y="560" type="curve" smooth="yes"/>
      <point x="313" y="560"/>
      <point x="298" y="559"/>
      <point x="284" y="557" type="curve"/>
      <point x="287" y="532"/>
      <point x="285" y="510"/>
      <point x="278" y="482" type="curve" smooth="yes"/>
      <point x="229" y="285" type="line" smooth="yes"/>
      <point x="215" y="231"/>
      <point x="248" y="223"/>
      <point x="305" y="223" type="curve" smooth="yes"/>
      <point x="328" y="223"/>
      <point x="349" y="225"/>
    </contour>
    <contour>
      <point x="23" y="170" type="line"/>
      <point x="21" y="164"/>
      <point x="20" y="158"/>
      <point x="18" y="151" type="curve" smooth="yes"/>
      <point x="5" y="98"/>
      <point x="6" y="67"/>
      <point x="19" y="50" type="curve" smooth="yes"/>
      <point x="30" y="35"/>
      <point x="49" y="30"/>
      <point x="95" y="30" type="curve"/>
      <point x="493" y="30" type="line"/>
      <point x="502" y="49"/>
      <point x="510" y="71"/>
      <point x="514" y="88" type="curve" smooth="yes"/>
      <point x="530" y="150"/>
      <point x="518" y="170"/>
      <point x="462" y="170" type="curve"/>
    </contour>
  </outline>
</glyph>
<glyph name="paragraph" format="1">
  <advance width="600"/>
  <unicode hex="00B6"/>
  <outline>
    <contour>
      <point x="227" y="-150" type="curve"/>
      <point x="380" y="460" type="line"/>
      <point x="414" y="599"/>
      <point x="386" y="630"/>
      <point x="336" y="630" type="curve" smooth="yes"/>
      <point x="321" y="630"/>
      <point x="312" y="626"/>
      <point x="297" y="617" type="curve"/>
      <point x="124" y="-74" type="line" smooth="yes"/>
      <point x="109" y="-134"/>
      <point x="123" y="-160"/>
      <point x="180" y="-160" type="curve" smooth="yes"/>
      <point x="200" y="-160"/>
      <point x="213" y="-157"/>
    </contour>
    <contour>
      <point x="432" y="-153" type="curve"/>
      <point x="432" y="-117"/>
      <point x="437" y="-80"/>
      <point x="447" y="-40" type="curve" smooth="yes"/>
      <point x="599" y="564" type="line" smooth="yes"/>
      <point x="610" y="608"/>
      <point x="581" y="631"/>
      <point x="510" y="631" type="curve" smooth="yes"/>
      <point x="502" y="631"/>
      <point x="497" y="631"/>
      <point x="493" y="631" type="curve"/>
      <point x="318" y="-70" type="line" smooth="yes"/>
      <point x="302" y="-134"/>
      <point x="319" y="-160"/>
      <point x="374" y="-160" type="curve" smooth="yes"/>
      <point x="397" y="-160"/>
      <point x="413" y="-158"/>
    </contour>
    <contour>
      <point x="487" y="710" type="line" smooth="yes"/>
      <point x="282" y="710"/>
      <point x="111" y="589"/>
      <point x="67" y="412" type="curve" smooth="yes"/>
      <point x="64" y="402" type="line" smooth="yes"/>
      <point x="37" y="294"/>
      <point x="75" y="226"/>
      <point x="158" y="226" type="curve" smooth="yes"/>
      <point x="164" y="226" type="line" smooth="yes"/>
      <point x="209" y="226"/>
      <point x="319" y="248"/>
      <point x="343" y="343" type="curve"/>
      <point x="333" y="343" type="line" smooth="yes"/>
      <point x="300" y="343"/>
      <point x="294" y="367"/>
      <point x="305" y="410" type="curve" smooth="yes"/>
      <point x="307" y="418" type="line" smooth="yes"/>
      <point x="330" y="509"/>
      <point x="373" y="573"/>
      <point x="445" y="573" type="curve" smooth="yes"/>
      <point x="526" y="573"/>
      <point x="577" y="566"/>
      <point x="637" y="544" type="curve"/>
      <point x="641" y="544" type="line"/>
      <point x="651" y="564"/>
      <point x="657" y="581"/>
      <point x="662" y="601" type="curve" smooth="yes"/>
      <point x="669" y="631"/>
      <point x="667" y="652"/>
      <point x="654" y="669" type="curve" smooth="yes"/>
      <point x="636" y="693"/>
      <point x="589" y="710"/>
      <point x="490" y="710" type="curve" smooth="yes"/>
    </contour>
  </outline>
</glyph>
<glyph name="onesuperior" format="1">
  <advance width="600"/>
  <unicode hex="00B9"/>
  <outline>
    <contour>
      <point x="403" y="428" type="curve"/>
      <point x="423" y="510"/>
      <point x="444" y="595"/>
      <point x="464" y="674" type="curve" smooth="yes"/>
      <point x="471" y="701"/>
      <point x="436" y="710"/>
      <point x="379" y="710" type="curve" smooth="yes"/>
      <point x="376" y="710" type="line"/>
      <point x="361" y="650"/>
      <point x="345" y="586"/>
      <point x="330" y="527" type="curve" smooth="yes"/>
      <point x="311" y="448"/>
      <point x="347" y="428"/>
    </contour>
    <contour>
      <point x="209" y="473" type="line"/>
      <point x="208" y="469"/>
      <point x="207" y="465"/>
      <point x="206" y="460" type="curve" smooth="yes"/>
      <point x="186" y="382"/>
      <point x="200" y="366"/>
      <point x="259" y="366" type="curve" smooth="yes"/>
      <point x="461" y="366" type="line"/>
      <point x="467" y="378"/>
      <point x="473" y="395"/>
      <point x="477" y="411" type="curve" smooth="yes"/>
      <point x="489" y="458"/>
      <point x="481" y="473"/>
      <point x="441" y="473" type="curve" smooth="yes"/>
    </contour>
    <contour>
      <point x="272" y="533" type="curve" smooth="yes"/>
      <point x="319" y="533"/>
      <point x="403" y="629"/>
      <point x="411" y="660" type="curve" smooth="yes"/>
      <point x="417" y="685"/>
      <point x="424" y="710"/>
      <point x="377" y="710" type="curve"/>
      <point x="370" y="710" type="line"/>
      <point x="334" y="671"/>
      <point x="302" y="648"/>
      <point x="254" y="627" type="curve"/>
      <point x="249" y="606" type="line" smooth="yes"/>
      <point x="238" y="562"/>
      <point x="247" y="533"/>
    </contour>
  </outline>
</glyph>
<glyph name="Agrave" format="1">
  <advance width="600"/>
  <unicode hex="00C0"/>
  <outline>
    <contour>
      <point x="143" y="-7" type="curve"/>
      <point x="265" y="400"/>
      <point x="309" y="504"/>
      <point x="420" y="594" type="curve"/>
      <point x="458" y="624"/>
      <point x="458" y="710"/>
      <point x="379" y="710" type="curve"/>
      <point x="349" y="710" type="line"/>
      <point x="212" y="615"/>
      <point x="69" y="338"/>
      <point x="-1" y="57" type="curve"/>
      <point x="-14" y="8"/>
      <point x="31" y="-10"/>
      <point x="105" y="-10" type="curve" smooth="yes"/>
      <point x="123" y="-10"/>
      <point x="131" y="-9"/>
    </contour>
    <contour>
      <point x="481" y="-6" type="curve"/>
      <point x="534" y="247"/>
      <point x="557" y="435"/>
      <point x="535" y="563" type="curve"/>
      <point x="527" y="612"/>
      <point x="511" y="652"/>
      <point x="487" y="683" type="curve" smooth="yes"/>
      <point x="477" y="697"/>
      <point x="434" y="710"/>
      <point x="379" y="710" type="curve"/>
      <point x="348" y="710"/>
      <point x="295" y="650"/>
      <point x="285" y="611" type="curve"/>
      <point x="296" y="611"/>
      <point x="304" y="611"/>
      <point x="313" y="611" type="curve" smooth="yes"/>
      <point x="340" y="611"/>
      <point x="349" y="607"/>
      <point x="355" y="595" type="curve"/>
      <point x="407" y="504"/>
      <point x="402" y="412"/>
      <point x="331" y="58" type="curve"/>
      <point x="327" y="40"/>
      <point x="327" y="32"/>
      <point x="335" y="22" type="curve" smooth="yes"/>
      <point x="351" y="1"/>
      <point x="394" y="-10"/>
      <point x="438" y="-10" type="curve" smooth="yes"/>
      <point x="456" y="-10"/>
      <point x="468" y="-9"/>
    </contour>
    <contour>
      <point x="30" y="290" type="line"/>
      <point x="24" y="265" type="line" smooth="yes"/>
      <point x="13" y="221"/>
      <point x="9" y="180"/>
      <point x="26" y="158" type="curve" smooth="yes"/>
      <point x="30" y="152"/>
      <point x="33" y="150"/>
      <point x="41" y="150" type="curve"/>
      <point x="395" y="150" type="line"/>
      <point x="417" y="240"/>
      <point x="380" y="290"/>
      <point x="275" y="290" type="curve" smooth="yes"/>
    </contour>
    <contour>
      <point x="507" y="770" type="curve"/>
      <point x="459" y="822"/>
      <point x="431" y="866"/>
      <point x="427" y="933" type="curve"/>
      <point x="373" y="933"/>
      <point x="341" y="928"/>
      <point x="297" y="914" type="curve" smooth="yes"/>
      <point x="281" y="908"/>
      <point x="272" y="893"/>
      <point x="274" y="878" type="curve" smooth="yes"/>
      <point x="284" y="821"/>
      <point x="298" y="801"/>
      <point x="345" y="771" type="curve" smooth="yes"/>
      <point x="359" y="763"/>
      <point x="377" y="757"/>
      <point x="414" y="757" type="curve" smooth="yes"/>
      <point x="447" y="757"/>
      <point x="469" y="760"/>
    </contour>
  </outline>
</glyph>
<glyph name="Acircumflex" format="1">
  <advance width="600"/>
  <unicode hex="00C2"/>
  <outline>
    <contour>
      <point x="143" y="-7" type="curve"/>
      <point x="265" y="400"/>
      <point x="309" y="504"/>
      <point x="420" y="594" type="curve"/>
      <point x="458" y="624"/>
      <point x="458" y="710"/>
      <point x="379" y="710" type="curve"/>
      <point x="349" y="710" type="line"/>
      <point x="212" y="615"/>
      <point x="69" y="338"/>
      <point x="-1" y="57" type="curve"/>
      <point x="-14" y="8"/>
      <point x="31" y="-10"/>
      <point x="105" y="-10" type="curve" smooth="yes"/>
      <point x="123" y="-10"/>
      <point x="131" y="-9"/>
    </contour>
    <contour>
      <point x="481" y="-6" type="curve"/>
      <point x="534" y="247"/>
      <point x="557" y="435"/>
      <point x="535" y="563" type="curve"/>
      <point x="527" y="612"/>
      <point x="511" y="652"/>
      <point x="487" y="683" type="curve" smooth="yes"/>
      <point x="477" y="697"/>
      <point x="434" y="710"/>
      <point x="379" y="710" type="curve"/>
      <point x="348" y="710"/>
      <point x="295" y="650"/>
      <point x="285" y="611" type="curve"/>
      <point x="296" y="611"/>
      <point x="304" y="611"/>
      <point x="313" y="611" type="curve" smooth="yes"/>
      <point x="340" y="611"/>
      <point x="349" y="607"/>
      <point x="355" y="595" type="curve"/>
      <point x="407" y="504"/>
      <point x="402" y="412"/>
      <point x="331" y="58" type="curve"/>
      <point x="327" y="40"/>
      <point x="327" y="32"/>
      <point x="335" y="22" type="curve" smooth="yes"/>
      <point x="351" y="1"/>
      <point x="394" y="-10"/>
      <point x="438" y="-10" type="curve" smooth="yes"/>
      <point x="456" y="-10"/>
      <point x="468" y="-9"/>
    </contour>
    <contour>
      <point x="30" y="290" type="line"/>
      <point x="24" y="265" type="line" smooth="yes"/>
      <point x="13" y="221"/>
      <point x="9" y="180"/>
      <point x="26" y="158" type="curve" smooth="yes"/>
      <point x="30" y="152"/>
      <point x="33" y="150"/>
      <point x="41" y="150" type="curve"/>
      <point x="395" y="150" type="line"/>
      <point x="417" y="240"/>
      <point x="380" y="290"/>
      <point x="275" y="290" type="curve" smooth="yes"/>
    </contour>
    <contour>
      <point x="327" y="769" type="line"/>
      <point x="369" y="815"/>
      <point x="439" y="857"/>
      <point x="514" y="875" type="curve"/>
      <point x="527" y="925"/>
      <point x="500" y="943"/>
      <point x="451" y="943" type="curve"/>
      <point x="405" y="943" type="line"/>
      <point x="352" y="925"/>
      <point x="291" y="884"/>
      <point x="249" y="847" type="curve" smooth="yes"/>
      <point x="226" y="826"/>
      <point x="215" y="809"/>
      <point x="213" y="803" type="curve" smooth="yes"/>
      <point x="208" y="783"/>
      <point x="266" y="769"/>
      <point x="321" y="769" type="curve"/>
    </contour>
    <contour>
      <point x="662" y="783" type="curve"/>
      <point x="643" y="842"/>
      <point x="620" y="883"/>
      <point x="575" y="915" type="curve" smooth="yes"/>
      <point x="535" y="942"/>
      <point x="502" y="943"/>
      <point x="469" y="943" type="curve" smooth="yes"/>
      <point x="448" y="943" type="line"/>
      <point x="427" y="943"/>
      <point x="407" y="927"/>
      <point x="381" y="873" type="curve"/>
      <point x="457" y="853"/>
      <point x="484" y="832"/>
      <point x="509" y="794" type="curve" smooth="yes"/>
      <point x="519" y="779"/>
      <point x="534" y="769"/>
      <point x="570" y="769" type="curve" smooth="yes"/>
      <point x="607" y="769"/>
      <point x="633" y="773"/>
    </contour>
  </outline>
</glyph>
<glyph name="Adieresis" format="1">
  <advance width="600"/>
  <unicode hex="00C4"/>
  <outline>
    <contour>
      <point x="143" y="-7" type="curve"/>
      <point x="265" y="400"/>
      <point x="309" y="504"/>
      <point x="420" y="594" type="curve"/>
      <point x="458" y="624"/>
      <point x="458" y="710"/>
      <point x="379" y="710" type="curve"/>
      <point x="349" y="710" type="line"/>
      <point x="212" y="615"/>
      <point x="69" y="338"/>
      <point x="-1" y="57" type="curve"/>
      <point x="-14" y="8"/>
      <point x="31" y="-10"/>
      <point x="105" y="-10" type="curve" smooth="yes"/>
      <point x="123" y="-10"/>
      <point x="131" y="-9"/>
    </contour>
    <contour>
      <point x="481" y="-6" type="curve"/>
      <point x="534" y="247"/>
      <point x="557" y="435"/>
      <point x="535" y="563" type="curve"/>
      <point x="527" y="612"/>
      <point x="511" y="652"/>
      <point x="487" y="683" type="curve" smooth="yes"/>
      <point x="477" y="697"/>
      <point x="434" y="710"/>
      <point x="379" y="710" type="curve"/>
      <point x="348" y="710"/>
      <point x="295" y="650"/>
      <point x="285" y="611" type="curve"/>
      <point x="296" y="611"/>
      <point x="304" y="611"/>
      <point x="313" y="611" type="curve" smooth="yes"/>
      <point x="340" y="611"/>
      <point x="349" y="607"/>
      <point x="355" y="595" type="curve"/>
      <point x="407" y="504"/>
      <point x="402" y="412"/>
      <point x="331" y="58" type="curve"/>
      <point x="327" y="40"/>
      <point x="327" y="32"/>
      <point x="335" y="22" type="curve" smooth="yes"/>
      <point x="351" y="1"/>
      <point x="394" y="-10"/>
      <point x="438" y="-10" type="curve" smooth="yes"/>
      <point x="456" y="-10"/>
      <point x="468" y="-9"/>
    </contour>
    <contour>
      <point x="30" y="290" type="line"/>
      <point x="24" y="265" type="line" smooth="yes"/>
      <point x="13" y="221"/>
      <point x="9" y="180"/>
      <point x="26" y="158" type="curve" smooth="yes"/>
      <point x="30" y="152"/>
      <point x="33" y="150"/>
      <point x="41" y="150" type="curve"/>
      <point x="395" y="150" type="line"/>
      <point x="417" y="240"/>
      <point x="380" y="290"/>
      <point x="275" y="290" type="curve" smooth="yes"/>
    </contour>
    <contour>
      <point x="398" y="789" type="curve"/>
      <point x="422" y="887" type="line" smooth="yes"/>
      <point x="433" y="931"/>
      <point x="386" y="936"/>
      <point x="343" y="936" type="curve" smooth="yes"/>
      <point x="325" y="936"/>
      <point x="299" y="935"/>
      <point x="278" y="933" type="curve"/>
      <point x="254" y="836" type="line" smooth="yes"/>
      <point x="243" y="792"/>
      <point x="290" y="785"/>
      <point x="332" y="785" type="curve" smooth="yes"/>
      <point x="351" y="785"/>
      <point x="376" y="785"/>
    </contour>
    <contour>
      <point x="618" y="789" type="curve"/>
      <point x="642" y="887" type="line" smooth="yes"/>
      <point x="653" y="931"/>
      <point x="606" y="936"/>
      <point x="563" y="936" type="curve" smooth="yes"/>
      <point x="545" y="936"/>
      <point x="519" y="935"/>
      <point x="498" y="933" type="curve"/>
      <point x="474" y="836" type="line" smooth="yes"/>
      <point x="463" y="792"/>
      <point x="510" y="785"/>
      <point x="552" y="785" type="curve" smooth="yes"/>
      <point x="571" y="785"/>
      <point x="596" y="785"/>
    </contour>
  </outline>
</glyph>
<glyph name="AE" format="1">
  <advance width="800"/>
  <unicode hex="00C6"/>
  <outline>
    <contour>
      <point x="100" y="-2" type="curve"/>
      <point x="208" y="374"/>
      <point x="357" y="541"/>
      <point x="459" y="620" type="curve" smooth="yes"/>
      <point x="492" y="646"/>
      <point x="497" y="700"/>
      <point x="418" y="700" type="curve"/>
      <point x="372" y="700" type="line"/>
      <point x="234" y="570"/>
      <point x="50" y="338"/>
      <point x="-20" y="57" type="curve" smooth="yes"/>
      <point x="-33" y="8"/>
      <point x="-14" y="-10"/>
      <point x="46" y="-10" type="curve" smooth="yes"/>
      <point x="66" y="-10"/>
      <point x="83" y="-7"/>
    </contour>
    <contour>
      <point x="444" y="8" type="curve"/>
      <point x="509" y="268"/>
      <point x="544" y="456"/>
      <point x="542" y="613" type="curve" smooth="yes"/>
      <point x="538" y="678"/>
      <point x="506" y="700"/>
      <point x="417" y="700" type="curve"/>
      <point x="391" y="700"/>
      <point x="351" y="638"/>
      <point x="329" y="550" type="curve"/>
      <point x="388" y="550" type="line"/>
      <point x="401" y="550"/>
      <point x="404" y="547"/>
      <point x="402" y="517" type="curve" smooth="yes"/>
      <point x="395" y="407"/>
      <point x="349" y="193"/>
      <point x="313" y="50" type="curve" smooth="yes"/>
      <point x="303" y="12"/>
      <point x="348" y="0"/>
      <point x="392" y="0" type="curve" smooth="yes"/>
      <point x="414" y="0"/>
      <point x="426" y="2"/>
    </contour>
    <contour>
      <point x="25" y="310" type="line"/>
      <point x="19" y="285" type="line"/>
      <point x="-1" y="208"/>
      <point x="5" y="170"/>
      <point x="36" y="170" type="curve"/>
      <point x="369" y="170" type="line"/>
      <point x="374" y="189" type="line"/>
      <point x="393" y="267"/>
      <point x="364" y="310"/>
      <point x="299" y="310" type="curve"/>
    </contour>
    <contour>
      <point x="403" y="700" type="line"/>
      <point x="396" y="675" type="line"/>
      <point x="375" y="591"/>
      <point x="419" y="550"/>
      <point x="442" y="550" type="curve" smooth="yes"/>
      <point x="850" y="550" type="line"/>
      <point x="859" y="564"/>
      <point x="865" y="583"/>
      <point x="871" y="604" type="curve" smooth="yes"/>
      <point x="876" y="625"/>
      <point x="882" y="669"/>
      <point x="868" y="688" type="curve" smooth="yes"/>
      <point x="860" y="698"/>
      <point x="854" y="700"/>
      <point x="837" y="700" type="curve"/>
    </contour>
    <contour>
      <point x="470" y="373" type="line"/>
      <point x="466" y="357" type="line"/>
      <point x="446" y="278"/>
      <point x="448" y="240"/>
      <point x="481" y="240" type="curve" smooth="yes"/>
      <point x="744" y="240" type="line"/>
      <point x="750" y="252"/>
      <point x="757" y="269"/>
      <point x="761" y="285" type="curve" smooth="yes"/>
      <point x="773" y="332"/>
      <point x="768" y="373"/>
      <point x="722" y="373" type="curve"/>
    </contour>
    <contour>
      <point x="355" y="150" type="line"/>
      <point x="350" y="132" type="line" smooth="yes"/>
      <point x="331" y="55"/>
      <point x="343" y="0"/>
      <point x="392" y="0" type="curve" smooth="yes"/>
      <point x="713" y="0" type="line"/>
      <point x="721" y="15"/>
      <point x="728" y="35"/>
      <point x="734" y="58" type="curve" smooth="yes"/>
      <point x="750" y="124"/>
      <point x="739" y="150"/>
      <point x="695" y="150" type="curve" smooth="yes"/>
    </contour>
    <contour>
      <point x="471" y="711" type="move" name="top"/>
    </contour>
  </outline>
</glyph>
<glyph name="Ccedilla" format="1">
  <advance width="600"/>
  <unicode hex="00C7"/>
  <outline>
    <contour>
      <point x="442" y="584" type="curve" smooth="yes"/>
      <point x="481" y="584"/>
      <point x="519" y="577"/>
      <point x="512" y="451" type="curve"/>
      <point x="568" y="451"/>
      <point x="582" y="456"/>
      <point x="586" y="472" type="curve" smooth="yes"/>
      <point x="610" y="570"/>
      <point x="608" y="635"/>
      <point x="580" y="673" type="curve" smooth="yes"/>
      <point x="556" y="705"/>
      <point x="518" y="720"/>
      <point x="456" y="720" type="curve" smooth="yes"/>
      <point x="289" y="720"/>
      <point x="124" y="543"/>
      <point x="62" y="294" type="curve" smooth="yes"/>
      <point x="55" y="268" type="line" smooth="yes"/>
      <point x="39" y="203"/>
      <point x="98" y="150"/>
      <point x="188" y="150" type="curve"/>
      <point x="185" y="175"/>
      <point x="191" y="228"/>
      <point x="204" y="278" type="curve" smooth="yes"/>
      <point x="209" y="296" type="line" smooth="yes"/>
      <point x="249" y="456"/>
      <point x="353" y="584"/>
    </contour>
    <contour>
      <point x="259" y="-20" type="curve" smooth="yes"/>
      <point x="337" y="-20"/>
      <point x="413" y="2"/>
      <point x="457" y="37" type="curve" smooth="yes"/>
      <point x="485" y="60"/>
      <point x="508" y="103"/>
      <point x="523" y="162" type="curve" smooth="yes"/>
      <point x="527" y="179"/>
      <point x="529" y="196"/>
      <point x="532" y="218" type="curve"/>
      <point x="528" y="218" type="line"/>
      <point x="459" y="159"/>
      <point x="381" y="130"/>
      <point x="295" y="130" type="curve" smooth="yes"/>
      <point x="197" y="130"/>
      <point x="174" y="188"/>
      <point x="213" y="342" type="curve"/>
      <point x="111" y="343"/>
      <point x="69" y="323"/>
      <point x="55" y="268" type="curve" smooth="yes"/>
      <point x="11" y="90"/>
      <point x="89" y="-20"/>
    </contour>
    <contour>
      <point x="568" y="400" type="curve"/>
      <point x="586" y="472" type="line" smooth="yes"/>
      <point x="616" y="594"/>
      <point x="581" y="645"/>
      <point x="504" y="645" type="curve"/>
      <point x="457" y="567"/>
      <point x="440" y="528"/>
      <point x="423" y="461" type="curve" smooth="yes"/>
      <point x="422" y="456" type="line"/>
      <point x="417" y="438"/>
      <point x="419" y="424"/>
      <point x="425" y="415" type="curve" smooth="yes"/>
      <point x="437" y="400"/>
      <point x="460" y="394"/>
      <point x="508" y="394" type="curve"/>
      <point x="531" y="394"/>
      <point x="552" y="396"/>
    </contour>
    <contour>
      <point x="358" y="-106" type="curve" smooth="yes"/>
      <point x="375" y="-36"/>
      <point x="335" y="-4"/>
      <point x="290" y="0" type="curve"/>
      <point x="295" y="18"/>
      <point x="299" y="31"/>
      <point x="305" y="44" type="curve"/>
      <point x="250" y="44"/>
      <point x="236" y="38"/>
      <point x="228" y="29" type="curve" smooth="yes"/>
      <point x="209" y="9"/>
      <point x="198" y="-15"/>
      <point x="194" y="-29" type="curve" smooth="yes"/>
      <point x="192" y="-36"/>
      <point x="195" y="-38"/>
      <point x="202" y="-38" type="curve" smooth="yes"/>
      <point x="234" y="-38"/>
      <point x="246" y="-51"/>
      <point x="239" y="-76" type="curve" smooth="yes"/>
      <point x="233" y="-102"/>
      <point x="211" y="-117"/>
      <point x="177" y="-117" type="curve" smooth="yes"/>
      <point x="144" y="-117"/>
      <point x="126" y="-112"/>
      <point x="108" y="-97" type="curve"/>
      <point x="104" y="-97" type="line"/>
      <point x="92" y="-116"/>
      <point x="85" y="-136"/>
      <point x="80" y="-156" type="curve" smooth="yes"/>
      <point x="68" y="-207"/>
      <point x="83" y="-247"/>
      <point x="158" y="-247" type="curve" smooth="yes"/>
      <point x="277" y="-247"/>
      <point x="340" y="-177"/>
    </contour>
  </outline>
</glyph>
<glyph name="Egrave" format="1">
  <advance width="550"/>
  <unicode hex="00C8"/>
  <outline>
    <contour>
      <point x="133" y="700" type="line"/>
      <point x="131" y="692"/>
      <point x="128" y="683"/>
      <point x="126" y="675" type="curve" smooth="yes"/>
      <point x="114" y="627"/>
      <point x="107" y="575"/>
      <point x="120" y="558" type="curve" smooth="yes"/>
      <point x="125" y="552"/>
      <point x="127" y="550"/>
      <point x="135" y="550" type="curve" smooth="yes"/>
      <point x="573" y="550" type="line"/>
      <point x="582" y="564"/>
      <point x="588" y="583"/>
      <point x="594" y="604" type="curve" smooth="yes"/>
      <point x="599" y="625"/>
      <point x="605" y="669"/>
      <point x="591" y="688" type="curve" smooth="yes"/>
      <point x="583" y="698"/>
      <point x="577" y="700"/>
      <point x="560" y="700" type="curve" smooth="yes"/>
    </contour>
    <contour>
      <point x="189" y="85" type="curve"/>
      <point x="287" y="477" type="line" smooth="yes"/>
      <point x="307" y="558"/>
      <point x="274" y="584"/>
      <point x="154" y="584" type="curve"/>
      <point x="42" y="140" type="line"/>
      <point x="32" y="97"/>
      <point x="105" y="85"/>
    </contour>
    <contour>
      <point x="45" y="150" type="line"/>
      <point x="40" y="132" type="line" smooth="yes"/>
      <point x="26" y="73"/>
      <point x="67" y="0"/>
      <point x="115" y="0" type="curve" smooth="yes"/>
      <point x="437" y="0" type="line"/>
      <point x="445" y="15"/>
      <point x="452" y="35"/>
      <point x="458" y="58" type="curve" smooth="yes"/>
      <point x="474" y="124"/>
      <point x="463" y="150"/>
      <point x="419" y="150" type="curve" smooth="yes"/>
    </contour>
    <contour>
      <point x="178" y="400" type="line"/>
      <point x="155" y="310"/>
      <point x="157" y="270"/>
      <point x="200" y="270" type="curve" smooth="yes"/>
      <point x="460" y="270" type="line"/>
      <point x="462" y="278"/>
      <point x="464" y="287"/>
      <point x="466" y="295" type="curve" smooth="yes"/>
      <point x="473" y="320"/>
      <point x="469" y="358"/>
      <point x="449" y="385" type="curve" smooth="yes"/>
      <point x="438" y="399"/>
      <point x="436" y="400"/>
      <point x="417" y="400" type="curve" smooth="yes"/>
    </contour>
    <contour>
      <point x="475" y="770" type="curve"/>
      <point x="427" y="822"/>
      <point x="399" y="866"/>
      <point x="395" y="933" type="curve"/>
      <point x="341" y="933"/>
      <point x="309" y="928"/>
      <point x="265" y="914" type="curve" smooth="yes"/>
      <point x="249" y="908"/>
      <point x="240" y="893"/>
      <point x="242" y="878" type="curve" smooth="yes"/>
      <point x="252" y="821"/>
      <point x="266" y="801"/>
      <point x="313" y="771" type="curve" smooth="yes"/>
      <point x="327" y="763"/>
      <point x="345" y="757"/>
      <point x="382" y="757" type="curve" smooth="yes"/>
      <point x="415" y="757"/>
      <point x="437" y="760"/>
    </contour>
  </outline>
</glyph>
<glyph name="Ecircumflex" format="1">
  <advance width="550"/>
  <unicode hex="00CA"/>
  <outline>
    <contour>
      <point x="133" y="700" type="line"/>
      <point x="131" y="692"/>
      <point x="128" y="683"/>
      <point x="126" y="675" type="curve" smooth="yes"/>
      <point x="114" y="627"/>
      <point x="107" y="575"/>
      <point x="120" y="558" type="curve" smooth="yes"/>
      <point x="125" y="552"/>
      <point x="127" y="550"/>
      <point x="135" y="550" type="curve" smooth="yes"/>
      <point x="573" y="550" type="line"/>
      <point x="582" y="564"/>
      <point x="588" y="583"/>
      <point x="594" y="604" type="curve" smooth="yes"/>
      <point x="599" y="625"/>
      <point x="605" y="669"/>
      <point x="591" y="688" type="curve" smooth="yes"/>
      <point x="583" y="698"/>
      <point x="577" y="700"/>
      <point x="560" y="700" type="curve" smooth="yes"/>
    </contour>
    <contour>
      <point x="189" y="85" type="curve"/>
      <point x="287" y="477" type="line" smooth="yes"/>
      <point x="307" y="558"/>
      <point x="274" y="584"/>
      <point x="154" y="584" type="curve"/>
      <point x="42" y="140" type="line"/>
      <point x="32" y="97"/>
      <point x="105" y="85"/>
    </contour>
    <contour>
      <point x="45" y="150" type="line"/>
      <point x="40" y="132" type="line" smooth="yes"/>
      <point x="26" y="73"/>
      <point x="67" y="0"/>
      <point x="115" y="0" type="curve" smooth="yes"/>
      <point x="437" y="0" type="line"/>
      <point x="445" y="15"/>
      <point x="452" y="35"/>
      <point x="458" y="58" type="curve" smooth="yes"/>
      <point x="474" y="124"/>
      <point x="463" y="150"/>
      <point x="419" y="150" type="curve" smooth="yes"/>
    </contour>
    <contour>
      <point x="178" y="400" type="line"/>
      <point x="155" y="310"/>
      <point x="157" y="270"/>
      <point x="200" y="270" type="curve" smooth="yes"/>
      <point x="460" y="270" type="line"/>
      <point x="462" y="278"/>
      <point x="464" y="287"/>
      <point x="466" y="295" type="curve" smooth="yes"/>
      <point x="473" y="320"/>
      <point x="469" y="358"/>
      <point x="449" y="385" type="curve" smooth="yes"/>
      <point x="438" y="399"/>
      <point x="436" y="400"/>
      <point x="417" y="400" type="curve" smooth="yes"/>
    </contour>
    <contour>
      <point x="295" y="769" type="line"/>
      <point x="337" y="815"/>
      <point x="407" y="857"/>
      <point x="482" y="875" type="curve"/>
      <point x="495" y="925"/>
      <point x="468" y="943"/>
      <point x="419" y="943" type="curve"/>
      <point x="373" y="943" type="line"/>
      <point x="320" y="925"/>
      <point x="259" y="884"/>
      <point x="217" y="847" type="curve" smooth="yes"/>
      <point x="194" y="826"/>
      <point x="183" y="809"/>
      <point x="181" y="803" type="curve" smooth="yes"/>
      <point x="176" y="783"/>
      <point x="234" y="769"/>
      <point x="289" y="769" type="curve"/>
    </contour>
    <contour>
      <point x="630" y="783" type="curve"/>
      <point x="611" y="842"/>
      <point x="588" y="883"/>
      <point x="543" y="915" type="curve" smooth="yes"/>
      <point x="503" y="942"/>
      <point x="470" y="943"/>
      <point x="437" y="943" type="curve" smooth="yes"/>
      <point x="416" y="943" type="line"/>
      <point x="395" y="943"/>
      <point x="375" y="927"/>
      <point x="349" y="873" type="curve"/>
      <point x="425" y="853"/>
      <point x="452" y="832"/>
      <point x="477" y="794" type="curve" smooth="yes"/>
      <point x="487" y="779"/>
      <point x="502" y="769"/>
      <point x="538" y="769" type="curve" smooth="yes"/>
      <point x="575" y="769"/>
      <point x="601" y="773"/>
    </contour>
  </outline>
</glyph>
<glyph name="Igrave" format="1">
  <advance width="500"/>
  <unicode hex="00CC"/>
  <outline>
    <contour>
      <point x="284" y="86" type="curve"/>
      <point x="382" y="477" type="line" smooth="yes"/>
      <point x="402" y="558"/>
      <point x="371" y="584"/>
      <point x="249" y="584" type="curve"/>
      <point x="159" y="228" type="line" smooth="yes"/>
      <point x="135" y="130"/>
      <point x="162" y="86"/>
    </contour>
    <contour>
      <point x="154" y="700" type="line"/>
      <point x="148" y="691"/>
      <point x="143" y="679"/>
      <point x="140" y="664" type="curve"/>
      <point x="130" y="626"/>
      <point x="132" y="597"/>
      <point x="147" y="577" type="curve" smooth="yes"/>
      <point x="163" y="555"/>
      <point x="192" y="550"/>
      <point x="265" y="550" type="curve" smooth="yes"/>
      <point x="524" y="550" type="line"/>
      <point x="534" y="570"/>
      <point x="541" y="590"/>
      <point x="546" y="608" type="curve" smooth="yes"/>
      <point x="558" y="659"/>
      <point x="561" y="700"/>
      <point x="507" y="700" type="curve" smooth="yes"/>
    </contour>
    <contour>
      <point x="18" y="150" type="line"/>
      <point x="9" y="134"/>
      <point x="2" y="116"/>
      <point x="-2" y="97" type="curve"/>
      <point x="-10" y="67"/>
      <point x="-14" y="36"/>
      <point x="0" y="18" type="curve" smooth="yes"/>
      <point x="10" y="4"/>
      <point x="21" y="0"/>
      <point x="61" y="0" type="curve" smooth="yes"/>
      <point x="386" y="0" type="line"/>
      <point x="394" y="15"/>
      <point x="402" y="35"/>
      <point x="408" y="58" type="curve" smooth="yes"/>
      <point x="421" y="109"/>
      <point x="423" y="150"/>
      <point x="369" y="150" type="curve" smooth="yes"/>
    </contour>
    <contour>
      <point x="458" y="770" type="curve"/>
      <point x="410" y="822"/>
      <point x="382" y="866"/>
      <point x="378" y="933" type="curve"/>
      <point x="324" y="933"/>
      <point x="292" y="928"/>
      <point x="248" y="914" type="curve" smooth="yes"/>
      <point x="232" y="908"/>
      <point x="223" y="893"/>
      <point x="225" y="878" type="curve" smooth="yes"/>
      <point x="235" y="821"/>
      <point x="249" y="801"/>
      <point x="296" y="771" type="curve" smooth="yes"/>
      <point x="310" y="763"/>
      <point x="328" y="757"/>
      <point x="365" y="757" type="curve" smooth="yes"/>
      <point x="398" y="757"/>
      <point x="420" y="760"/>
    </contour>
  </outline>
</glyph>
<glyph name="Iacute" format="1">
  <advance width="500"/>
  <unicode hex="00CD"/>
  <outline>
    <contour>
      <point x="284" y="86" type="curve"/>
      <point x="382" y="477" type="line" smooth="yes"/>
      <point x="402" y="558"/>
      <point x="371" y="584"/>
      <point x="249" y="584" type="curve"/>
      <point x="159" y="228" type="line" smooth="yes"/>
      <point x="135" y="130"/>
      <point x="162" y="86"/>
    </contour>
    <contour>
      <point x="154" y="700" type="line"/>
      <point x="148" y="691"/>
      <point x="143" y="679"/>
      <point x="140" y="664" type="curve"/>
      <point x="130" y="626"/>
      <point x="132" y="597"/>
      <point x="147" y="577" type="curve" smooth="yes"/>
      <point x="163" y="555"/>
      <point x="192" y="550"/>
      <point x="265" y="550" type="curve" smooth="yes"/>
      <point x="524" y="550" type="line"/>
      <point x="534" y="570"/>
      <point x="541" y="590"/>
      <point x="546" y="608" type="curve" smooth="yes"/>
      <point x="558" y="659"/>
      <point x="561" y="700"/>
      <point x="507" y="700" type="curve" smooth="yes"/>
    </contour>
    <contour>
      <point x="18" y="150" type="line"/>
      <point x="9" y="134"/>
      <point x="2" y="116"/>
      <point x="-2" y="97" type="curve"/>
      <point x="-10" y="67"/>
      <point x="-14" y="36"/>
      <point x="0" y="18" type="curve" smooth="yes"/>
      <point x="10" y="4"/>
      <point x="21" y="0"/>
      <point x="61" y="0" type="curve" smooth="yes"/>
      <point x="386" y="0" type="line"/>
      <point x="394" y="15"/>
      <point x="402" y="35"/>
      <point x="408" y="58" type="curve" smooth="yes"/>
      <point x="421" y="109"/>
      <point x="423" y="150"/>
      <point x="369" y="150" type="curve" smooth="yes"/>
    </contour>
    <contour>
      <point x="381" y="757" type="curve" smooth="yes"/>
      <point x="418" y="757"/>
      <point x="438" y="762"/>
      <point x="455" y="770" type="curve" smooth="yes"/>
      <point x="513" y="798"/>
      <point x="546" y="826"/>
      <point x="581" y="879" type="curve" smooth="yes"/>
      <point x="591" y="893"/>
      <point x="590" y="908"/>
      <point x="576" y="914" type="curve" smooth="yes"/>
      <point x="540" y="928"/>
      <point x="510" y="933"/>
      <point x="456" y="933" type="curve"/>
      <point x="418" y="866"/>
      <point x="368" y="822"/>
      <point x="294" y="770" type="curve"/>
      <point x="328" y="760"/>
      <point x="348" y="757"/>
    </contour>
  </outline>
</glyph>
<glyph name="Idieresis" format="1">
  <advance width="500"/>
  <unicode hex="00CF"/>
  <outline>
    <contour>
      <point x="284" y="86" type="curve"/>
      <point x="382" y="477" type="line" smooth="yes"/>
      <point x="402" y="558"/>
      <point x="371" y="584"/>
      <point x="249" y="584" type="curve"/>
      <point x="159" y="228" type="line" smooth="yes"/>
      <point x="135" y="130"/>
      <point x="162" y="86"/>
    </contour>
    <contour>
      <point x="154" y="700" type="line"/>
      <point x="148" y="691"/>
      <point x="143" y="679"/>
      <point x="140" y="664" type="curve"/>
      <point x="130" y="626"/>
      <point x="132" y="597"/>
      <point x="147" y="577" type="curve" smooth="yes"/>
      <point x="163" y="555"/>
      <point x="192" y="550"/>
      <point x="265" y="550" type="curve" smooth="yes"/>
      <point x="524" y="550" type="line"/>
      <point x="534" y="570"/>
      <point x="541" y="590"/>
      <point x="546" y="608" type="curve" smooth="yes"/>
      <point x="558" y="659"/>
      <point x="561" y="700"/>
      <point x="507" y="700" type="curve" smooth="yes"/>
    </contour>
    <contour>
      <point x="18" y="150" type="line"/>
      <point x="9" y="134"/>
      <point x="2" y="116"/>
      <point x="-2" y="97" type="curve"/>
      <point x="-10" y="67"/>
      <point x="-14" y="36"/>
      <point x="0" y="18" type="curve" smooth="yes"/>
      <point x="10" y="4"/>
      <point x="21" y="0"/>
      <point x="61" y="0" type="curve" smooth="yes"/>
      <point x="386" y="0" type="line"/>
      <point x="394" y="15"/>
      <point x="402" y="35"/>
      <point x="408" y="58" type="curve" smooth="yes"/>
      <point x="421" y="109"/>
      <point x="423" y="150"/>
      <point x="369" y="150" type="curve" smooth="yes"/>
    </contour>
    <contour>
      <point x="349" y="789" type="curve"/>
      <point x="373" y="887" type="line" smooth="yes"/>
      <point x="384" y="931"/>
      <point x="337" y="936"/>
      <point x="294" y="936" type="curve" smooth="yes"/>
      <point x="276" y="936"/>
      <point x="250" y="935"/>
      <point x="229" y="933" type="curve"/>
      <point x="205" y="836" type="line" smooth="yes"/>
      <point x="194" y="792"/>
      <point x="241" y="785"/>
      <point x="283" y="785" type="curve" smooth="yes"/>
      <point x="302" y="785"/>
      <point x="327" y="785"/>
    </contour>
    <contour>
      <point x="569" y="789" type="curve"/>
      <point x="593" y="887" type="line" smooth="yes"/>
      <point x="604" y="931"/>
      <point x="557" y="936"/>
      <point x="514" y="936" type="curve" smooth="yes"/>
      <point x="496" y="936"/>
      <point x="470" y="935"/>
      <point x="449" y="933" type="curve"/>
      <point x="425" y="836" type="line" smooth="yes"/>
      <point x="414" y="792"/>
      <point x="461" y="785"/>
      <point x="503" y="785" type="curve" smooth="yes"/>
      <point x="522" y="785"/>
      <point x="547" y="785"/>
    </contour>
  </outline>
</glyph>
<glyph name="Ntilde" format="1">
  <advance width="700"/>
  <unicode hex="00D1"/>
  <outline>
    <contour>
      <point x="156" y="-4" type="curve"/>
      <point x="183" y="101" type="line"/>
      <point x="268" y="443"/>
      <point x="296" y="655"/>
      <point x="267" y="693" type="curve" smooth="yes"/>
      <point x="261" y="701"/>
      <point x="248" y="710"/>
      <point x="240" y="710" type="curve"/>
      <point x="215" y="710"/>
      <point x="198" y="708"/>
      <point x="170" y="701" type="curve"/>
      <point x="170" y="665"/>
      <point x="165" y="630"/>
      <point x="155" y="590" type="curve" smooth="yes"/>
      <point x="22" y="57" type="line"/>
      <point x="9" y="8"/>
      <point x="65" y="-9"/>
      <point x="108" y="-9" type="curve"/>
      <point x="129" y="-9"/>
      <point x="140" y="-9"/>
    </contour>
    <contour>
      <point x="565" y="-10" type="line"/>
      <point x="730" y="651" type="line"/>
      <point x="740" y="691"/>
      <point x="690" y="710"/>
      <point x="620" y="710" type="curve"/>
      <point x="595" y="710" type="line"/>
      <point x="535" y="470" type="line"/>
      <point x="474" y="225"/>
      <point x="455" y="54"/>
      <point x="480" y="20" type="curve" smooth="yes"/>
      <point x="496" y="-1"/>
      <point x="522" y="-10"/>
      <point x="540" y="-10" type="curve"/>
    </contour>
    <contour>
      <point x="240" y="710" type="line"/>
      <point x="260" y="683"/>
      <point x="256" y="627"/>
      <point x="253" y="579" type="curve"/>
      <point x="235" y="323"/>
      <point x="353" y="121"/>
      <point x="417" y="35" type="curve"/>
      <point x="440" y="5"/>
      <point x="487" y="-10"/>
      <point x="540" y="-10" type="curve" smooth="yes"/>
      <point x="544" y="-10"/>
      <point x="545" y="-10"/>
      <point x="549" y="-10" type="curve"/>
      <point x="554" y="-10"/>
      <point x="566" y="29"/>
      <point x="580" y="87" type="curve"/>
      <point x="440" y="254"/>
      <point x="379" y="442"/>
      <point x="369" y="667" type="curve"/>
      <point x="368" y="695"/>
      <point x="298" y="710"/>
      <point x="242" y="710" type="curve"/>
    </contour>
    <contour>
      <point x="602" y="902" type="curve" smooth="yes"/>
      <point x="532" y="902"/>
      <point x="485" y="974"/>
      <point x="414" y="974" type="curve" smooth="yes"/>
      <point x="371" y="974"/>
      <point x="340" y="951"/>
      <point x="317" y="915" type="curve" smooth="yes"/>
      <point x="308" y="901"/>
      <point x="294" y="874"/>
      <point x="285" y="836" type="curve" smooth="yes"/>
      <point x="281" y="821"/>
      <point x="277" y="799"/>
      <point x="279" y="784" type="curve"/>
      <point x="283" y="784" type="line"/>
      <point x="325" y="819"/>
      <point x="353" y="832"/>
      <point x="393" y="832" type="curve" smooth="yes"/>
      <point x="463" y="832"/>
      <point x="510" y="760"/>
      <point x="581" y="760" type="curve" smooth="yes"/>
      <point x="624" y="760"/>
      <point x="654" y="783"/>
      <point x="677" y="819" type="curve" smooth="yes"/>
      <point x="687" y="833"/>
      <point x="701" y="860"/>
      <point x="710" y="898" type="curve" smooth="yes"/>
      <point x="714" y="913"/>
      <point x="717" y="935"/>
      <point x="716" y="950" type="curve"/>
      <point x="712" y="950" type="line"/>
      <point x="669" y="915"/>
      <point x="642" y="902"/>
    </contour>
  </outline>
</glyph>
<glyph name="Oacute" format="1">
  <advance width="650"/>
  <unicode hex="00D3"/>
  <outline>
    <contour>
      <point x="433" y="720" type="curve" smooth="yes"/>
      <point x="262" y="720"/>
      <point x="128" y="583"/>
      <point x="68" y="342" type="curve" smooth="yes"/>
      <point x="64" y="326" type="line" smooth="yes"/>
      <point x="8" y="103"/>
      <point x="76" y="-20"/>
      <point x="256" y="-20" type="curve" smooth="yes"/>
      <point x="301" y="-20"/>
      <point x="343" y="28"/>
      <point x="361" y="98" type="curve"/>
      <point x="209" y="98"/>
      <point x="175" y="171"/>
      <point x="210" y="309" type="curve" smooth="yes"/>
      <point x="213" y="322" type="line" smooth="yes"/>
      <point x="258" y="502"/>
      <point x="314" y="571"/>
      <point x="398" y="571" type="curve" smooth="yes"/>
      <point x="455" y="571"/>
      <point x="482" y="560"/>
      <point x="513" y="535" type="curve"/>
      <point x="577" y="583"/>
      <point x="518" y="720"/>
    </contour>
    <contour>
      <point x="256" y="-20" type="curve" smooth="yes"/>
      <point x="428" y="-20"/>
      <point x="562" y="117"/>
      <point x="622" y="358" type="curve" smooth="yes"/>
      <point x="626" y="374" type="line" smooth="yes"/>
      <point x="682" y="597"/>
      <point x="614" y="720"/>
      <point x="433" y="720" type="curve" smooth="yes"/>
      <point x="388" y="720"/>
      <point x="346" y="672"/>
      <point x="328" y="602" type="curve"/>
      <point x="481" y="602"/>
      <point x="515" y="529"/>
      <point x="480" y="391" type="curve" smooth="yes"/>
      <point x="477" y="378" type="line" smooth="yes"/>
      <point x="432" y="198"/>
      <point x="376" y="129"/>
      <point x="291" y="129" type="curve" smooth="yes"/>
      <point x="234" y="129"/>
      <point x="207" y="140"/>
      <point x="176" y="165" type="curve"/>
      <point x="112" y="117"/>
      <point x="171" y="-20"/>
    </contour>
    <contour>
      <point x="455" y="757" type="curve" smooth="yes"/>
      <point x="492" y="757"/>
      <point x="512" y="762"/>
      <point x="529" y="770" type="curve" smooth="yes"/>
      <point x="587" y="798"/>
      <point x="620" y="826"/>
      <point x="655" y="879" type="curve" smooth="yes"/>
      <point x="665" y="893"/>
      <point x="664" y="908"/>
      <point x="650" y="914" type="curve" smooth="yes"/>
      <point x="614" y="928"/>
      <point x="584" y="933"/>
      <point x="530" y="933" type="curve"/>
      <point x="492" y="866"/>
      <point x="442" y="822"/>
      <point x="368" y="770" type="curve"/>
      <point x="402" y="760"/>
      <point x="422" y="757"/>
    </contour>
  </outline>
</glyph>
<glyph name="Ocircumflex" format="1">
  <advance width="650"/>
  <unicode hex="00D4"/>
  <outline>
    <contour>
      <point x="433" y="720" type="curve" smooth="yes"/>
      <point x="262" y="720"/>
      <point x="128" y="583"/>
      <point x="68" y="342" type="curve" smooth="yes"/>
      <point x="64" y="326" type="line" smooth="yes"/>
      <point x="8" y="103"/>
      <point x="76" y="-20"/>
      <point x="256" y="-20" type="curve" smooth="yes"/>
      <point x="301" y="-20"/>
      <point x="343" y="28"/>
      <point x="361" y="98" type="curve"/>
      <point x="209" y="98"/>
      <point x="175" y="171"/>
      <point x="210" y="309" type="curve" smooth="yes"/>
      <point x="213" y="322" type="line" smooth="yes"/>
      <point x="258" y="502"/>
      <point x="314" y="571"/>
      <point x="398" y="571" type="curve" smooth="yes"/>
      <point x="455" y="571"/>
      <point x="482" y="560"/>
      <point x="513" y="535" type="curve"/>
      <point x="577" y="583"/>
      <point x="518" y="720"/>
    </contour>
    <contour>
      <point x="256" y="-20" type="curve" smooth="yes"/>
      <point x="428" y="-20"/>
      <point x="562" y="117"/>
      <point x="622" y="358" type="curve" smooth="yes"/>
      <point x="626" y="374" type="line" smooth="yes"/>
      <point x="682" y="597"/>
      <point x="614" y="720"/>
      <point x="433" y="720" type="curve" smooth="yes"/>
      <point x="388" y="720"/>
      <point x="346" y="672"/>
      <point x="328" y="602" type="curve"/>
      <point x="481" y="602"/>
      <point x="515" y="529"/>
      <point x="480" y="391" type="curve" smooth="yes"/>
      <point x="477" y="378" type="line" smooth="yes"/>
      <point x="432" y="198"/>
      <point x="376" y="129"/>
      <point x="291" y="129" type="curve" smooth="yes"/>
      <point x="234" y="129"/>
      <point x="207" y="140"/>
      <point x="176" y="165" type="curve"/>
      <point x="112" y="117"/>
      <point x="171" y="-20"/>
    </contour>
    <contour>
      <point x="352" y="769" type="line"/>
      <point x="394" y="815"/>
      <point x="464" y="857"/>
      <point x="539" y="875" type="curve"/>
      <point x="552" y="925"/>
      <point x="525" y="943"/>
      <point x="476" y="943" type="curve"/>
      <point x="430" y="943" type="line"/>
      <point x="377" y="925"/>
      <point x="316" y="884"/>
      <point x="274" y="847" type="curve" smooth="yes"/>
      <point x="251" y="826"/>
      <point x="240" y="809"/>
      <point x="238" y="803" type="curve" smooth="yes"/>
      <point x="233" y="783"/>
      <point x="291" y="769"/>
      <point x="346" y="769" type="curve"/>
    </contour>
    <contour>
      <point x="687" y="783" type="curve"/>
      <point x="668" y="842"/>
      <point x="645" y="883"/>
      <point x="600" y="915" type="curve" smooth="yes"/>
      <point x="560" y="942"/>
      <point x="527" y="943"/>
      <point x="494" y="943" type="curve" smooth="yes"/>
      <point x="473" y="943" type="line"/>
      <point x="452" y="943"/>
      <point x="432" y="927"/>
      <point x="406" y="873" type="curve"/>
      <point x="482" y="853"/>
      <point x="509" y="832"/>
      <point x="534" y="794" type="curve" smooth="yes"/>
      <point x="544" y="779"/>
      <point x="559" y="769"/>
      <point x="595" y="769" type="curve" smooth="yes"/>
      <point x="632" y="769"/>
      <point x="658" y="773"/>
    </contour>
  </outline>
</glyph>
